<svg width="360" height="70" viewBox="0 0 360 70" fill="none" xmlns="http://www.w3.org/2000/svg">
<rect x="3.5" y="3.5" width="353" height="63" rx="31.5" stroke="#A25353" stroke-width="7"/>
<path d="M56.64 28.656L50.4 45.04H47.52L56.64 22.48L65.76 45.04H62.88L56.64 28.656ZM65.6 46H47.68V49.52H45.28V43.44H68V49.52H65.6V46ZM72.6288 34.8C72.6288 36.4853 72.9914 37.9893 73.7168 39.312C74.4634 40.6347 75.4768 41.68 76.7568 42.448C78.0368 43.216 79.4874 43.6 81.1088 43.6C82.7514 43.6 84.2021 43.216 85.4608 42.448C86.7408 41.68 87.7434 40.6347 88.4688 39.312C89.2154 37.9893 89.5888 36.4853 89.5888 34.8C89.5888 33.1147 89.2154 31.6107 88.4688 30.288C87.7434 28.9653 86.7408 27.92 85.4608 27.152C84.2021 26.384 82.7514 26 81.1088 26C79.4874 26 78.0368 26.384 76.7568 27.152C75.4768 27.92 74.4634 28.9653 73.7168 30.288C72.9914 31.6107 72.6288 33.1147 72.6288 34.8ZM69.7488 34.8C69.7488 33.1573 70.0261 31.6427 70.5807 30.256C71.1568 28.848 71.9568 27.632 72.9808 26.608C74.0048 25.5627 75.2101 24.752 76.5968 24.176C77.9834 23.5787 79.4874 23.28 81.1088 23.28C82.7514 23.28 84.2554 23.5787 85.6208 24.176C87.0074 24.752 88.2128 25.5627 89.2368 26.608C90.2608 27.632 91.0501 28.848 91.6048 30.256C92.1808 31.6427 92.4688 33.1573 92.4688 34.8C92.4688 36.4213 92.1808 37.936 91.6048 39.344C91.0501 40.752 90.2608 41.9787 89.2368 43.024C88.2128 44.048 87.0074 44.8587 85.6208 45.456C84.2554 46.032 82.7514 46.32 81.1088 46.32C79.4874 46.32 77.9834 46.032 76.5968 45.456C75.2101 44.8587 74.0048 44.048 72.9808 43.024C71.9568 41.9787 71.1568 40.752 70.5807 39.344C70.0261 37.936 69.7488 36.4213 69.7488 34.8ZM97.814 35.12V32.56H102.39C103.841 32.56 105.131 32.8373 106.262 33.392C107.414 33.9253 108.321 34.6933 108.982 35.696C109.665 36.6987 110.006 37.8933 110.006 39.28C110.006 40.6453 109.665 41.84 108.982 42.864C108.321 43.8667 107.414 44.6453 106.262 45.2C105.131 45.7333 103.841 46 102.39 46H97.814V43.44H102.39C103.35 43.44 104.193 43.2907 104.918 42.992C105.665 42.672 106.241 42.2027 106.646 41.584C107.073 40.9653 107.286 40.1973 107.286 39.28C107.286 38.3627 107.073 37.5947 106.646 36.976C106.241 36.3573 105.665 35.8987 104.918 35.6C104.193 35.28 103.35 35.12 102.39 35.12H97.814ZM96.31 23.6H108.31V26.16H99.03V46H96.31V23.6ZM115.516 39.28L116.477 36.72H126.397L127.357 39.28H115.516ZM121.373 28.656L117.597 37.552L117.341 38.128L114.013 46H110.973L121.373 22.48L131.773 46H128.733L125.469 38.32L125.213 37.68L121.373 28.656ZM136.641 34.16V32.656H140.258C141.004 32.656 141.676 32.528 142.274 32.272C142.871 32.016 143.34 31.6427 143.682 31.152C144.023 30.6613 144.194 30.064 144.194 29.36C144.194 28.2933 143.82 27.472 143.074 26.896C142.327 26.2987 141.388 26 140.258 26H137.218V43.6H140.578C141.538 43.6 142.38 43.4293 143.106 43.088C143.852 42.7467 144.428 42.256 144.834 41.616C145.26 40.976 145.474 40.1973 145.474 39.28C145.474 38.5973 145.356 37.9893 145.122 37.456C144.887 36.9227 144.546 36.4747 144.098 36.112C143.671 35.7493 143.159 35.4827 142.562 35.312C141.964 35.12 141.303 35.024 140.578 35.024H136.641V33.52H140.578C141.666 33.52 142.668 33.6373 143.586 33.872C144.503 34.1067 145.303 34.4693 145.986 34.96C146.69 35.4293 147.234 36.0373 147.618 36.784C148.002 37.5307 148.194 38.416 148.194 39.44C148.194 40.912 147.852 42.1387 147.17 43.12C146.508 44.08 145.602 44.8053 144.45 45.296C143.319 45.7653 142.028 46 140.578 46H134.498V23.6H140.258C141.602 23.6 142.764 23.8027 143.746 24.208C144.748 24.6133 145.527 25.232 146.082 26.064C146.636 26.8747 146.914 27.92 146.914 29.2C146.914 30.2453 146.636 31.1413 146.082 31.888C145.527 32.6347 144.748 33.2 143.746 33.584C142.764 33.968 141.602 34.16 140.258 34.16H136.641ZM171.861 26.64L152.341 47.12L152.501 42.96L172.021 22.48L171.861 26.64ZM155.061 23.6V43.6L152.341 47.12V23.6H155.061ZM172.021 22.48V46H169.301V26L172.021 22.48ZM174.914 26.16V23.6H189.154V26.16H183.394V46H180.674V26.16H174.914ZM192.029 23.6H194.749V46H192.029V23.6ZM193.533 35.12V32.56H198.109C199.559 32.56 200.85 32.8373 201.981 33.392C203.133 33.9253 204.039 34.6933 204.701 35.696C205.383 36.6987 205.725 37.8933 205.725 39.28C205.725 40.6453 205.383 41.84 204.701 42.864C204.039 43.8667 203.133 44.6453 201.981 45.2C200.85 45.7333 199.559 46 198.109 46H193.533V43.44H198.109C199.069 43.44 199.911 43.2907 200.637 42.992C201.383 42.672 201.959 42.2027 202.365 41.584C202.791 40.9653 203.005 40.1973 203.005 39.28C203.005 38.3627 202.791 37.5947 202.365 36.976C201.959 36.3573 201.383 35.8987 200.637 35.6C199.911 35.28 199.069 35.12 198.109 35.12H193.533ZM222.258 30.864L220.594 46H217.874L220.594 22.48L229.554 38.704L238.514 22.48L241.234 46H238.514L236.85 30.864L229.554 43.92L222.258 30.864ZM246.564 46V43.44H257.86V46H246.564ZM246.564 26.16V23.6H257.86V26.16H246.564ZM246.564 35.12V32.56H257.22V35.12H246.564ZM245.06 23.6H247.78V46H245.06V23.6ZM264.158 35.12V32.56H279.518V35.12H264.158ZM277.694 23.6H280.414V46H277.694V23.6ZM262.654 23.6H265.374V46H262.654V23.6ZM287.033 35.12V32.56H294.073V35.12H287.033ZM285.529 23.6H288.249V46H285.529V23.6ZM294.809 34.8C294.809 36.4853 295.171 37.9893 295.897 39.312C296.643 40.6347 297.657 41.68 298.937 42.448C300.217 43.216 301.667 43.6 303.289 43.6C304.931 43.6 306.382 43.216 307.641 42.448C308.921 41.68 309.923 40.6347 310.649 39.312C311.395 37.9893 311.769 36.4853 311.769 34.8C311.769 33.1147 311.395 31.6107 310.649 30.288C309.923 28.9653 308.921 27.92 307.641 27.152C306.382 26.384 304.931 26 303.289 26C301.667 26 300.217 26.384 298.937 27.152C297.657 27.92 296.643 28.9653 295.897 30.288C295.171 31.6107 294.809 33.1147 294.809 34.8ZM291.929 34.8C291.929 33.1573 292.206 31.6427 292.761 30.256C293.337 28.848 294.137 27.632 295.161 26.608C296.185 25.5627 297.39 24.752 298.777 24.176C300.163 23.5787 301.667 23.28 303.289 23.28C304.931 23.28 306.435 23.5787 307.801 24.176C309.187 24.752 310.393 25.5627 311.417 26.608C312.441 27.632 313.23 28.848 313.785 30.256C314.361 31.6427 314.649 33.1573 314.649 34.8C314.649 36.4213 314.361 37.936 313.785 39.344C313.23 40.752 312.441 41.9787 311.417 43.024C310.393 44.048 309.187 44.8587 307.801 45.456C306.435 46.032 304.931 46.32 303.289 46.32C301.667 46.32 300.163 46.032 298.777 45.456C297.39 44.8587 296.185 44.048 295.161 43.024C294.137 41.9787 293.337 40.752 292.761 39.344C292.206 37.936 291.929 36.4213 291.929 34.8Z" fill="#A25353"/>
</svg>
