<svg width="360" height="70" viewBox="0 0 360 70" fill="none" xmlns="http://www.w3.org/2000/svg">
<rect x="3.5" y="3.5" width="353" height="63" rx="31.5" stroke="#A25353" stroke-width="7"/>
<path d="M61.64 28.656L55.4 45.04H52.52L61.64 22.48L70.76 45.04H67.88L61.64 28.656ZM70.6 46H52.68V49.52H50.28V43.44H73V49.52H70.6V46ZM77.6288 34.8C77.6288 36.4853 77.9914 37.9893 78.7168 39.312C79.4634 40.6347 80.4768 41.68 81.7568 42.448C83.0368 43.216 84.4874 43.6 86.1088 43.6C87.7514 43.6 89.2021 43.216 90.4608 42.448C91.7408 41.68 92.7434 40.6347 93.4688 39.312C94.2154 37.9893 94.5888 36.4853 94.5888 34.8C94.5888 33.1147 94.2154 31.6107 93.4688 30.288C92.7434 28.9653 91.7408 27.92 90.4608 27.152C89.2021 26.384 87.7514 26 86.1088 26C84.4874 26 83.0368 26.384 81.7568 27.152C80.4768 27.92 79.4634 28.9653 78.7168 30.288C77.9914 31.6107 77.6288 33.1147 77.6288 34.8ZM74.7488 34.8C74.7488 33.1573 75.0261 31.6427 75.5807 30.256C76.1568 28.848 76.9568 27.632 77.9808 26.608C79.0048 25.5627 80.2101 24.752 81.5968 24.176C82.9834 23.5787 84.4874 23.28 86.1088 23.28C87.7514 23.28 89.2554 23.5787 90.6208 24.176C92.0074 24.752 93.2128 25.5627 94.2368 26.608C95.2608 27.632 96.0501 28.848 96.6048 30.256C97.1808 31.6427 97.4688 33.1573 97.4688 34.8C97.4688 36.4213 97.1808 37.936 96.6048 39.344C96.0501 40.752 95.2608 41.9787 94.2368 43.024C93.2128 44.048 92.0074 44.8587 90.6208 45.456C89.2554 46.032 87.7514 46.32 86.1088 46.32C84.4874 46.32 82.9834 46.032 81.5968 45.456C80.2101 44.8587 79.0048 44.048 77.9808 43.024C76.9568 41.9787 76.1568 40.752 75.5807 39.344C75.0261 37.936 74.7488 36.4213 74.7488 34.8ZM102.814 35.12V32.56H107.39C108.841 32.56 110.131 32.8373 111.262 33.392C112.414 33.9253 113.321 34.6933 113.982 35.696C114.665 36.6987 115.006 37.8933 115.006 39.28C115.006 40.6453 114.665 41.84 113.982 42.864C113.321 43.8667 112.414 44.6453 111.262 45.2C110.131 45.7333 108.841 46 107.39 46H102.814V43.44H107.39C108.35 43.44 109.193 43.2907 109.918 42.992C110.665 42.672 111.241 42.2027 111.646 41.584C112.073 40.9653 112.286 40.1973 112.286 39.28C112.286 38.3627 112.073 37.5947 111.646 36.976C111.241 36.3573 110.665 35.8987 109.918 35.6C109.193 35.28 108.35 35.12 107.39 35.12H102.814ZM101.31 23.6H113.31V26.16H104.03V46H101.31V23.6ZM120.516 39.28L121.477 36.72H131.397L132.357 39.28H120.516ZM126.373 28.656L122.597 37.552L122.341 38.128L119.013 46H115.973L126.373 22.48L136.773 46H133.733L130.469 38.32L130.213 37.68L126.373 28.656ZM141.641 34.16V32.656H145.258C146.004 32.656 146.676 32.528 147.274 32.272C147.871 32.016 148.34 31.6427 148.682 31.152C149.023 30.6613 149.194 30.064 149.194 29.36C149.194 28.2933 148.82 27.472 148.074 26.896C147.327 26.2987 146.388 26 145.258 26H142.218V43.6H145.578C146.538 43.6 147.38 43.4293 148.106 43.088C148.852 42.7467 149.428 42.256 149.834 41.616C150.26 40.976 150.474 40.1973 150.474 39.28C150.474 38.5973 150.356 37.9893 150.122 37.456C149.887 36.9227 149.546 36.4747 149.098 36.112C148.671 35.7493 148.159 35.4827 147.562 35.312C146.964 35.12 146.303 35.024 145.578 35.024H141.641V33.52H145.578C146.666 33.52 147.668 33.6373 148.586 33.872C149.503 34.1067 150.303 34.4693 150.986 34.96C151.69 35.4293 152.234 36.0373 152.618 36.784C153.002 37.5307 153.194 38.416 153.194 39.44C153.194 40.912 152.852 42.1387 152.17 43.12C151.508 44.08 150.602 44.8053 149.45 45.296C148.319 45.7653 147.028 46 145.578 46H139.498V23.6H145.258C146.602 23.6 147.764 23.8027 148.746 24.208C149.748 24.6133 150.527 25.232 151.082 26.064C151.636 26.8747 151.914 27.92 151.914 29.2C151.914 30.2453 151.636 31.1413 151.082 31.888C150.527 32.6347 149.748 33.2 148.746 33.584C147.764 33.968 146.602 34.16 145.258 34.16H141.641ZM176.861 26.64L157.341 47.12L157.501 42.96L177.021 22.48L176.861 26.64ZM160.061 23.6V43.6L157.341 47.12V23.6H160.061ZM177.021 22.48V46H174.301V26L177.021 22.48ZM179.914 26.16V23.6H194.154V26.16H188.394V46H185.674V26.16H179.914ZM197.029 23.6H199.749V46H197.029V23.6ZM198.533 35.12V32.56H203.109C204.559 32.56 205.85 32.8373 206.981 33.392C208.133 33.9253 209.039 34.6933 209.701 35.696C210.383 36.6987 210.725 37.8933 210.725 39.28C210.725 40.6453 210.383 41.84 209.701 42.864C209.039 43.8667 208.133 44.6453 206.981 45.2C205.85 45.7333 204.559 46 203.109 46H198.533V43.44H203.109C204.069 43.44 204.911 43.2907 205.637 42.992C206.383 42.672 206.959 42.2027 207.365 41.584C207.791 40.9653 208.005 40.1973 208.005 39.28C208.005 38.3627 207.791 37.5947 207.365 36.976C206.959 36.3573 206.383 35.8987 205.637 35.6C204.911 35.28 204.069 35.12 203.109 35.12H198.533ZM239.194 26.16H226.874V46H224.154V23.6H241.914V46H239.194V26.16ZM262.965 23.6V46H260.245V26.16H250.325V38.32C250.325 39.6853 250.111 40.9547 249.685 42.128C249.279 43.3013 248.661 44.24 247.829 44.944C247.018 45.648 246.005 46 244.789 46V43.664C245.279 43.664 245.706 43.5147 246.069 43.216C246.431 42.9173 246.741 42.5013 246.997 41.968C247.253 41.4133 247.445 40.7733 247.573 40.048C247.701 39.3227 247.765 38.5333 247.765 37.68V23.6H262.965ZM270.235 39.28L271.195 36.72H281.115L282.075 39.28H270.235ZM276.091 28.656L272.315 37.552L272.059 38.128L268.731 46H265.691L276.091 22.48L286.491 46H283.451L280.187 38.32L279.931 37.68L276.091 28.656ZM290.72 35.12V32.56H306.08V35.12H290.72ZM304.256 23.6H306.976V46H304.256V23.6ZM289.216 23.6H291.936V46H289.216V23.6Z" fill="#A25353"/>
</svg>
