<svg width="259" height="100" viewBox="0 0 259 100" fill="none" xmlns="http://www.w3.org/2000/svg">
<rect x="3.5" y="3.5" width="252" height="93" rx="44.5" fill="white" stroke="#A25353" stroke-width="7"/>
<path d="M37 50.728V47.24H52.968V50.728H37ZM50.536 38.6H54.312V61H50.536V38.6ZM35.496 38.6H39.272V61H35.496V38.6ZM61.9965 55.24L62.7005 52.04H73.1005L73.8365 55.24H61.9965ZM67.8525 44.936L64.3325 53.16L64.2685 53.992L61.1645 61H56.9085L67.8525 37.352L78.7965 61H74.5405L71.5005 54.184L71.4045 53.256L67.8525 44.936ZM88.2503 50.024V48.008C89.3596 48.008 90.2983 47.8587 91.0663 47.56C91.8343 47.24 92.4103 46.824 92.7943 46.312C93.1996 45.7787 93.4023 45.192 93.4023 44.552C93.4023 43.9547 93.2529 43.4213 92.9543 42.952C92.6769 42.4613 92.2396 42.088 91.6423 41.832C91.0663 41.576 90.3409 41.448 89.4663 41.448C88.6343 41.448 87.8876 41.5867 87.2263 41.864C86.5863 42.12 86.0849 42.4827 85.7223 42.952C85.3596 43.4213 85.1783 43.9547 85.1783 44.552H81.6263C81.6263 43.3147 81.9356 42.2267 82.5543 41.288C83.1943 40.3493 84.1009 39.6133 85.2743 39.08C86.4476 38.5253 87.8449 38.248 89.4663 38.248C91.1089 38.248 92.5063 38.5253 93.6583 39.08C94.8103 39.6347 95.6849 40.3707 96.2823 41.288C96.9009 42.184 97.2103 43.1867 97.2103 44.296C97.2103 45.1493 96.9863 45.928 96.5382 46.632C96.0903 47.336 95.4609 47.944 94.6503 48.456C93.8609 48.968 92.9116 49.3627 91.8023 49.64C90.7143 49.896 89.5303 50.024 88.2503 50.024ZM89.4343 61.384C87.9623 61.384 86.6823 61.2133 85.5943 60.872C84.5063 60.5093 83.5889 60.0187 82.8423 59.4C82.1169 58.76 81.5729 58.0347 81.2103 57.224C80.8476 56.392 80.6663 55.5173 80.6663 54.6H84.4423C84.5063 55.3253 84.7303 55.9547 85.1143 56.488C85.4983 57 86.0423 57.4053 86.7463 57.704C87.4716 57.9813 88.3463 58.12 89.3703 58.12C90.9063 58.12 92.0689 57.8107 92.8583 57.192C93.6476 56.5733 94.0423 55.7093 94.0423 54.6C94.0423 53.7893 93.8076 53.1067 93.3383 52.552C92.8689 51.9973 92.1969 51.5707 91.3223 51.272C90.4689 50.9733 89.4449 50.824 88.2503 50.824V48.68C90.0636 48.68 91.6956 48.904 93.1463 49.352C94.5969 49.7787 95.7383 50.4507 96.5703 51.368C97.4236 52.2853 97.8503 53.5013 97.8503 55.016C97.8503 56.2747 97.5196 57.384 96.8583 58.344C96.2183 59.304 95.2689 60.0507 94.0103 60.584C92.7729 61.1173 91.2476 61.384 89.4343 61.384ZM103.094 50.728V47.24H119.062V50.728H103.094ZM116.63 38.6H120.406V61H116.63V38.6ZM101.59 38.6H105.366V61H101.59V38.6ZM128.09 55.24L128.794 52.04H139.194L139.93 55.24H128.09ZM133.946 44.936L130.426 53.16L130.362 53.992L127.258 61H123.002L133.946 37.352L144.89 61H140.634L137.594 54.184L137.498 53.256L133.946 44.936ZM154.504 52.808L155.144 49.448H161.448V52.808H154.504ZM159.56 38.6H163.432V61H159.56V38.6ZM151.208 38.6V44.776C151.208 45.6933 151.357 46.504 151.656 47.208C151.976 47.8907 152.424 48.4347 153 48.84C153.597 49.2453 154.312 49.448 155.144 49.448L154.504 52.808C152.989 52.808 151.699 52.4667 150.632 51.784C149.587 51.08 148.797 50.1413 148.264 48.968C147.752 47.7947 147.496 46.4933 147.496 45.064V38.6H151.208ZM188.4 42.664L168.496 62.12L168.656 56.936L188.56 37.48L188.4 42.664ZM172.208 38.6V57.896L168.496 62.12V38.6H172.208ZM188.56 37.48V61H184.848V41.8L188.56 37.48ZM191.287 42.088V38.6H206.903V42.088H200.983V61H197.175V42.088H191.287ZM209.652 38.6H213.428V61H209.652V38.6ZM211.892 50.408V47.08H216.404C218.026 47.08 219.434 47.368 220.628 47.944C221.844 48.4987 222.783 49.2987 223.444 50.344C224.106 51.368 224.436 52.6053 224.436 54.056C224.436 55.464 224.106 56.6907 223.444 57.736C222.783 58.7813 221.844 59.592 220.628 60.168C219.434 60.7227 218.026 61 216.404 61H211.892V57.672H216.404C217.258 57.672 218.004 57.544 218.644 57.288C219.306 57.0107 219.818 56.6053 220.18 56.072C220.543 55.5173 220.724 54.8453 220.724 54.056C220.724 53.2453 220.543 52.5733 220.18 52.04C219.818 51.4853 219.306 51.08 218.644 50.824C218.004 50.5467 217.258 50.408 216.404 50.408H211.892Z" fill="#A25353"/>
</svg>
