<svg width="550" height="70" viewBox="0 0 550 70" fill="none" xmlns="http://www.w3.org/2000/svg">
<rect x="3.5" y="3.5" width="543" height="63" rx="31.5" stroke="#A25353" stroke-width="7"/>
<path d="M47.704 34.16V32.656H51.32C52.0667 32.656 52.7387 32.528 53.336 32.272C53.9333 32.016 54.4027 31.6427 54.744 31.152C55.0853 30.6613 55.256 30.064 55.256 29.36C55.256 28.2933 54.8827 27.472 54.136 26.896C53.3893 26.2987 52.4507 26 51.32 26H48.28V43.6H51.64C52.6 43.6 53.4427 43.4293 54.168 43.088C54.9147 42.7467 55.4907 42.256 55.896 41.616C56.3227 40.976 56.536 40.1973 56.536 39.28C56.536 38.5973 56.4187 37.9893 56.184 37.456C55.9493 36.9227 55.608 36.4747 55.16 36.112C54.7333 35.7493 54.2213 35.4827 53.624 35.312C53.0267 35.12 52.3653 35.024 51.64 35.024H47.704V33.52H51.64C52.728 33.52 53.7307 33.6373 54.648 33.872C55.5653 34.1067 56.3653 34.4693 57.048 34.96C57.752 35.4293 58.296 36.0373 58.68 36.784C59.064 37.5307 59.256 38.416 59.256 39.44C59.256 40.912 58.9147 42.1387 58.232 43.12C57.5707 44.08 56.664 44.8053 55.512 45.296C54.3813 45.7653 53.0907 46 51.64 46H45.56V23.6H51.32C52.664 23.6 53.8267 23.8027 54.808 24.208C55.8107 24.6133 56.5893 25.232 57.144 26.064C57.6987 26.8747 57.976 27.92 57.976 29.2C57.976 30.2453 57.6987 31.1413 57.144 31.888C56.5893 32.6347 55.8107 33.2 54.808 33.584C53.8267 33.968 52.664 34.16 51.32 34.16H47.704ZM63.5958 39.28V37.104H73.4198C73.3344 36.336 73.1211 35.664 72.7798 35.088C72.4598 34.4907 72.0011 34.032 71.4038 33.712C70.8278 33.3707 70.1131 33.2 69.2598 33.2C68.4064 33.2 67.6278 33.3813 66.9238 33.744C66.2198 34.1067 65.6544 34.6293 65.2278 35.312C64.8224 35.9733 64.6198 36.7627 64.6198 37.68L64.5558 38.64C64.5558 39.7707 64.7478 40.7307 65.1318 41.52C65.5158 42.3093 66.0598 42.9067 66.7638 43.312C67.4678 43.7173 68.2998 43.92 69.2598 43.92C69.9851 43.92 70.6251 43.8133 71.1798 43.6C71.7558 43.3653 72.2678 43.056 72.7158 42.672C73.1638 42.2667 73.5478 41.7973 73.8678 41.264L75.9478 42.576C75.4571 43.3227 74.9131 43.984 74.3158 44.56C73.7184 45.1147 72.9931 45.552 72.1398 45.872C71.2864 46.1707 70.2198 46.32 68.9398 46.32C67.6171 46.32 66.4224 45.9893 65.3558 45.328C64.3104 44.6667 63.4784 43.76 62.8598 42.608C62.2624 41.4347 61.9638 40.112 61.9638 38.64C61.9638 38.3627 61.9744 38.096 61.9958 37.84C62.0171 37.584 62.0491 37.328 62.0918 37.072C62.3051 35.856 62.7318 34.7893 63.3718 33.872C64.0118 32.9547 64.8331 32.24 65.8358 31.728C66.8598 31.216 68.0011 30.96 69.2598 30.96C70.6464 30.96 71.8624 31.2693 72.9078 31.888C73.9531 32.5067 74.7638 33.3813 75.3398 34.512C75.9158 35.6213 76.2038 36.9547 76.2038 38.512C76.2038 38.64 76.2038 38.768 76.2038 38.896C76.2038 39.024 76.1931 39.152 76.1718 39.28H63.5958ZM82.1125 53.04H79.5525V31.28H82.1125V53.04ZM94.4325 38.64C94.4325 40.2187 94.1018 41.584 93.4405 42.736C92.7792 43.888 91.8938 44.7733 90.7845 45.392C89.6965 46.0107 88.4805 46.32 87.1365 46.32C85.9205 46.32 84.8432 46.0107 83.9045 45.392C82.9872 44.7733 82.2618 43.888 81.7285 42.736C81.2165 41.584 80.9605 40.2187 80.9605 38.64C80.9605 37.04 81.2165 35.6747 81.7285 34.544C82.2618 33.392 82.9872 32.5067 83.9045 31.888C84.8432 31.2693 85.9205 30.96 87.1365 30.96C88.4805 30.96 89.6965 31.2693 90.7845 31.888C91.8938 32.5067 92.7792 33.392 93.4405 34.544C94.1018 35.6747 94.4325 37.04 94.4325 38.64ZM91.8405 38.64C91.8405 37.5093 91.6058 36.5493 91.1365 35.76C90.6885 34.9707 90.0805 34.3733 89.3125 33.968C88.5658 33.5627 87.7338 33.36 86.8165 33.36C86.0698 33.36 85.3338 33.5627 84.6085 33.968C83.8832 34.3733 83.2858 34.9707 82.8165 35.76C82.3472 36.5493 82.1125 37.5093 82.1125 38.64C82.1125 39.7707 82.3472 40.7307 82.8165 41.52C83.2858 42.3093 83.8832 42.9067 84.6085 43.312C85.3338 43.7173 86.0698 43.92 86.8165 43.92C87.7338 43.92 88.5658 43.7173 89.3125 43.312C90.0805 42.9067 90.6885 42.3093 91.1365 41.52C91.6058 40.7307 91.8405 39.7707 91.8405 38.64ZM99.4665 39.44V37.04H110.347V39.44H99.4665ZM108.683 31.28H111.243V46H108.683V31.28ZM97.9625 31.28H100.523V46H97.9625V31.28ZM127.736 31.28L118.136 53.04H115.256L119.288 43.92L113.656 31.28H116.696L121.368 42.8L120.312 42.672L124.856 31.28H127.736ZM127.91 31.28H136.55V33.68H127.91V31.28ZM130.95 31.92H133.51V46H130.95V31.92ZM139.119 31.28H141.679V46H139.119V31.28ZM140.623 39.088V36.848H145.199C146.713 36.848 147.983 37.2213 149.007 37.968C150.052 38.6933 150.575 39.8453 150.575 41.424C150.575 42.4693 150.34 43.3333 149.871 44.016C149.401 44.6987 148.761 45.2 147.951 45.52C147.14 45.84 146.223 46 145.199 46H140.623V43.76H145.199C145.817 43.76 146.329 43.6747 146.735 43.504C147.161 43.312 147.481 43.0453 147.695 42.704C147.908 42.3413 148.015 41.9147 148.015 41.424C148.015 40.6773 147.78 40.1013 147.311 39.696C146.841 39.2907 146.137 39.088 145.199 39.088H140.623ZM155.74 38.64C155.74 39.664 155.953 40.5707 156.38 41.36C156.828 42.1493 157.425 42.7787 158.172 43.248C158.94 43.696 159.804 43.92 160.764 43.92C161.553 43.92 162.289 43.8027 162.972 43.568C163.676 43.312 164.284 42.9813 164.796 42.576C165.308 42.1493 165.67 41.7013 165.884 41.232V44.432C165.372 45.0293 164.636 45.4987 163.676 45.84C162.737 46.16 161.766 46.32 160.764 46.32C159.334 46.32 158.044 45.9893 156.891 45.328C155.74 44.6667 154.822 43.76 154.14 42.608C153.478 41.4347 153.148 40.112 153.148 38.64C153.148 37.1467 153.478 35.824 154.14 34.672C154.822 33.52 155.74 32.6133 156.891 31.952C158.044 31.2907 159.334 30.96 160.764 30.96C161.766 30.96 162.737 31.1307 163.676 31.472C164.636 31.792 165.372 32.2507 165.884 32.848V36.048C165.67 35.5573 165.308 35.1093 164.796 34.704C164.284 34.2987 163.676 33.9787 162.972 33.744C162.289 33.488 161.553 33.36 160.764 33.36C159.804 33.36 158.94 33.584 158.172 34.032C157.425 34.48 156.828 35.1093 156.38 35.92C155.953 36.7093 155.74 37.616 155.74 38.64ZM171.981 46H169.165L174.605 38.32H177.421L171.981 46ZM181.325 46H178.765V31.28H181.325V46ZM179.821 37.872V40.112H175.245C174.242 40.112 173.325 39.9627 172.493 39.664C171.682 39.3653 171.042 38.896 170.573 38.256C170.103 37.5947 169.869 36.7413 169.869 35.696C169.869 34.6293 170.103 33.776 170.573 33.136C171.042 32.496 171.682 32.0267 172.493 31.728C173.325 31.4293 174.242 31.28 175.245 31.28H179.821V33.52H175.245C174.626 33.52 174.103 33.6053 173.677 33.776C173.271 33.9253 172.962 34.16 172.749 34.48C172.535 34.8 172.429 35.2053 172.429 35.696C172.429 36.1867 172.535 36.592 172.749 36.912C172.962 37.232 173.271 37.4773 173.677 37.648C174.103 37.7973 174.626 37.872 175.245 37.872H179.821ZM196.435 39.44V37.04H207.315V39.44H196.435ZM205.651 31.28H208.211V46H205.651V31.28ZM194.931 31.28H197.491V46H194.931V31.28ZM214.177 41.68C214.177 42.192 214.316 42.6293 214.593 42.992C214.87 43.3333 215.244 43.6 215.713 43.792C216.182 43.9627 216.705 44.048 217.281 44.048C218.134 44.048 218.892 43.92 219.553 43.664C220.214 43.408 220.726 43.0027 221.089 42.448C221.473 41.8933 221.665 41.1573 221.665 40.24L222.177 41.84C222.177 42.7787 221.921 43.5893 221.409 44.272C220.918 44.9333 220.257 45.4453 219.425 45.808C218.593 46.1493 217.665 46.32 216.641 46.32C215.724 46.32 214.881 46.1493 214.113 45.808C213.345 45.4667 212.726 44.9653 212.257 44.304C211.809 43.6213 211.585 42.7787 211.585 41.776C211.585 40.7307 211.841 39.8453 212.353 39.12C212.865 38.3947 213.59 37.84 214.529 37.456C215.468 37.0507 216.577 36.848 217.857 36.848C218.796 36.848 219.596 36.976 220.257 37.232C220.94 37.4667 221.484 37.744 221.889 38.064C222.294 38.3627 222.572 38.608 222.721 38.8V40.304C221.996 39.792 221.26 39.4187 220.513 39.184C219.766 38.928 218.924 38.8 217.985 38.8C217.132 38.8 216.417 38.9173 215.841 39.152C215.286 39.3867 214.87 39.7173 214.593 40.144C214.316 40.5707 214.177 41.0827 214.177 41.68ZM214.177 34.736L212.929 32.784C213.484 32.3787 214.23 31.9733 215.169 31.568C216.108 31.1627 217.238 30.96 218.561 30.96C219.692 30.96 220.673 31.1413 221.505 31.504C222.358 31.8453 223.02 32.3467 223.489 33.008C223.98 33.6693 224.225 34.48 224.225 35.44V46H221.665V35.44C221.665 34.6933 221.345 34.1387 220.705 33.776C220.086 33.392 219.372 33.2 218.561 33.2C217.857 33.2 217.217 33.296 216.641 33.488C216.065 33.6587 215.564 33.872 215.137 34.128C214.732 34.3627 214.412 34.5653 214.177 34.736ZM237.99 31.28H240.55V46H237.99V31.28ZM245.99 31.28H249.19L242.79 37.36L249.83 46H246.63L239.59 37.36L245.99 31.28ZM253.396 41.68C253.396 42.192 253.534 42.6293 253.812 42.992C254.089 43.3333 254.462 43.6 254.932 43.792C255.401 43.9627 255.924 44.048 256.5 44.048C257.353 44.048 258.11 43.92 258.772 43.664C259.433 43.408 259.945 43.0027 260.308 42.448C260.692 41.8933 260.884 41.1573 260.884 40.24L261.396 41.84C261.396 42.7787 261.14 43.5893 260.628 44.272C260.137 44.9333 259.476 45.4453 258.644 45.808C257.812 46.1493 256.884 46.32 255.86 46.32C254.942 46.32 254.1 46.1493 253.332 45.808C252.564 45.4667 251.945 44.9653 251.476 44.304C251.028 43.6213 250.804 42.7787 250.804 41.776C250.804 40.7307 251.06 39.8453 251.572 39.12C252.084 38.3947 252.809 37.84 253.748 37.456C254.686 37.0507 255.796 36.848 257.076 36.848C258.014 36.848 258.814 36.976 259.476 37.232C260.158 37.4667 260.702 37.744 261.108 38.064C261.513 38.3627 261.79 38.608 261.94 38.8V40.304C261.214 39.792 260.478 39.4187 259.732 39.184C258.985 38.928 258.142 38.8 257.204 38.8C256.35 38.8 255.636 38.9173 255.06 39.152C254.505 39.3867 254.089 39.7173 253.812 40.144C253.534 40.5707 253.396 41.0827 253.396 41.68ZM253.396 34.736L252.148 32.784C252.702 32.3787 253.449 31.9733 254.388 31.568C255.326 31.1627 256.457 30.96 257.78 30.96C258.91 30.96 259.892 31.1413 260.724 31.504C261.577 31.8453 262.238 32.3467 262.708 33.008C263.198 33.6693 263.444 34.48 263.444 35.44V46H260.884V35.44C260.884 34.6933 260.564 34.1387 259.924 33.776C259.305 33.392 258.59 33.2 257.78 33.2C257.076 33.2 256.436 33.296 255.86 33.488C255.284 33.6587 254.782 33.872 254.356 34.128C253.95 34.3627 253.63 34.5653 253.396 34.736ZM270.175 53.04H267.615V31.28H270.175V53.04ZM282.495 38.64C282.495 40.2187 282.164 41.584 281.503 42.736C280.842 43.888 279.956 44.7733 278.847 45.392C277.759 46.0107 276.543 46.32 275.199 46.32C273.983 46.32 272.906 46.0107 271.967 45.392C271.05 44.7733 270.324 43.888 269.791 42.736C269.279 41.584 269.023 40.2187 269.023 38.64C269.023 37.04 269.279 35.6747 269.791 34.544C270.324 33.392 271.05 32.5067 271.967 31.888C272.906 31.2693 273.983 30.96 275.199 30.96C276.543 30.96 277.759 31.2693 278.847 31.888C279.956 32.5067 280.842 33.392 281.503 34.544C282.164 35.6747 282.495 37.04 282.495 38.64ZM279.903 38.64C279.903 37.5093 279.668 36.5493 279.199 35.76C278.751 34.9707 278.143 34.3733 277.375 33.968C276.628 33.5627 275.796 33.36 274.879 33.36C274.132 33.36 273.396 33.5627 272.671 33.968C271.946 34.3733 271.348 34.9707 270.879 35.76C270.41 36.5493 270.175 37.5093 270.175 38.64C270.175 39.7707 270.41 40.7307 270.879 41.52C271.348 42.3093 271.946 42.9067 272.671 43.312C273.396 43.7173 274.132 43.92 274.879 43.92C275.796 43.92 276.628 43.7173 277.375 43.312C278.143 42.9067 278.751 42.3093 279.199 41.52C279.668 40.7307 279.903 39.7707 279.903 38.64ZM283.785 31.28H292.425V33.68H283.785V31.28ZM286.825 31.92H289.385V46H286.825V31.92ZM293.245 38.64C293.245 37.1467 293.576 35.824 294.237 34.672C294.92 33.52 295.837 32.6133 296.989 31.952C298.141 31.2907 299.432 30.96 300.861 30.96C302.312 30.96 303.602 31.2907 304.733 31.952C305.885 32.6133 306.792 33.52 307.453 34.672C308.136 35.824 308.477 37.1467 308.477 38.64C308.477 40.112 308.136 41.4347 307.453 42.608C306.792 43.76 305.885 44.6667 304.733 45.328C303.602 45.9893 302.312 46.32 300.861 46.32C299.432 46.32 298.141 45.9893 296.989 45.328C295.837 44.6667 294.92 43.76 294.237 42.608C293.576 41.4347 293.245 40.112 293.245 38.64ZM295.837 38.64C295.837 39.664 296.05 40.5707 296.477 41.36C296.925 42.1493 297.522 42.7787 298.269 43.248C299.037 43.696 299.901 43.92 300.861 43.92C301.821 43.92 302.674 43.696 303.421 43.248C304.189 42.7787 304.786 42.1493 305.213 41.36C305.661 40.5707 305.885 39.664 305.885 38.64C305.885 37.616 305.661 36.7093 305.213 35.92C304.786 35.1093 304.189 34.48 303.421 34.032C302.674 33.584 301.821 33.36 300.861 33.36C299.901 33.36 299.037 33.584 298.269 34.032C297.522 34.48 296.925 35.1093 296.477 35.92C296.05 36.7093 295.837 37.616 295.837 38.64ZM316.954 41.52V39.12H321.978V41.52H316.954ZM320.154 31.28H322.714V46H320.154V31.28ZM313.754 31.28V35.504C313.754 36.3573 313.85 37.0507 314.042 37.584C314.234 38.1173 314.564 38.512 315.034 38.768C315.503 39.0027 316.143 39.12 316.954 39.12V41.52C315.482 41.52 314.319 41.3173 313.466 40.912C312.634 40.5067 312.047 39.8667 311.706 38.992C311.364 38.096 311.194 36.9333 311.194 35.504V31.28H313.754ZM327.365 31.28H329.925V46H327.365V31.28ZM335.365 31.28H338.565L332.165 37.36L339.205 46H336.005L328.965 37.36L335.365 31.28ZM353.768 31.28L344.168 53.04H341.288L345.32 43.92L339.688 31.28H342.728L347.4 42.8L346.344 42.672L350.888 31.28H353.768ZM368.175 53.04H365.615V31.28H368.175V53.04ZM380.495 38.64C380.495 40.2187 380.164 41.584 379.503 42.736C378.842 43.888 377.956 44.7733 376.847 45.392C375.759 46.0107 374.543 46.32 373.199 46.32C371.983 46.32 370.906 46.0107 369.967 45.392C369.05 44.7733 368.324 43.888 367.791 42.736C367.279 41.584 367.023 40.2187 367.023 38.64C367.023 37.04 367.279 35.6747 367.791 34.544C368.324 33.392 369.05 32.5067 369.967 31.888C370.906 31.2693 371.983 30.96 373.199 30.96C374.543 30.96 375.759 31.2693 376.847 31.888C377.956 32.5067 378.842 33.392 379.503 34.544C380.164 35.6747 380.495 37.04 380.495 38.64ZM377.903 38.64C377.903 37.5093 377.668 36.5493 377.199 35.76C376.751 34.9707 376.143 34.3733 375.375 33.968C374.628 33.5627 373.796 33.36 372.879 33.36C372.132 33.36 371.396 33.5627 370.671 33.968C369.946 34.3733 369.348 34.9707 368.879 35.76C368.41 36.5493 368.175 37.5093 368.175 38.64C368.175 39.7707 368.41 40.7307 368.879 41.52C369.348 42.3093 369.946 42.9067 370.671 43.312C371.396 43.7173 372.132 43.92 372.879 43.92C373.796 43.92 374.628 43.7173 375.375 43.312C376.143 42.9067 376.751 42.3093 377.199 41.52C377.668 40.7307 377.903 39.7707 377.903 38.64ZM384.377 39.28V37.104H394.201C394.116 36.336 393.902 35.664 393.561 35.088C393.241 34.4907 392.782 34.032 392.185 33.712C391.609 33.3707 390.894 33.2 390.041 33.2C389.188 33.2 388.409 33.3813 387.705 33.744C387.001 34.1067 386.436 34.6293 386.009 35.312C385.604 35.9733 385.401 36.7627 385.401 37.68L385.337 38.64C385.337 39.7707 385.529 40.7307 385.913 41.52C386.297 42.3093 386.841 42.9067 387.545 43.312C388.249 43.7173 389.081 43.92 390.041 43.92C390.766 43.92 391.406 43.8133 391.961 43.6C392.537 43.3653 393.049 43.056 393.497 42.672C393.945 42.2667 394.329 41.7973 394.649 41.264L396.729 42.576C396.238 43.3227 395.694 43.984 395.097 44.56C394.5 45.1147 393.774 45.552 392.921 45.872C392.068 46.1707 391.001 46.32 389.721 46.32C388.398 46.32 387.204 45.9893 386.137 45.328C385.092 44.6667 384.26 43.76 383.641 42.608C383.044 41.4347 382.745 40.112 382.745 38.64C382.745 38.3627 382.756 38.096 382.777 37.84C382.798 37.584 382.83 37.328 382.873 37.072C383.086 35.856 383.513 34.7893 384.153 33.872C384.793 32.9547 385.614 32.24 386.617 31.728C387.641 31.216 388.782 30.96 390.041 30.96C391.428 30.96 392.644 31.2693 393.689 31.888C394.734 32.5067 395.545 33.3813 396.121 34.512C396.697 35.6213 396.985 36.9547 396.985 38.512C396.985 38.64 396.985 38.768 396.985 38.896C396.985 39.024 396.974 39.152 396.953 39.28H384.377ZM401.646 38.64C401.646 39.664 401.859 40.5707 402.286 41.36C402.734 42.1493 403.331 42.7787 404.078 43.248C404.846 43.696 405.71 43.92 406.67 43.92C407.459 43.92 408.195 43.8027 408.878 43.568C409.582 43.312 410.19 42.9813 410.702 42.576C411.214 42.1493 411.576 41.7013 411.79 41.232V44.432C411.278 45.0293 410.542 45.4987 409.582 45.84C408.643 46.16 407.672 46.32 406.67 46.32C405.24 46.32 403.95 45.9893 402.798 45.328C401.646 44.6667 400.728 43.76 400.046 42.608C399.384 41.4347 399.054 40.112 399.054 38.64C399.054 37.1467 399.384 35.824 400.046 34.672C400.728 33.52 401.646 32.6133 402.798 31.952C403.95 31.2907 405.24 30.96 406.67 30.96C407.672 30.96 408.643 31.1307 409.582 31.472C410.542 31.792 411.278 32.2507 411.79 32.848V36.048C411.576 35.5573 411.214 35.1093 410.702 34.704C410.19 34.2987 409.582 33.9787 408.878 33.744C408.195 33.488 407.459 33.36 406.67 33.36C405.71 33.36 404.846 33.584 404.078 34.032C403.331 34.48 402.734 35.1093 402.286 35.92C401.859 36.7093 401.646 37.616 401.646 38.64ZM413.535 31.28H422.175V33.68H413.535V31.28ZM416.575 31.92H419.135V46H416.575V31.92ZM422.995 38.64C422.995 37.1467 423.326 35.824 423.987 34.672C424.67 33.52 425.587 32.6133 426.739 31.952C427.891 31.2907 429.182 30.96 430.611 30.96C432.062 30.96 433.352 31.2907 434.483 31.952C435.635 32.6133 436.542 33.52 437.203 34.672C437.886 35.824 438.227 37.1467 438.227 38.64C438.227 40.112 437.886 41.4347 437.203 42.608C436.542 43.76 435.635 44.6667 434.483 45.328C433.352 45.9893 432.062 46.32 430.611 46.32C429.182 46.32 427.891 45.9893 426.739 45.328C425.587 44.6667 424.67 43.76 423.987 42.608C423.326 41.4347 422.995 40.112 422.995 38.64ZM425.587 38.64C425.587 39.664 425.8 40.5707 426.227 41.36C426.675 42.1493 427.272 42.7787 428.019 43.248C428.787 43.696 429.651 43.92 430.611 43.92C431.571 43.92 432.424 43.696 433.171 43.248C433.939 42.7787 434.536 42.1493 434.963 41.36C435.411 40.5707 435.635 39.664 435.635 38.64C435.635 37.616 435.411 36.7093 434.963 35.92C434.536 35.1093 433.939 34.48 433.171 34.032C432.424 33.584 431.571 33.36 430.611 33.36C429.651 33.36 428.787 33.584 428.019 34.032C427.272 34.48 426.675 35.1093 426.227 35.92C425.8 36.7093 425.587 37.616 425.587 38.64ZM444.144 53.04H441.584V31.28H444.144V53.04ZM456.464 38.64C456.464 40.2187 456.133 41.584 455.472 42.736C454.81 43.888 453.925 44.7733 452.816 45.392C451.728 46.0107 450.512 46.32 449.168 46.32C447.952 46.32 446.874 46.0107 445.936 45.392C445.018 44.7733 444.293 43.888 443.76 42.736C443.248 41.584 442.992 40.2187 442.992 38.64C442.992 37.04 443.248 35.6747 443.76 34.544C444.293 33.392 445.018 32.5067 445.936 31.888C446.874 31.2693 447.952 30.96 449.168 30.96C450.512 30.96 451.728 31.2693 452.816 31.888C453.925 32.5067 454.81 33.392 455.472 34.544C456.133 35.6747 456.464 37.04 456.464 38.64ZM453.872 38.64C453.872 37.5093 453.637 36.5493 453.168 35.76C452.72 34.9707 452.112 34.3733 451.344 33.968C450.597 33.5627 449.765 33.36 448.848 33.36C448.101 33.36 447.365 33.5627 446.64 33.968C445.914 34.3733 445.317 34.9707 444.848 35.76C444.378 36.5493 444.144 37.5093 444.144 38.64C444.144 39.7707 444.378 40.7307 444.848 41.52C445.317 42.3093 445.914 42.9067 446.64 43.312C447.365 43.7173 448.101 43.92 448.848 43.92C449.765 43.92 450.597 43.7173 451.344 43.312C452.112 42.9067 452.72 42.3093 453.168 41.52C453.637 40.7307 453.872 39.7707 453.872 38.64ZM461.146 41.68C461.146 42.192 461.284 42.6293 461.562 42.992C461.839 43.3333 462.212 43.6 462.682 43.792C463.151 43.9627 463.674 44.048 464.25 44.048C465.103 44.048 465.86 43.92 466.522 43.664C467.183 43.408 467.695 43.0027 468.058 42.448C468.442 41.8933 468.634 41.1573 468.634 40.24L469.146 41.84C469.146 42.7787 468.89 43.5893 468.378 44.272C467.887 44.9333 467.226 45.4453 466.394 45.808C465.562 46.1493 464.634 46.32 463.61 46.32C462.692 46.32 461.85 46.1493 461.082 45.808C460.314 45.4667 459.695 44.9653 459.226 44.304C458.778 43.6213 458.554 42.7787 458.554 41.776C458.554 40.7307 458.81 39.8453 459.322 39.12C459.834 38.3947 460.559 37.84 461.498 37.456C462.436 37.0507 463.546 36.848 464.826 36.848C465.764 36.848 466.564 36.976 467.226 37.232C467.908 37.4667 468.452 37.744 468.858 38.064C469.263 38.3627 469.54 38.608 469.69 38.8V40.304C468.964 39.792 468.228 39.4187 467.482 39.184C466.735 38.928 465.892 38.8 464.954 38.8C464.1 38.8 463.386 38.9173 462.81 39.152C462.255 39.3867 461.839 39.7173 461.562 40.144C461.284 40.5707 461.146 41.0827 461.146 41.68ZM461.146 34.736L459.898 32.784C460.452 32.3787 461.199 31.9733 462.138 31.568C463.076 31.1627 464.207 30.96 465.53 30.96C466.66 30.96 467.642 31.1413 468.474 31.504C469.327 31.8453 469.988 32.3467 470.458 33.008C470.948 33.6693 471.194 34.48 471.194 35.44V46H468.634V35.44C468.634 34.6933 468.314 34.1387 467.674 33.776C467.055 33.392 466.34 33.2 465.53 33.2C464.826 33.2 464.186 33.296 463.61 33.488C463.034 33.6587 462.532 33.872 462.106 34.128C461.7 34.3627 461.38 34.5653 461.146 34.736ZM477.029 39.44V37.04H487.909V39.44H477.029ZM486.245 31.28H488.805V46H486.245V31.28ZM475.525 31.28H478.085V46H475.525V31.28ZM494.771 41.68C494.771 42.192 494.909 42.6293 495.187 42.992C495.464 43.3333 495.837 43.6 496.307 43.792C496.776 43.9627 497.299 44.048 497.875 44.048C498.728 44.048 499.485 43.92 500.147 43.664C500.808 43.408 501.32 43.0027 501.683 42.448C502.067 41.8933 502.259 41.1573 502.259 40.24L502.771 41.84C502.771 42.7787 502.515 43.5893 502.003 44.272C501.512 44.9333 500.851 45.4453 500.019 45.808C499.187 46.1493 498.259 46.32 497.235 46.32C496.317 46.32 495.475 46.1493 494.707 45.808C493.939 45.4667 493.32 44.9653 492.851 44.304C492.403 43.6213 492.179 42.7787 492.179 41.776C492.179 40.7307 492.435 39.8453 492.947 39.12C493.459 38.3947 494.184 37.84 495.123 37.456C496.061 37.0507 497.171 36.848 498.451 36.848C499.389 36.848 500.189 36.976 500.851 37.232C501.533 37.4667 502.077 37.744 502.483 38.064C502.888 38.3627 503.165 38.608 503.315 38.8V40.304C502.589 39.792 501.853 39.4187 501.107 39.184C500.36 38.928 499.517 38.8 498.579 38.8C497.725 38.8 497.011 38.9173 496.435 39.152C495.88 39.3867 495.464 39.7173 495.187 40.144C494.909 40.5707 494.771 41.0827 494.771 41.68ZM494.771 34.736L493.523 32.784C494.077 32.3787 494.824 31.9733 495.763 31.568C496.701 31.1627 497.832 30.96 499.155 30.96C500.285 30.96 501.267 31.1413 502.099 31.504C502.952 31.8453 503.613 32.3467 504.083 33.008C504.573 33.6693 504.819 34.48 504.819 35.44V46H502.259V35.44C502.259 34.6933 501.939 34.1387 501.299 33.776C500.68 33.392 499.965 33.2 499.155 33.2C498.451 33.2 497.811 33.296 497.235 33.488C496.659 33.6587 496.157 33.872 495.731 34.128C495.325 34.3627 495.005 34.5653 494.771 34.736Z" fill="#A25353"/>
</svg>
