<svg width="330" height="100" viewBox="0 0 330 100" fill="none" xmlns="http://www.w3.org/2000/svg">
<rect x="3.5" y="3.5" width="323" height="93" rx="44.5" fill="white" stroke="#A25353" stroke-width="7"/>
<path d="M111 50.728V47.24H126.968V50.728H111ZM124.536 38.6H128.312V61H124.536V38.6ZM109.496 38.6H113.272V61H109.496V38.6ZM135.997 55.24L136.701 52.04H147.101L147.837 55.24H135.997ZM141.853 44.936L138.333 53.16L138.269 53.992L135.165 61H130.909L141.853 37.352L152.797 61H148.541L145.501 54.184L145.405 53.256L141.853 44.936ZM162.25 50.024V48.008C163.36 48.008 164.298 47.8587 165.066 47.56C165.834 47.24 166.41 46.824 166.794 46.312C167.2 45.7787 167.402 45.192 167.402 44.552C167.402 43.9547 167.253 43.4213 166.954 42.952C166.677 42.4613 166.24 42.088 165.642 41.832C165.066 41.576 164.341 41.448 163.466 41.448C162.634 41.448 161.888 41.5867 161.226 41.864C160.586 42.12 160.085 42.4827 159.722 42.952C159.36 43.4213 159.178 43.9547 159.178 44.552H155.626C155.626 43.3147 155.936 42.2267 156.554 41.288C157.194 40.3493 158.101 39.6133 159.274 39.08C160.448 38.5253 161.845 38.248 163.466 38.248C165.109 38.248 166.506 38.5253 167.658 39.08C168.81 39.6347 169.685 40.3707 170.282 41.288C170.901 42.184 171.21 43.1867 171.21 44.296C171.21 45.1493 170.986 45.928 170.538 46.632C170.09 47.336 169.461 47.944 168.65 48.456C167.861 48.968 166.912 49.3627 165.802 49.64C164.714 49.896 163.53 50.024 162.25 50.024ZM163.434 61.384C161.962 61.384 160.682 61.2133 159.594 60.872C158.506 60.5093 157.589 60.0187 156.842 59.4C156.117 58.76 155.573 58.0347 155.21 57.224C154.848 56.392 154.666 55.5173 154.666 54.6H158.442C158.506 55.3253 158.73 55.9547 159.114 56.488C159.498 57 160.042 57.4053 160.746 57.704C161.472 57.9813 162.346 58.12 163.37 58.12C164.906 58.12 166.069 57.8107 166.858 57.192C167.648 56.5733 168.042 55.7093 168.042 54.6C168.042 53.7893 167.808 53.1067 167.338 52.552C166.869 51.9973 166.197 51.5707 165.322 51.272C164.469 50.9733 163.445 50.824 162.25 50.824V48.68C164.064 48.68 165.696 48.904 167.146 49.352C168.597 49.7787 169.738 50.4507 170.57 51.368C171.424 52.2853 171.85 53.5013 171.85 55.016C171.85 56.2747 171.52 57.384 170.858 58.344C170.218 59.304 169.269 60.0507 168.01 60.584C166.773 61.1173 165.248 61.384 163.434 61.384ZM177.809 55.24L178.513 52.04H188.913L189.649 55.24H177.809ZM183.665 44.936L180.145 53.16L180.081 53.992L176.977 61H172.721L183.665 37.352L194.609 61H190.353L187.313 54.184L187.217 53.256L183.665 44.936ZM208.872 45.096L203.272 60.04H199.048L208.904 37.48L218.728 60.04H214.503L208.872 45.096ZM217.224 61H200.552V64.52H196.968V57.608H220.808V64.52H217.224V61Z" fill="#A25353"/>
</svg>
