<svg width="330" height="100" viewBox="0 0 330 100" fill="none" xmlns="http://www.w3.org/2000/svg">
<rect x="3.5" y="3.5" width="323" height="93" rx="44.5" fill="white" stroke="#A25353" stroke-width="7"/>
<path d="M63.064 50.632V47.368H69.24C70.6907 47.368 71.9813 47.6453 73.112 48.2C74.264 48.7547 75.1707 49.544 75.832 50.568C76.5147 51.5707 76.856 52.7653 76.856 54.152C76.856 55.5173 76.5147 56.7227 75.832 57.768C75.1707 58.792 74.264 59.592 73.112 60.168C71.9813 60.7227 70.6907 61 69.24 61H63.064V57.672H68.76C69.6133 57.672 70.36 57.544 71 57.288C71.64 57.032 72.1307 56.648 72.472 56.136C72.8347 55.6027 73.016 54.9413 73.016 54.152C73.016 53.3627 72.8347 52.712 72.472 52.2C72.1307 51.6667 71.64 51.272 71 51.016C70.36 50.76 69.6133 50.632 68.76 50.632H63.064ZM61.56 38.6H75.16V41.928H65.4V61H61.56V38.6ZM80.621 38.6H84.397V61H80.621V38.6ZM82.861 41.928V38.6H87.373C88.9943 38.6 90.4023 38.888 91.597 39.464C92.813 40.0187 93.7517 40.8187 94.413 41.864C95.0743 42.888 95.405 44.1147 95.405 45.544C95.405 46.9733 95.0743 48.2107 94.413 49.256C93.7517 50.3013 92.813 51.112 91.597 51.688C90.4023 52.2427 88.9943 52.52 87.373 52.52H82.861V49.192H87.373C88.6743 49.192 89.7197 48.8827 90.509 48.264C91.2983 47.6453 91.693 46.7387 91.693 45.544C91.693 44.3493 91.2983 43.4533 90.509 42.856C89.7197 42.2373 88.6743 41.928 87.373 41.928H82.861ZM101.841 49.8C101.841 51.336 102.161 52.712 102.801 53.928C103.462 55.1227 104.369 56.0613 105.521 56.744C106.673 57.4267 107.985 57.768 109.457 57.768C110.95 57.768 112.262 57.4267 113.393 56.744C114.545 56.0613 115.441 55.1227 116.081 53.928C116.742 52.712 117.073 51.336 117.073 49.8C117.073 48.264 116.753 46.8987 116.113 45.704C115.473 44.488 114.577 43.5387 113.425 42.856C112.294 42.1733 110.972 41.832 109.457 41.832C107.985 41.832 106.673 42.1733 105.521 42.856C104.369 43.5387 103.462 44.488 102.801 45.704C102.161 46.8987 101.841 48.264 101.841 49.8ZM97.841 49.8C97.841 48.1147 98.129 46.568 98.705 45.16C99.281 43.752 100.092 42.536 101.137 41.512C102.204 40.4667 103.441 39.656 104.849 39.08C106.278 38.504 107.814 38.216 109.457 38.216C111.142 38.216 112.689 38.504 114.097 39.08C115.505 39.656 116.732 40.4667 117.777 41.512C118.844 42.536 119.665 43.752 120.241 45.16C120.817 46.568 121.105 48.1147 121.105 49.8C121.105 51.464 120.817 53.0107 120.241 54.44C119.665 55.8693 118.854 57.1067 117.809 58.152C116.764 59.1973 115.526 60.0187 114.097 60.616C112.689 61.192 111.142 61.48 109.457 61.48C107.793 61.48 106.246 61.192 104.817 60.616C103.388 60.0187 102.15 59.1973 101.105 58.152C100.081 57.1067 99.281 55.8693 98.705 54.44C98.129 53.0107 97.841 51.464 97.841 49.8ZM126.281 50.728V47.24H142.249V50.728H126.281ZM139.817 38.6H143.593V61H139.817V38.6ZM124.777 38.6H128.553V61H124.777V38.6ZM168.494 42.664L148.59 62.12L148.75 56.936L168.654 37.48L168.494 42.664ZM152.302 38.6V57.896L148.59 62.12V38.6H152.302ZM168.654 37.48V61H164.942V41.8L168.654 37.48ZM173.621 38.6H177.397V61H173.621V38.6ZM175.861 41.928V38.6H180.373C181.994 38.6 183.402 38.888 184.597 39.464C185.813 40.0187 186.752 40.8187 187.413 41.864C188.074 42.888 188.405 44.1147 188.405 45.544C188.405 46.9733 188.074 48.2107 187.413 49.256C186.752 50.3013 185.813 51.112 184.597 51.688C183.402 52.2427 181.994 52.52 180.373 52.52H175.861V49.192H180.373C181.674 49.192 182.72 48.8827 183.509 48.264C184.298 47.6453 184.693 46.7387 184.693 45.544C184.693 44.3493 184.298 43.4533 183.509 42.856C182.72 42.2373 181.674 41.928 180.373 41.928H175.861ZM194.841 49.8C194.841 51.336 195.161 52.712 195.801 53.928C196.462 55.1227 197.369 56.0613 198.521 56.744C199.673 57.4267 200.985 57.768 202.457 57.768C203.95 57.768 205.262 57.4267 206.393 56.744C207.545 56.0613 208.441 55.1227 209.081 53.928C209.742 52.712 210.073 51.336 210.073 49.8C210.073 48.264 209.753 46.8987 209.113 45.704C208.473 44.488 207.577 43.5387 206.425 42.856C205.294 42.1733 203.972 41.832 202.457 41.832C200.985 41.832 199.673 42.1733 198.521 42.856C197.369 43.5387 196.462 44.488 195.801 45.704C195.161 46.8987 194.841 48.264 194.841 49.8ZM190.841 49.8C190.841 48.1147 191.129 46.568 191.705 45.16C192.281 43.752 193.092 42.536 194.137 41.512C195.204 40.4667 196.441 39.656 197.849 39.08C199.278 38.504 200.814 38.216 202.457 38.216C204.142 38.216 205.689 38.504 207.097 39.08C208.505 39.656 209.732 40.4667 210.777 41.512C211.844 42.536 212.665 43.752 213.241 45.16C213.817 46.568 214.105 48.1147 214.105 49.8C214.105 51.464 213.817 53.0107 213.241 54.44C212.665 55.8693 211.854 57.1067 210.809 58.152C209.764 59.1973 208.526 60.0187 207.097 60.616C205.689 61.192 204.142 61.48 202.457 61.48C200.793 61.48 199.246 61.192 197.817 60.616C196.388 60.0187 195.15 59.1973 194.105 58.152C193.081 57.1067 192.281 55.8693 191.705 54.44C191.129 53.0107 190.841 51.464 190.841 49.8ZM220.657 49.448V47.592H224.273C224.977 47.592 225.596 47.4747 226.129 47.24C226.663 47.0053 227.079 46.6747 227.377 46.248C227.676 45.8 227.825 45.2667 227.825 44.648C227.825 43.7093 227.495 42.984 226.833 42.472C226.172 41.96 225.319 41.704 224.273 41.704H221.553V57.896H224.689C225.543 57.896 226.3 57.7573 226.961 57.48C227.623 57.2027 228.145 56.7867 228.529 56.232C228.913 55.6773 229.105 54.984 229.105 54.152C229.105 53.5547 228.988 53.032 228.753 52.584C228.54 52.1147 228.231 51.7307 227.825 51.432C227.441 51.112 226.983 50.888 226.449 50.76C225.916 50.6107 225.329 50.536 224.689 50.536H220.657V48.456H224.913C226.001 48.456 227.025 48.5733 227.985 48.808C228.945 49.0427 229.799 49.4053 230.545 49.896C231.313 50.3867 231.911 51.016 232.337 51.784C232.764 52.552 232.977 53.4693 232.977 54.536C232.977 56.008 232.625 57.224 231.921 58.184C231.239 59.144 230.289 59.8587 229.073 60.328C227.879 60.776 226.492 61 224.913 61H217.777V38.6H224.529C225.937 38.6 227.175 38.8027 228.241 39.208C229.329 39.6133 230.172 40.232 230.769 41.064C231.388 41.896 231.697 42.952 231.697 44.232C231.697 45.3413 231.388 46.2907 230.769 47.08C230.172 47.848 229.329 48.4347 228.241 48.84C227.175 49.2453 225.937 49.448 224.529 49.448H220.657ZM239.184 55.24L239.888 52.04H250.288L251.024 55.24H239.184ZM245.04 44.936L241.52 53.16L241.456 53.992L238.352 61H234.096L245.04 37.352L255.984 61H251.728L248.688 54.184L248.592 53.256L245.04 44.936ZM254.1 42.088V38.6H269.716V42.088H263.796V61H259.988V42.088H254.1ZM272.465 38.6H276.241V61H272.465V38.6ZM274.705 50.408V47.08H279.217C280.838 47.08 282.246 47.368 283.441 47.944C284.657 48.4987 285.595 49.2987 286.257 50.344C286.918 51.368 287.249 52.6053 287.249 54.056C287.249 55.464 286.918 56.6907 286.257 57.736C285.595 58.7813 284.657 59.592 283.441 60.168C282.246 60.7227 280.838 61 279.217 61H274.705V57.672H279.217C280.07 57.672 280.817 57.544 281.457 57.288C282.118 57.0107 282.63 56.6053 282.993 56.072C283.355 55.5173 283.537 54.8453 283.537 54.056C283.537 53.2453 283.355 52.5733 282.993 52.04C282.63 51.4853 282.118 51.08 281.457 50.824C280.817 50.5467 280.07 50.408 279.217 50.408H274.705Z" fill="#A25353"/>
</svg>
