<svg width="330" height="100" viewBox="0 0 330 100" fill="none" xmlns="http://www.w3.org/2000/svg">
<rect x="3.5" y="3.5" width="323" height="93" rx="44.5" fill="white" stroke="#A25353" stroke-width="7"/>
<path d="M104.216 49.8C104.216 51.336 104.536 52.712 105.176 53.928C105.837 55.1227 106.744 56.0613 107.896 56.744C109.048 57.4267 110.36 57.768 111.832 57.768C113.325 57.768 114.637 57.4267 115.768 56.744C116.92 56.0613 117.816 55.1227 118.456 53.928C119.117 52.712 119.448 51.336 119.448 49.8C119.448 48.264 119.128 46.8987 118.488 45.704C117.848 44.488 116.952 43.5387 115.8 42.856C114.669 42.1733 113.347 41.832 111.832 41.832C110.36 41.832 109.048 42.1733 107.896 42.856C106.744 43.5387 105.837 44.488 105.176 45.704C104.536 46.8987 104.216 48.264 104.216 49.8ZM100.216 49.8C100.216 48.1147 100.504 46.568 101.08 45.16C101.656 43.752 102.467 42.536 103.512 41.512C104.579 40.4667 105.816 39.656 107.224 39.08C108.653 38.504 110.189 38.216 111.832 38.216C113.517 38.216 115.064 38.504 116.472 39.08C117.88 39.656 119.107 40.4667 120.152 41.512C121.219 42.536 122.04 43.752 122.616 45.16C123.192 46.568 123.48 48.1147 123.48 49.8C123.48 51.464 123.192 53.0107 122.616 54.44C122.04 55.8693 121.229 57.1067 120.184 58.152C119.139 59.1973 117.901 60.0187 116.472 60.616C115.064 61.192 113.517 61.48 111.832 61.48C110.168 61.48 108.621 61.192 107.192 60.616C105.763 60.0187 104.525 59.1973 103.48 58.152C102.456 57.1067 101.656 55.8693 101.08 54.44C100.504 53.0107 100.216 51.464 100.216 49.8ZM123.944 42.088V38.6H139.56V42.088H133.64V61H129.832V42.088H123.944ZM146.469 47.368L144.933 61H141.029L144.101 37.48L153.285 52.68L162.501 37.48L165.573 61H161.669L160.101 47.368L153.285 58.92L146.469 47.368ZM171.582 61V57.672H182.878V61H171.582ZM171.582 41.928V38.6H182.878V41.928H171.582ZM171.582 50.632V47.368H182.238V50.632H171.582ZM169.246 38.6H172.958V61H169.246V38.6ZM189.031 50.728V47.24H204.999V50.728H189.031ZM202.567 38.6H206.343V61H202.567V38.6ZM187.527 38.6H191.303V61H187.527V38.6ZM214.028 55.24L214.732 52.04H225.132L225.868 55.24H214.028ZM219.884 44.936L216.364 53.16L216.3 53.992L213.196 61H208.94L219.884 37.352L230.828 61H226.572L223.532 54.184L223.436 53.256L219.884 44.936Z" fill="#A25353"/>
</svg>
