<svg width="300" height="70" viewBox="0 0 300 70" fill="none" xmlns="http://www.w3.org/2000/svg">
<rect x="3.5" y="3.5" width="293" height="63" rx="31.5" stroke="#A25353" stroke-width="7"/>
<path d="M40.16 34.8C40.16 36.4853 40.5227 37.9893 41.248 39.312C41.9947 40.6347 43.008 41.68 44.288 42.448C45.568 43.216 47.0187 43.6 48.64 43.6C50.2827 43.6 51.7333 43.216 52.992 42.448C54.272 41.68 55.2747 40.6347 56 39.312C56.7467 37.9893 57.12 36.4853 57.12 34.8C57.12 33.1147 56.7467 31.6107 56 30.288C55.2747 28.9653 54.272 27.92 52.992 27.152C51.7333 26.384 50.2827 26 48.64 26C47.0187 26 45.568 26.384 44.288 27.152C43.008 27.92 41.9947 28.9653 41.248 30.288C40.5227 31.6107 40.16 33.1147 40.16 34.8ZM37.28 34.8C37.28 33.1573 37.5573 31.6427 38.112 30.256C38.688 28.848 39.488 27.632 40.512 26.608C41.536 25.5627 42.7413 24.752 44.128 24.176C45.5147 23.5787 47.0187 23.28 48.64 23.28C50.2827 23.28 51.7867 23.5787 53.152 24.176C54.5387 24.752 55.744 25.5627 56.768 26.608C57.792 27.632 58.5813 28.848 59.136 30.256C59.712 31.6427 60 33.1573 60 34.8C60 36.4213 59.712 37.936 59.136 39.344C58.5813 40.752 57.792 41.9787 56.768 43.024C55.744 44.048 54.5387 44.8587 53.152 45.456C51.7867 46.032 50.2827 46.32 48.64 46.32C47.0187 46.32 45.5147 46.032 44.128 45.456C42.7413 44.8587 41.536 44.048 40.512 43.024C39.488 41.9787 38.688 40.752 38.112 39.344C37.5573 37.936 37.28 36.4213 37.28 34.8ZM61.4413 31.28H70.0813V33.68H61.4413V31.28ZM64.4813 31.92H67.0413V46H64.4813V31.92ZM86.634 46L84.234 34.32L85.674 30.16L89.514 46H86.634ZM78.954 43.792L85.674 30.16L85.994 35.28L79.914 46.992L78.954 43.792ZM79.914 46.992L73.93 35.28L74.25 30.16L80.874 43.792L79.914 46.992ZM70.41 46L74.25 30.16L75.69 34.32L73.29 46H70.41ZM92.4395 39.28V37.104H102.264C102.178 36.336 101.965 35.664 101.624 35.088C101.304 34.4907 100.845 34.032 100.248 33.712C99.6715 33.3707 98.9568 33.2 98.1035 33.2C97.2502 33.2 96.4715 33.3813 95.7675 33.744C95.0635 34.1067 94.4982 34.6293 94.0715 35.312C93.6662 35.9733 93.4635 36.7627 93.4635 37.68L93.3995 38.64C93.3995 39.7707 93.5915 40.7307 93.9755 41.52C94.3595 42.3093 94.9035 42.9067 95.6075 43.312C96.3115 43.7173 97.1435 43.92 98.1035 43.92C98.8288 43.92 99.4688 43.8133 100.024 43.6C100.6 43.3653 101.112 43.056 101.56 42.672C102.008 42.2667 102.392 41.7973 102.712 41.264L104.792 42.576C104.301 43.3227 103.757 43.984 103.16 44.56C102.562 45.1147 101.837 45.552 100.984 45.872C100.13 46.1707 99.0635 46.32 97.7835 46.32C96.4608 46.32 95.2662 45.9893 94.1995 45.328C93.1542 44.6667 92.3222 43.76 91.7035 42.608C91.1062 41.4347 90.8075 40.112 90.8075 38.64C90.8075 38.3627 90.8182 38.096 90.8395 37.84C90.8608 37.584 90.8928 37.328 90.9355 37.072C91.1488 35.856 91.5755 34.7893 92.2155 33.872C92.8555 32.9547 93.6768 32.24 94.6795 31.728C95.7035 31.216 96.8448 30.96 98.1035 30.96C99.4902 30.96 100.706 31.2693 101.752 31.888C102.797 32.5067 103.608 33.3813 104.184 34.512C104.76 35.6213 105.048 36.9547 105.048 38.512C105.048 38.64 105.048 38.768 105.048 38.896C105.048 39.024 105.037 39.152 105.016 39.28H92.4395ZM110.06 39.44V37.04H120.94V39.44H110.06ZM119.276 31.28H121.836V46H119.276V31.28ZM108.556 31.28H111.116V46H108.556V31.28ZM138.97 33.84L126.81 47.12L126.97 43.44L139.13 30.16L138.97 33.84ZM129.37 31.28V43.6L126.81 47.12V31.28H129.37ZM139.13 30.16V46H136.57V33.68L139.13 30.16ZM141.848 31.28H150.488V33.68H141.848V31.28ZM144.888 31.92H147.448V46H144.888V31.92ZM153.056 31.28H155.616V46H153.056V31.28ZM154.56 39.088V36.848H159.136C160.651 36.848 161.92 37.2213 162.944 37.968C163.99 38.6933 164.512 39.8453 164.512 41.424C164.512 42.4693 164.278 43.3333 163.808 44.016C163.339 44.6987 162.699 45.2 161.888 45.52C161.078 45.84 160.16 46 159.136 46H154.56V43.76H159.136C159.755 43.76 160.267 43.6747 160.672 43.504C161.099 43.312 161.419 43.0453 161.632 42.704C161.846 42.3413 161.952 41.9147 161.952 41.424C161.952 40.6773 161.718 40.1013 161.248 39.696C160.779 39.2907 160.075 39.088 159.136 39.088H154.56ZM184.455 33.36V30.96C185.905 30.96 187.196 31.2907 188.327 31.952C189.479 32.6133 190.385 33.52 191.047 34.672C191.729 35.824 192.071 37.1467 192.071 38.64C192.071 40.112 191.729 41.4347 191.047 42.608C190.385 43.76 189.479 44.6667 188.327 45.328C187.196 45.9893 185.905 46.32 184.455 46.32C183.025 46.32 181.735 45.968 180.583 45.264C179.431 44.5387 178.513 43.4613 177.831 42.032C177.169 40.6027 176.839 38.832 176.839 36.72L179.399 38.64C179.399 39.664 179.623 40.5707 180.071 41.36C180.519 42.1493 181.116 42.7787 181.863 43.248C182.631 43.696 183.495 43.92 184.455 43.92C185.415 43.92 186.268 43.696 187.015 43.248C187.783 42.7787 188.38 42.1493 188.807 41.36C189.255 40.5707 189.479 39.664 189.479 38.64C189.479 37.616 189.255 36.7093 188.807 35.92C188.38 35.1093 187.783 34.48 187.015 34.032C186.268 33.584 185.415 33.36 184.455 33.36ZM178.247 38.64C178.247 37.4453 178.396 36.3787 178.695 35.44C178.993 34.48 179.42 33.6693 179.975 33.008C180.529 32.3467 181.18 31.8453 181.927 31.504C182.695 31.1413 183.537 30.96 184.455 30.96V33.36C183.9 33.36 183.324 33.4773 182.727 33.712C182.129 33.9467 181.575 34.288 181.063 34.736C180.572 35.184 180.167 35.7387 179.847 36.4C179.548 37.04 179.399 37.7867 179.399 38.64H178.247ZM176.839 36.72C176.839 34.7147 177.031 32.944 177.415 31.408C177.799 29.872 178.471 28.5707 179.431 27.504C180.412 26.416 181.756 25.584 183.463 25.008C184.913 24.5173 185.991 23.9307 186.695 23.248C187.42 22.544 187.857 21.808 188.007 21.04H190.535C190.428 21.9787 190.087 22.8427 189.511 23.632C188.935 24.4 188.177 25.072 187.239 25.648C186.321 26.224 185.276 26.704 184.103 27.088C182.78 27.5147 181.745 28.1547 180.999 29.008C180.273 29.8613 179.772 30.832 179.495 31.92C179.217 32.9867 179.079 34.0533 179.079 35.12V38.416L176.839 36.72ZM197.988 53.04H195.428V31.28H197.988V53.04ZM210.308 38.64C210.308 40.2187 209.977 41.584 209.316 42.736C208.654 43.888 207.769 44.7733 206.66 45.392C205.572 46.0107 204.356 46.32 203.012 46.32C201.796 46.32 200.718 46.0107 199.78 45.392C198.862 44.7733 198.137 43.888 197.604 42.736C197.092 41.584 196.836 40.2187 196.836 38.64C196.836 37.04 197.092 35.6747 197.604 34.544C198.137 33.392 198.862 32.5067 199.78 31.888C200.718 31.2693 201.796 30.96 203.012 30.96C204.356 30.96 205.572 31.2693 206.66 31.888C207.769 32.5067 208.654 33.392 209.316 34.544C209.977 35.6747 210.308 37.04 210.308 38.64ZM207.716 38.64C207.716 37.5093 207.481 36.5493 207.012 35.76C206.564 34.9707 205.956 34.3733 205.188 33.968C204.441 33.5627 203.609 33.36 202.692 33.36C201.945 33.36 201.209 33.5627 200.484 33.968C199.758 34.3733 199.161 34.9707 198.692 35.76C198.222 36.5493 197.988 37.5093 197.988 38.64C197.988 39.7707 198.222 40.7307 198.692 41.52C199.161 42.3093 199.758 42.9067 200.484 43.312C201.209 43.7173 201.945 43.92 202.692 43.92C203.609 43.92 204.441 43.7173 205.188 43.312C205.956 42.9067 206.564 42.3093 207.012 41.52C207.481 40.7307 207.716 39.7707 207.716 38.64ZM212.558 38.64C212.558 37.1467 212.888 35.824 213.549 34.672C214.232 33.52 215.15 32.6133 216.302 31.952C217.454 31.2907 218.744 30.96 220.174 30.96C221.624 30.96 222.915 31.2907 224.046 31.952C225.198 32.6133 226.104 33.52 226.766 34.672C227.448 35.824 227.79 37.1467 227.79 38.64C227.79 40.112 227.448 41.4347 226.766 42.608C226.104 43.76 225.198 44.6667 224.046 45.328C222.915 45.9893 221.624 46.32 220.174 46.32C218.744 46.32 217.454 45.9893 216.302 45.328C215.15 44.6667 214.232 43.76 213.549 42.608C212.888 41.4347 212.558 40.112 212.558 38.64ZM215.15 38.64C215.15 39.664 215.363 40.5707 215.79 41.36C216.238 42.1493 216.835 42.7787 217.582 43.248C218.35 43.696 219.214 43.92 220.174 43.92C221.134 43.92 221.987 43.696 222.734 43.248C223.502 42.7787 224.099 42.1493 224.526 41.36C224.974 40.5707 225.198 39.664 225.198 38.64C225.198 37.616 224.974 36.7093 224.526 35.92C224.099 35.1093 223.502 34.48 222.734 34.032C221.987 33.584 221.134 33.36 220.174 33.36C219.214 33.36 218.35 33.584 217.582 34.032C216.835 34.48 216.238 35.1093 215.79 35.92C215.363 36.7093 215.15 37.616 215.15 38.64ZM232.81 39.44V37.04H243.69V39.44H232.81ZM242.026 31.28H244.586V46H242.026V31.28ZM231.306 31.28H233.866V46H231.306V31.28ZM249.4 31.28H251.96V46H249.4V31.28ZM250.904 39.088V36.848H255.48C256.995 36.848 258.264 37.2213 259.288 37.968C260.333 38.6933 260.856 39.8453 260.856 41.424C260.856 42.4693 260.621 43.3333 260.152 44.016C259.683 44.6987 259.043 45.2 258.232 45.52C257.421 45.84 256.504 46 255.48 46H250.904V43.76H255.48C256.099 43.76 256.611 43.6747 257.016 43.504C257.443 43.312 257.763 43.0453 257.976 42.704C258.189 42.3413 258.296 41.9147 258.296 41.424C258.296 40.6773 258.061 40.1013 257.592 39.696C257.123 39.2907 256.419 39.088 255.48 39.088H250.904Z" fill="#A25353"/>
</svg>
