<svg width="400" height="100" viewBox="0 0 400 100" fill="none" xmlns="http://www.w3.org/2000/svg">
<rect x="3.5" y="3.5" width="393" height="93" rx="44.5" fill="white" stroke="#A25353" stroke-width="7"/>
<path d="M62.216 49.8C62.216 51.336 62.536 52.712 63.176 53.928C63.8373 55.1227 64.744 56.0613 65.896 56.744C67.048 57.4267 68.36 57.768 69.832 57.768C71.3253 57.768 72.6373 57.4267 73.768 56.744C74.92 56.0613 75.816 55.1227 76.456 53.928C77.1173 52.712 77.448 51.336 77.448 49.8C77.448 48.264 77.128 46.8987 76.488 45.704C75.848 44.488 74.952 43.5387 73.8 42.856C72.6693 42.1733 71.3467 41.832 69.832 41.832C68.36 41.832 67.048 42.1733 65.896 42.856C64.744 43.5387 63.8373 44.488 63.176 45.704C62.536 46.8987 62.216 48.264 62.216 49.8ZM58.216 49.8C58.216 48.1147 58.504 46.568 59.08 45.16C59.656 43.752 60.4667 42.536 61.512 41.512C62.5787 40.4667 63.816 39.656 65.224 39.08C66.6533 38.504 68.1893 38.216 69.832 38.216C71.5173 38.216 73.064 38.504 74.472 39.08C75.88 39.656 77.1067 40.4667 78.152 41.512C79.2187 42.536 80.04 43.752 80.616 45.16C81.192 46.568 81.48 48.1147 81.48 49.8C81.48 51.464 81.192 53.0107 80.616 54.44C80.04 55.8693 79.2293 57.1067 78.184 58.152C77.1387 59.1973 75.9013 60.0187 74.472 60.616C73.064 61.192 71.5173 61.48 69.832 61.48C68.168 61.48 66.6213 61.192 65.192 60.616C63.7627 60.0187 62.5253 59.1973 61.48 58.152C60.456 57.1067 59.656 55.8693 59.08 54.44C58.504 53.0107 58.216 51.464 58.216 49.8ZM81.9435 42.088V38.6H97.5595V42.088H91.6395V61H87.8315V42.088H81.9435ZM104.469 47.368L102.933 61H99.0285L102.101 37.48L111.285 52.68L120.501 37.48L123.573 61H119.669L118.101 47.368L111.285 58.92L104.469 47.368ZM129.582 61V57.672H140.878V61H129.582ZM129.582 41.928V38.6H140.878V41.928H129.582ZM129.582 50.632V47.368H140.238V50.632H129.582ZM127.246 38.6H130.958V61H127.246V38.6ZM147.031 50.728V47.24H162.999V50.728H147.031ZM160.567 38.6H164.343V61H160.567V38.6ZM145.527 38.6H149.303V61H145.527V38.6ZM189.244 42.664L169.34 62.12L169.5 56.936L189.404 37.48L189.244 42.664ZM173.052 38.6V57.896L169.34 62.12V38.6H173.052ZM189.404 37.48V61H185.692V41.8L189.404 37.48ZM192.131 42.088V38.6H207.747V42.088H201.827V61H198.019V42.088H192.131ZM210.496 38.6H214.272V61H210.496V38.6ZM212.736 50.408V47.08H217.248C218.869 47.08 220.277 47.368 221.472 47.944C222.688 48.4987 223.627 49.2987 224.288 50.344C224.949 51.368 225.28 52.6053 225.28 54.056C225.28 55.464 224.949 56.6907 224.288 57.736C223.627 58.7813 222.688 59.592 221.472 60.168C220.277 60.7227 218.869 61 217.248 61H212.736V57.672H217.248C218.101 57.672 218.848 57.544 219.488 57.288C220.149 57.0107 220.661 56.6053 221.024 56.072C221.387 55.5173 221.568 54.8453 221.568 54.056C221.568 53.2453 221.387 52.5733 221.024 52.04C220.661 51.4853 220.149 51.08 219.488 50.824C218.848 50.5467 218.101 50.408 217.248 50.408H212.736ZM240.158 50.632V47.368H246.334C247.784 47.368 249.075 47.6453 250.206 48.2C251.358 48.7547 252.264 49.544 252.926 50.568C253.608 51.5707 253.95 52.7653 253.95 54.152C253.95 55.5173 253.608 56.7227 252.926 57.768C252.264 58.792 251.358 59.592 250.206 60.168C249.075 60.7227 247.784 61 246.334 61H240.158V57.672H245.854C246.707 57.672 247.454 57.544 248.094 57.288C248.734 57.032 249.224 56.648 249.566 56.136C249.928 55.6027 250.11 54.9413 250.11 54.152C250.11 53.3627 249.928 52.712 249.566 52.2C249.224 51.6667 248.734 51.272 248.094 51.016C247.454 50.76 246.707 50.632 245.854 50.632H240.158ZM238.654 38.6H252.254V41.928H242.494V61H238.654V38.6ZM257.715 38.6H261.491V61H257.715V38.6ZM259.955 41.928V38.6H264.467C266.088 38.6 267.496 38.888 268.691 39.464C269.907 40.0187 270.845 40.8187 271.507 41.864C272.168 42.888 272.499 44.1147 272.499 45.544C272.499 46.9733 272.168 48.2107 271.507 49.256C270.845 50.3013 269.907 51.112 268.691 51.688C267.496 52.2427 266.088 52.52 264.467 52.52H259.955V49.192H264.467C265.768 49.192 266.813 48.8827 267.603 48.264C268.392 47.6453 268.787 46.7387 268.787 45.544C268.787 44.3493 268.392 43.4533 267.603 42.856C266.813 42.2373 265.768 41.928 264.467 41.928H259.955ZM278.935 49.8C278.935 51.336 279.255 52.712 279.895 53.928C280.556 55.1227 281.463 56.0613 282.615 56.744C283.767 57.4267 285.079 57.768 286.551 57.768C288.044 57.768 289.356 57.4267 290.487 56.744C291.639 56.0613 292.535 55.1227 293.175 53.928C293.836 52.712 294.167 51.336 294.167 49.8C294.167 48.264 293.847 46.8987 293.207 45.704C292.567 44.488 291.671 43.5387 290.519 42.856C289.388 42.1733 288.065 41.832 286.551 41.832C285.079 41.832 283.767 42.1733 282.615 42.856C281.463 43.5387 280.556 44.488 279.895 45.704C279.255 46.8987 278.935 48.264 278.935 49.8ZM274.935 49.8C274.935 48.1147 275.223 46.568 275.799 45.16C276.375 43.752 277.185 42.536 278.231 41.512C279.297 40.4667 280.535 39.656 281.943 39.08C283.372 38.504 284.908 38.216 286.551 38.216C288.236 38.216 289.783 38.504 291.191 39.08C292.599 39.656 293.825 40.4667 294.871 41.512C295.937 42.536 296.759 43.752 297.335 45.16C297.911 46.568 298.199 48.1147 298.199 49.8C298.199 51.464 297.911 53.0107 297.335 54.44C296.759 55.8693 295.948 57.1067 294.903 58.152C293.857 59.1973 292.62 60.0187 291.191 60.616C289.783 61.192 288.236 61.48 286.551 61.48C284.887 61.48 283.34 61.192 281.911 60.616C280.481 60.0187 279.244 59.1973 278.199 58.152C277.175 57.1067 276.375 55.8693 275.799 54.44C275.223 53.0107 274.935 51.464 274.935 49.8ZM303.375 50.728V47.24H319.343V50.728H303.375ZM316.911 38.6H320.687V61H316.911V38.6ZM301.871 38.6H305.647V61H301.871V38.6ZM325.684 38.6H329.46V61H325.684V38.6ZM327.924 50.408V47.08H332.436C334.057 47.08 335.465 47.368 336.66 47.944C337.876 48.4987 338.814 49.2987 339.476 50.344C340.137 51.368 340.468 52.6053 340.468 54.056C340.468 55.464 340.137 56.6907 339.476 57.736C338.814 58.7813 337.876 59.592 336.66 60.168C335.465 60.7227 334.057 61 332.436 61H327.924V57.672H332.436C333.289 57.672 334.036 57.544 334.676 57.288C335.337 57.0107 335.849 56.6053 336.212 56.072C336.574 55.5173 336.756 54.8453 336.756 54.056C336.756 53.2453 336.574 52.5733 336.212 52.04C335.849 51.4853 335.337 51.08 334.676 50.824C334.036 50.5467 333.289 50.408 332.436 50.408H327.924Z" fill="#A25353"/>
</svg>
