<svg width="360" height="70" viewBox="0 0 360 70" fill="none" xmlns="http://www.w3.org/2000/svg">
<rect x="3.5" y="3.5" width="353" height="63" rx="31.5" stroke="#A25353" stroke-width="7"/>
<path d="M63.08 30.64L43.56 51.12L43.72 46.96L63.24 26.48L63.08 30.64ZM46.28 27.6V47.6L43.56 51.12V27.6H46.28ZM63.24 26.48V50H60.52V30L63.24 26.48ZM74.8685 38.96V37.2C76.0418 37.2 77.0338 37.0293 77.8445 36.688C78.6552 36.3253 79.2738 35.856 79.7005 35.28C80.1272 34.6827 80.3405 34.032 80.3405 33.328C80.3405 32.624 80.1805 32.0053 79.8605 31.472C79.5405 30.9173 79.0498 30.4907 78.3885 30.192C77.7485 29.8933 76.9485 29.744 75.9885 29.744C75.0925 29.744 74.2818 29.8933 73.5565 30.192C72.8525 30.4907 72.2978 30.896 71.8925 31.408C71.4872 31.92 71.2845 32.5067 71.2845 33.168H68.6925C68.6925 31.9947 68.9912 30.9707 69.5885 30.096C70.2072 29.2213 71.0605 28.5387 72.1485 28.048C73.2578 27.536 74.5272 27.28 75.9565 27.28C77.4498 27.28 78.7298 27.5573 79.7965 28.112C80.8632 28.6667 81.6845 29.392 82.2605 30.288C82.8365 31.184 83.1245 32.1653 83.1245 33.232C83.1245 34.0213 82.9218 34.768 82.5165 35.472C82.1325 36.1547 81.5778 36.7627 80.8525 37.296C80.1272 37.808 79.2525 38.2133 78.2285 38.512C77.2258 38.8107 76.1058 38.96 74.8685 38.96ZM75.8285 50.32C74.5058 50.32 73.3432 50.16 72.3405 49.84C71.3378 49.52 70.4952 49.0827 69.8125 48.528C69.1298 47.952 68.6072 47.2907 68.2445 46.544C67.9032 45.776 67.7325 44.9547 67.7325 44.08H70.4845C70.5698 44.784 70.8045 45.4133 71.1885 45.968C71.5938 46.5227 72.1698 46.96 72.9165 47.28C73.6845 47.6 74.6552 47.76 75.8285 47.76C77.5992 47.76 78.9005 47.3973 79.7325 46.672C80.5645 45.9467 80.9805 44.976 80.9805 43.76C80.9805 42.8427 80.7138 42.0747 80.1805 41.456C79.6472 40.8373 78.9218 40.3787 78.0045 40.08C77.0872 39.76 76.0418 39.6 74.8685 39.6V37.84C76.5325 37.84 78.0365 38.0533 79.3805 38.48C80.7245 38.9067 81.7912 39.5787 82.5805 40.496C83.3698 41.392 83.7645 42.5867 83.7645 44.08C83.7645 45.3387 83.4445 46.4373 82.8045 47.376C82.1858 48.3147 81.2792 49.04 80.0845 49.552C78.9112 50.064 77.4925 50.32 75.8285 50.32ZM90.8828 34.864L89.2188 50H86.4988L89.2188 26.48L98.1788 42.704L107.139 26.48L109.859 50H107.139L105.475 34.864L98.1788 47.92L90.8828 34.864ZM115.189 50V47.44H126.485V50H115.189ZM115.189 30.16V27.6H126.485V30.16H115.189ZM115.189 39.12V36.56H125.845V39.12H115.189ZM113.685 27.6H116.405V50H113.685V27.6ZM132.783 39.12V36.56H148.143V39.12H132.783ZM146.319 27.6H149.039V50H146.319V27.6ZM131.279 27.6H133.999V50H131.279V27.6ZM173.674 30.64L154.154 51.12L154.314 46.96L173.834 26.48L173.674 30.64ZM156.874 27.6V47.6L154.154 51.12V27.6H156.874ZM173.834 26.48V50H171.114V30L173.834 26.48ZM176.726 30.16V27.6H190.966V30.16H185.206V50H182.486V30.16H176.726ZM193.841 27.6H196.561V50H193.841V27.6ZM195.345 39.12V36.56H199.921C201.372 36.56 202.663 36.8373 203.793 37.392C204.945 37.9253 205.852 38.6933 206.513 39.696C207.196 40.6987 207.537 41.8933 207.537 43.28C207.537 44.6453 207.196 45.84 206.513 46.864C205.852 47.8667 204.945 48.6453 203.793 49.2C202.663 49.7333 201.372 50 199.921 50H195.345V47.44H199.921C200.881 47.44 201.724 47.2907 202.449 46.992C203.196 46.672 203.772 46.2027 204.177 45.584C204.604 44.9653 204.817 44.1973 204.817 43.28C204.817 42.3627 204.604 41.5947 204.177 40.976C203.772 40.3573 203.196 39.8987 202.449 39.6C201.724 39.28 200.881 39.12 199.921 39.12H195.345ZM229.574 27.6H232.294V50H229.574V27.6ZM239.462 38.8C239.462 37.4773 239.142 36.3787 238.502 35.504C237.862 34.6293 236.977 33.9787 235.846 33.552C234.716 33.104 233.414 32.88 231.942 32.88H229.926C228.454 32.88 227.153 33.104 226.022 33.552C224.892 33.9787 224.006 34.6293 223.366 35.504C222.726 36.3787 222.406 37.4773 222.406 38.8C222.406 40.1013 222.726 41.2 223.366 42.096C224.006 42.9707 224.892 43.632 226.022 44.08C227.153 44.5067 228.454 44.72 229.926 44.72H231.942C233.414 44.72 234.716 44.5067 235.846 44.08C236.977 43.632 237.862 42.9707 238.502 42.096C239.142 41.2 239.462 40.1013 239.462 38.8ZM242.182 38.8C242.182 40.592 241.734 42.1387 240.838 43.44C239.964 44.72 238.748 45.712 237.19 46.416C235.654 47.0987 233.905 47.44 231.942 47.44H229.926C227.964 47.44 226.204 47.0987 224.646 46.416C223.11 45.712 221.894 44.72 220.998 43.44C220.124 42.1387 219.686 40.592 219.686 38.8C219.686 36.9867 220.124 35.44 220.998 34.16C221.894 32.88 223.11 31.8987 224.646 31.216C226.204 30.512 227.964 30.16 229.926 30.16H231.942C233.905 30.16 235.654 30.512 237.19 31.216C238.748 31.8987 239.964 32.88 240.838 34.16C241.734 35.44 242.182 36.9867 242.182 38.8ZM247.629 38.8C247.629 40.4853 247.991 41.9893 248.717 43.312C249.463 44.6347 250.477 45.68 251.757 46.448C253.037 47.216 254.487 47.6 256.109 47.6C257.751 47.6 259.202 47.216 260.461 46.448C261.741 45.68 262.743 44.6347 263.469 43.312C264.215 41.9893 264.589 40.4853 264.589 38.8C264.589 37.1147 264.215 35.6107 263.469 34.288C262.743 32.9653 261.741 31.92 260.461 31.152C259.202 30.384 257.751 30 256.109 30C254.487 30 253.037 30.384 251.757 31.152C250.477 31.92 249.463 32.9653 248.717 34.288C247.991 35.6107 247.629 37.1147 247.629 38.8ZM244.749 38.8C244.749 37.1573 245.026 35.6427 245.581 34.256C246.157 32.848 246.957 31.632 247.981 30.608C249.005 29.5627 250.21 28.752 251.597 28.176C252.983 27.5787 254.487 27.28 256.109 27.28C257.751 27.28 259.255 27.5787 260.621 28.176C262.007 28.752 263.213 29.5627 264.237 30.608C265.261 31.632 266.05 32.848 266.605 34.256C267.181 35.6427 267.469 37.1573 267.469 38.8C267.469 40.4213 267.181 41.936 266.605 43.344C266.05 44.752 265.261 45.9787 264.237 47.024C263.213 48.048 262.007 48.8587 260.621 49.456C259.255 50.032 257.751 50.32 256.109 50.32C254.487 50.32 252.983 50.032 251.597 49.456C250.21 48.8587 249.005 48.048 247.981 47.024C246.957 45.9787 246.157 44.752 245.581 43.344C245.026 41.936 244.749 40.4213 244.749 38.8ZM268.101 30.16V27.6H282.341V30.16H276.581V50H273.861V30.16H268.101ZM285.223 38.8C285.223 40.4853 285.585 41.9893 286.311 43.312C287.057 44.6347 288.071 45.68 289.351 46.448C290.631 47.216 292.081 47.6 293.703 47.6C295.345 47.6 296.796 47.216 298.055 46.448C299.335 45.68 300.337 44.6347 301.062 43.312C301.809 41.9893 302.183 40.4853 302.183 38.8C302.183 37.1147 301.809 35.6107 301.062 34.288C300.337 32.9653 299.335 31.92 298.055 31.152C296.796 30.384 295.345 30 293.703 30C292.081 30 290.631 30.384 289.351 31.152C288.071 31.92 287.057 32.9653 286.311 34.288C285.585 35.6107 285.223 37.1147 285.223 38.8ZM282.343 38.8C282.343 37.1573 282.62 35.6427 283.174 34.256C283.751 32.848 284.551 31.632 285.575 30.608C286.599 29.5627 287.804 28.752 289.191 28.176C290.577 27.5787 292.081 27.28 293.703 27.28C295.345 27.28 296.849 27.5787 298.215 28.176C299.601 28.752 300.807 29.5627 301.831 30.608C302.855 31.632 303.644 32.848 304.199 34.256C304.775 35.6427 305.063 37.1573 305.063 38.8C305.063 40.4213 304.775 41.936 304.199 43.344C303.644 44.752 302.855 45.9787 301.831 47.024C300.807 48.048 299.601 48.8587 298.215 49.456C296.849 50.032 295.345 50.32 293.703 50.32C292.081 50.32 290.577 50.032 289.191 49.456C287.804 48.8587 286.599 48.048 285.575 47.024C284.551 45.9787 283.751 44.752 283.174 43.344C282.62 41.936 282.343 40.4213 282.343 38.8Z" fill="#A25353"/>
</svg>
