<svg width="259" height="100" viewBox="0 0 259 100" fill="none" xmlns="http://www.w3.org/2000/svg">
<rect x="3.5" y="3.5" width="252" height="93" rx="44.5" fill="white" stroke="#A25353" stroke-width="7"/>
<path d="M74.88 38.6L64.352 61H60.32L63.264 54.312L55.872 38.6H60.32L66.304 52.968L64.352 52.872L70.816 38.6H74.88ZM84.7465 45.096L79.1465 60.04H74.9225L84.7785 37.48L94.6025 60.04H90.3785L84.7465 45.096ZM93.0985 61H76.4265V64.52H72.8425V57.608H96.6825V64.52H93.0985V61ZM104.278 55.24L104.982 52.04H115.382L116.118 55.24H104.278ZM110.134 44.936L106.614 53.16L106.55 53.992L103.446 61H99.1898L110.134 37.352L121.078 61H116.822L113.782 54.184L113.686 53.256L110.134 44.936ZM141.124 38.6V61H137.284V42.088H128.356V52.616C128.356 54.2587 128.11 55.72 127.62 57C127.129 58.2587 126.372 59.24 125.348 59.944C124.345 60.648 123.065 61 121.508 61V57.768C122.02 57.768 122.468 57.64 122.852 57.384C123.236 57.1067 123.556 56.7333 123.812 56.264C124.089 55.7733 124.292 55.1973 124.42 54.536C124.569 53.8747 124.644 53.1493 124.644 52.36V38.6H141.124ZM166.088 42.664L146.184 62.12L146.344 56.936L166.248 37.48L166.088 42.664ZM149.896 38.6V57.896L146.184 62.12V38.6H149.896ZM166.248 37.48V61H162.536V41.8L166.248 37.48ZM168.975 42.088V38.6H184.591V42.088H178.671V61H174.863V42.088H168.975ZM187.34 38.6H191.116V61H187.34V38.6ZM189.58 50.408V47.08H194.092C195.713 47.08 197.121 47.368 198.316 47.944C199.532 48.4987 200.47 49.2987 201.132 50.344C201.793 51.368 202.124 52.6053 202.124 54.056C202.124 55.464 201.793 56.6907 201.132 57.736C200.47 58.7813 199.532 59.592 198.316 60.168C197.121 60.7227 195.713 61 194.092 61H189.58V57.672H194.092C194.945 57.672 195.692 57.544 196.332 57.288C196.993 57.0107 197.505 56.6053 197.868 56.072C198.23 55.5173 198.412 54.8453 198.412 54.056C198.412 53.2453 198.23 52.5733 197.868 52.04C197.505 51.4853 196.993 51.08 196.332 50.824C195.692 50.5467 194.945 50.408 194.092 50.408H189.58Z" fill="#A25353"/>
</svg>
