<svg width="155" height="36" viewBox="0 0 155 36" fill="none" xmlns="http://www.w3.org/2000/svg">
<rect x="1.5" y="1.5" width="152" height="33" rx="16.5" fill="white" stroke="#A25353" stroke-width="3"/>
<path d="M16.17 12.5H17.94V23H16.17V12.5ZM17.22 14.06V12.5H19.335C20.095 12.5 20.755 12.635 21.315 12.905C21.885 13.165 22.325 13.54 22.635 14.03C22.945 14.51 23.1 15.085 23.1 15.755C23.1 16.425 22.945 17.005 22.635 17.495C22.325 17.985 21.885 18.365 21.315 18.635C20.755 18.895 20.095 19.025 19.335 19.025H17.22V17.465H19.335C19.945 17.465 20.435 17.32 20.805 17.03C21.175 16.74 21.36 16.315 21.36 15.755C21.36 15.195 21.175 14.775 20.805 14.495C20.435 14.205 19.945 14.06 19.335 14.06H17.22ZM25.9369 23V21.44H31.2319V23H25.9369ZM25.9369 14.06V12.5H31.2319V14.06H25.9369ZM25.9369 18.14V16.61H30.9319V18.14H25.9369ZM24.8419 12.5H26.5819V23H24.8419V12.5ZM38.4212 15.545L35.7962 22.55H33.8162L38.4362 11.975L43.0412 22.55H41.0612L38.4212 15.545ZM42.3362 23H34.5212V24.65H32.8412V21.41H44.0162V24.65H42.3362V23ZM47.5765 20.3L47.9065 18.8H52.7815L53.1265 20.3H47.5765ZM50.3215 15.47L48.6715 19.325L48.6415 19.715L47.1865 23H45.1915L50.3215 11.915L55.4515 23H53.4565L52.0315 19.805L51.9865 19.37L50.3215 15.47ZM56.6729 12.5H58.4879V23H56.6729V12.5ZM62.3879 12.5H64.5179L60.0929 17.42L64.7429 23H62.5679L57.9479 17.465L62.3879 12.5ZM65.3641 14.135V12.5H72.6841V14.135H69.9091V23H68.1241V14.135H65.3641ZM83.3027 14.405L73.9727 23.525L74.0477 21.095L83.3777 11.975L83.3027 14.405ZM75.7127 12.5V21.545L73.9727 23.525V12.5H75.7127ZM83.3777 11.975V23H81.6377V14L83.3777 11.975ZM85.7061 12.5H87.4761V23H85.7061V12.5ZM86.7561 14.06V12.5H88.8711C89.6311 12.5 90.2911 12.635 90.8511 12.905C91.4211 13.165 91.8611 13.54 92.1711 14.03C92.4811 14.51 92.6361 15.085 92.6361 15.755C92.6361 16.425 92.4811 17.005 92.1711 17.495C91.8611 17.985 91.4211 18.365 90.8511 18.635C90.2911 18.895 89.6311 19.025 88.8711 19.025H86.7561V17.465H88.8711C89.4811 17.465 89.9711 17.32 90.3411 17.03C90.7111 16.74 90.8961 16.315 90.8961 15.755C90.8961 15.195 90.7111 14.775 90.3411 14.495C89.9711 14.205 89.4811 14.06 88.8711 14.06H86.7561ZM95.653 17.75C95.653 18.47 95.803 19.115 96.103 19.685C96.413 20.245 96.838 20.685 97.378 21.005C97.918 21.325 98.533 21.485 99.223 21.485C99.923 21.485 100.538 21.325 101.068 21.005C101.608 20.685 102.028 20.245 102.328 19.685C102.638 19.115 102.793 18.47 102.793 17.75C102.793 17.03 102.643 16.39 102.343 15.83C102.043 15.26 101.623 14.815 101.083 14.495C100.553 14.175 99.933 14.015 99.223 14.015C98.533 14.015 97.918 14.175 97.378 14.495C96.838 14.815 96.413 15.26 96.103 15.83C95.803 16.39 95.653 17.03 95.653 17.75ZM93.778 17.75C93.778 16.96 93.913 16.235 94.183 15.575C94.453 14.915 94.833 14.345 95.323 13.865C95.823 13.375 96.403 12.995 97.063 12.725C97.733 12.455 98.453 12.32 99.223 12.32C100.013 12.32 100.738 12.455 101.398 12.725C102.058 12.995 102.633 13.375 103.123 13.865C103.623 14.345 104.008 14.915 104.278 15.575C104.548 16.235 104.683 16.96 104.683 17.75C104.683 18.53 104.548 19.255 104.278 19.925C104.008 20.595 103.628 21.175 103.138 21.665C102.648 22.155 102.068 22.54 101.398 22.82C100.738 23.09 100.013 23.225 99.223 23.225C98.443 23.225 97.718 23.09 97.048 22.82C96.378 22.54 95.798 22.155 95.308 21.665C94.828 21.175 94.453 20.595 94.183 19.925C93.913 19.255 93.778 18.53 93.778 17.75ZM107.754 17.585V16.715H109.449C109.779 16.715 110.069 16.66 110.319 16.55C110.569 16.44 110.764 16.285 110.904 16.085C111.044 15.875 111.114 15.625 111.114 15.335C111.114 14.895 110.959 14.555 110.649 14.315C110.339 14.075 109.939 13.955 109.449 13.955H108.174V21.545H109.644C110.044 21.545 110.399 21.48 110.709 21.35C111.019 21.22 111.264 21.025 111.444 20.765C111.624 20.505 111.714 20.18 111.714 19.79C111.714 19.51 111.659 19.265 111.549 19.055C111.449 18.835 111.304 18.655 111.114 18.515C110.934 18.365 110.719 18.26 110.469 18.2C110.219 18.13 109.944 18.095 109.644 18.095H107.754V17.12H109.749C110.259 17.12 110.739 17.175 111.189 17.285C111.639 17.395 112.039 17.565 112.389 17.795C112.749 18.025 113.029 18.32 113.229 18.68C113.429 19.04 113.529 19.47 113.529 19.97C113.529 20.66 113.364 21.23 113.034 21.68C112.714 22.13 112.269 22.465 111.699 22.685C111.139 22.895 110.489 23 109.749 23H106.404V12.5H109.569C110.229 12.5 110.809 12.595 111.309 12.785C111.819 12.975 112.214 13.265 112.494 13.655C112.784 14.045 112.929 14.54 112.929 15.14C112.929 15.66 112.784 16.105 112.494 16.475C112.214 16.835 111.819 17.11 111.309 17.3C110.809 17.49 110.229 17.585 109.569 17.585H107.754ZM116.439 20.3L116.769 18.8H121.644L121.989 20.3H116.439ZM119.184 15.47L117.534 19.325L117.504 19.715L116.049 23H114.054L119.184 11.915L124.314 23H122.319L120.894 19.805L120.849 19.37L119.184 15.47ZM123.431 14.135V12.5H130.751V14.135H127.976V23H126.191V14.135H123.431ZM132.039 12.5H133.809V23H132.039V12.5ZM133.089 18.035V16.475H135.204C135.964 16.475 136.624 16.61 137.184 16.88C137.754 17.14 138.194 17.515 138.504 18.005C138.814 18.485 138.969 19.065 138.969 19.745C138.969 20.405 138.814 20.98 138.504 21.47C138.194 21.96 137.754 22.34 137.184 22.61C136.624 22.87 135.964 23 135.204 23H133.089V21.44H135.204C135.604 21.44 135.954 21.38 136.254 21.26C136.564 21.13 136.804 20.94 136.974 20.69C137.144 20.43 137.229 20.115 137.229 19.745C137.229 19.365 137.144 19.05 136.974 18.8C136.804 18.54 136.564 18.35 136.254 18.23C135.954 18.1 135.604 18.035 135.204 18.035H133.089Z" fill="#A25353"/>
</svg>
