<svg width="343" height="70" viewBox="0 0 343 70" fill="none" xmlns="http://www.w3.org/2000/svg">
<rect x="3.5" y="3.5" width="336" height="63" rx="31.5" stroke="#A25353" stroke-width="7"/>
<path d="M47.56 23.6H50.28V46H47.56V23.6ZM49.064 26.16V23.6H53.64C55.0907 23.6 56.3813 23.8773 57.512 24.432C58.664 24.9653 59.5707 25.7333 60.232 26.736C60.9147 27.7387 61.256 28.9333 61.256 30.32C61.256 31.6853 60.9147 32.88 60.232 33.904C59.5707 34.9067 58.664 35.6853 57.512 36.24C56.3813 36.7733 55.0907 37.04 53.64 37.04H49.064V34.48H53.64C55.0907 34.48 56.264 34.128 57.16 33.424C58.0773 32.72 58.536 31.6853 58.536 30.32C58.536 28.9333 58.0773 27.8987 57.16 27.216C56.264 26.512 55.0907 26.16 53.64 26.16H49.064ZM66.5953 46V43.44H77.8913V46H66.5953ZM66.5953 26.16V23.6H77.8913V26.16H66.5953ZM66.5953 35.12V32.56H77.2513V35.12H66.5953ZM65.0913 23.6H67.8113V46H65.0913V23.6ZM92.765 28.656L86.525 45.04H83.645L92.765 22.48L101.885 45.04H99.005L92.765 28.656ZM101.725 46H83.805V49.52H81.405V43.44H104.125V49.52H101.725V46ZM111.235 39.28L112.195 36.72H122.115L123.075 39.28H111.235ZM117.091 28.656L113.315 37.552L113.059 38.128L109.731 46H106.691L117.091 22.48L127.491 46H124.451L121.187 38.32L120.931 37.68L117.091 28.656ZM130.216 23.6H132.936V46H130.216V23.6ZM141.736 23.6H145.096L135.4 34.096L145.576 46H142.216L132.104 34.16L141.736 23.6ZM147.039 26.16V23.6H161.279V26.16H155.519V46H152.799V26.16H147.039ZM183.674 26.64L164.154 47.12L164.314 42.96L183.834 22.48L183.674 26.64ZM166.874 23.6V43.6L164.154 47.12V23.6H166.874ZM183.834 22.48V46H181.114V26L183.834 22.48ZM188.966 23.6H191.686V46H188.966V23.6ZM190.47 26.16V23.6H195.046C196.497 23.6 197.788 23.8773 198.918 24.432C200.07 24.9653 200.977 25.7333 201.638 26.736C202.321 27.7387 202.662 28.9333 202.662 30.32C202.662 31.6853 202.321 32.88 201.638 33.904C200.977 34.9067 200.07 35.6853 198.918 36.24C197.788 36.7733 196.497 37.04 195.046 37.04H190.47V34.48H195.046C196.497 34.48 197.67 34.128 198.566 33.424C199.484 32.72 199.942 31.6853 199.942 30.32C199.942 28.9333 199.484 27.8987 198.566 27.216C197.67 26.512 196.497 26.16 195.046 26.16H190.47ZM208.098 34.8C208.098 36.4853 208.46 37.9893 209.186 39.312C209.932 40.6347 210.946 41.68 212.226 42.448C213.506 43.216 214.956 43.6 216.578 43.6C218.22 43.6 219.671 43.216 220.93 42.448C222.21 41.68 223.212 40.6347 223.938 39.312C224.684 37.9893 225.058 36.4853 225.058 34.8C225.058 33.1147 224.684 31.6107 223.938 30.288C223.212 28.9653 222.21 27.92 220.93 27.152C219.671 26.384 218.22 26 216.578 26C214.956 26 213.506 26.384 212.226 27.152C210.946 27.92 209.932 28.9653 209.186 30.288C208.46 31.6107 208.098 33.1147 208.098 34.8ZM205.218 34.8C205.218 33.1573 205.495 31.6427 206.049 30.256C206.626 28.848 207.426 27.632 208.45 26.608C209.474 25.5627 210.679 24.752 212.066 24.176C213.452 23.5787 214.956 23.28 216.578 23.28C218.22 23.28 219.724 23.5787 221.09 24.176C222.476 24.752 223.682 25.5627 224.706 26.608C225.73 27.632 226.519 28.848 227.074 30.256C227.65 31.6427 227.938 33.1573 227.938 34.8C227.938 36.4213 227.65 37.936 227.074 39.344C226.519 40.752 225.73 41.9787 224.706 43.024C223.682 44.048 222.476 44.8587 221.09 45.456C219.724 46.032 218.22 46.32 216.578 46.32C214.956 46.32 213.452 46.032 212.066 45.456C210.679 44.8587 209.474 44.048 208.45 43.024C207.426 41.9787 206.626 40.752 206.049 39.344C205.495 37.936 205.218 36.4213 205.218 34.8ZM233.923 34.16V32.656H237.539C238.285 32.656 238.957 32.528 239.555 32.272C240.152 32.016 240.621 31.6427 240.963 31.152C241.304 30.6613 241.475 30.064 241.475 29.36C241.475 28.2933 241.101 27.472 240.355 26.896C239.608 26.2987 238.669 26 237.539 26H234.499V43.6H237.859C238.819 43.6 239.661 43.4293 240.387 43.088C241.133 42.7467 241.709 42.256 242.115 41.616C242.541 40.976 242.755 40.1973 242.755 39.28C242.755 38.5973 242.637 37.9893 242.403 37.456C242.168 36.9227 241.827 36.4747 241.379 36.112C240.952 35.7493 240.44 35.4827 239.843 35.312C239.245 35.12 238.584 35.024 237.859 35.024H233.923V33.52H237.859C238.947 33.52 239.949 33.6373 240.867 33.872C241.784 34.1067 242.584 34.4693 243.267 34.96C243.971 35.4293 244.515 36.0373 244.899 36.784C245.283 37.5307 245.475 38.416 245.475 39.44C245.475 40.912 245.133 42.1387 244.451 43.12C243.789 44.08 242.883 44.8053 241.731 45.296C240.6 45.7653 239.309 46 237.859 46H231.779V23.6H237.539C238.883 23.6 240.045 23.8027 241.027 24.208C242.029 24.6133 242.808 25.232 243.363 26.064C243.917 26.8747 244.195 27.92 244.195 29.2C244.195 30.2453 243.917 31.1413 243.363 31.888C242.808 32.6347 242.029 33.2 241.027 33.584C240.045 33.968 238.883 34.16 237.539 34.16H233.923ZM251.298 39.28L252.258 36.72H262.178L263.138 39.28H251.298ZM257.154 28.656L253.378 37.552L253.122 38.128L249.794 46H246.754L257.154 22.48L267.554 46H264.514L261.25 38.32L260.994 37.68L257.154 28.656ZM265.789 26.16V23.6H280.029V26.16H274.269V46H271.549V26.16H265.789ZM282.904 23.6H285.624V46H282.904V23.6ZM284.408 35.12V32.56H288.984C290.434 32.56 291.725 32.8373 292.856 33.392C294.008 33.9253 294.914 34.6933 295.576 35.696C296.258 36.6987 296.6 37.8933 296.6 39.28C296.6 40.6453 296.258 41.84 295.576 42.864C294.914 43.8667 294.008 44.6453 292.856 45.2C291.725 45.7333 290.434 46 288.984 46H284.408V43.44H288.984C289.944 43.44 290.786 43.2907 291.512 42.992C292.258 42.672 292.834 42.2027 293.24 41.584C293.666 40.9653 293.88 40.1973 293.88 39.28C293.88 38.3627 293.666 37.5947 293.24 36.976C292.834 36.3573 292.258 35.8987 291.512 35.6C290.786 35.28 289.944 35.12 288.984 35.12H284.408Z" fill="#A25353"/>
</svg>
