<svg width="647" height="332" viewBox="0 0 647 332" fill="none" xmlns="http://www.w3.org/2000/svg">
<path d="M111.14 215.18L201.99 85H218.32V246H190.49V205.52L192.1 202.99V133.53L150.93 193.79H206.82L210.73 191.72H243.62V215.18H111.14ZM287.528 165.5C287.528 174.087 288.372 181.983 290.058 189.19C291.745 196.397 294.122 202.607 297.188 207.82C300.408 213.033 304.242 217.097 308.688 220.01C313.135 222.77 318.042 224.15 323.408 224.15C329.082 224.15 334.065 222.77 338.358 220.01C342.805 217.097 346.562 213.033 349.628 207.82C352.848 202.607 355.302 196.397 356.988 189.19C358.675 181.983 359.518 174.087 359.518 165.5C359.518 156.913 358.675 149.017 356.988 141.81C355.302 134.603 352.848 128.393 349.628 123.18C346.562 117.967 342.805 113.98 338.358 111.22C334.065 108.307 329.082 106.85 323.408 106.85C318.042 106.85 313.135 108.307 308.688 111.22C304.242 113.98 300.408 117.967 297.188 123.18C294.122 128.393 291.745 134.603 290.058 141.81C288.372 149.017 287.528 156.913 287.528 165.5ZM260.848 165.5C260.848 148.787 263.455 134.22 268.668 121.8C274.035 109.38 281.395 99.72 290.748 92.82C300.255 85.92 311.142 82.47 323.408 82.47C335.982 82.47 346.945 85.92 356.298 92.82C365.805 99.72 373.165 109.38 378.378 121.8C383.592 134.22 386.198 148.787 386.198 165.5C386.198 182.213 383.592 196.78 378.378 209.2C373.165 221.62 365.805 231.28 356.298 238.18C346.945 245.08 335.982 248.53 323.408 248.53C311.142 248.53 300.255 245.08 290.748 238.18C281.395 231.28 274.035 221.62 268.668 209.2C263.455 196.78 260.848 182.213 260.848 165.5ZM399.538 215.18L490.388 85H506.718V246H478.888V205.52L480.498 202.99V133.53L439.328 193.79H495.218L499.128 191.72H532.018V215.18H399.538Z" fill="#A25353"/>
<path d="M0.384 285.632V280.4H23.808V285.632H14.928V314H9.216V285.632H0.384ZM25.9823 307.472C25.9823 308.144 26.1583 308.704 26.5103 309.152C26.8943 309.6 27.3903 309.952 27.9983 310.208C28.6063 310.432 29.2943 310.544 30.0623 310.544C31.1823 310.544 32.1903 310.368 33.0863 310.016C33.9823 309.664 34.6863 309.104 35.1983 308.336C35.7103 307.568 35.9663 306.544 35.9663 305.264L36.7343 307.76C36.7343 309.168 36.3663 310.384 35.6303 311.408C34.8943 312.4 33.9023 313.168 32.6543 313.712C31.4063 314.224 30.0143 314.48 28.4783 314.48C27.0383 314.48 25.7263 314.224 24.5423 313.712C23.3903 313.2 22.4623 312.448 21.7583 311.456C21.0863 310.432 20.7503 309.168 20.7503 307.664C20.7503 306.16 21.1343 304.864 21.9023 303.776C22.6703 302.688 23.7583 301.856 25.1663 301.28C26.6063 300.704 28.2863 300.416 30.2063 300.416C31.4863 300.416 32.6223 300.576 33.6143 300.896C34.6383 301.216 35.4863 301.584 36.1583 302C36.8303 302.416 37.2943 302.784 37.5503 303.104V305.84C36.5583 305.104 35.5503 304.576 34.5263 304.256C33.5023 303.904 32.3183 303.728 30.9743 303.728C29.8863 303.728 28.9583 303.888 28.1903 304.208C27.4543 304.496 26.8943 304.928 26.5103 305.504C26.1583 306.048 25.9823 306.704 25.9823 307.472ZM24.8303 297.728L22.7663 294.032C23.7583 293.424 25.0223 292.832 26.5583 292.256C28.0943 291.68 29.8543 291.392 31.8383 291.392C33.6623 291.392 35.2623 291.664 36.6383 292.208C38.0143 292.752 39.0863 293.536 39.8543 294.56C40.6543 295.552 41.0543 296.784 41.0543 298.256V314H35.9663V298.832C35.9663 297.808 35.5343 297.024 34.6703 296.48C33.8383 295.904 32.8143 295.616 31.5983 295.616C30.5423 295.616 29.5663 295.744 28.6703 296C27.7743 296.256 26.9903 296.56 26.3183 296.912C25.6783 297.232 25.1823 297.504 24.8303 297.728ZM46.9481 291.92H52.0361V314H46.9481V291.92ZM60.1481 291.92H66.4841L56.9801 301.04L67.4441 314H61.1561L50.5961 301.04L60.1481 291.92ZM74.1698 307.472C74.1698 308.144 74.3458 308.704 74.6978 309.152C75.0818 309.6 75.5778 309.952 76.1858 310.208C76.7938 310.432 77.4818 310.544 78.2498 310.544C79.3698 310.544 80.3778 310.368 81.2738 310.016C82.1698 309.664 82.8738 309.104 83.3858 308.336C83.8978 307.568 84.1538 306.544 84.1538 305.264L84.9218 307.76C84.9218 309.168 84.5538 310.384 83.8178 311.408C83.0818 312.4 82.0898 313.168 80.8418 313.712C79.5938 314.224 78.2018 314.48 76.6658 314.48C75.2258 314.48 73.9138 314.224 72.7298 313.712C71.5778 313.2 70.6498 312.448 69.9458 311.456C69.2738 310.432 68.9378 309.168 68.9378 307.664C68.9378 306.16 69.3218 304.864 70.0898 303.776C70.8578 302.688 71.9458 301.856 73.3538 301.28C74.7938 300.704 76.4738 300.416 78.3938 300.416C79.6738 300.416 80.8098 300.576 81.8018 300.896C82.8258 301.216 83.6738 301.584 84.3458 302C85.0178 302.416 85.4818 302.784 85.7378 303.104V305.84C84.7458 305.104 83.7378 304.576 82.7138 304.256C81.6898 303.904 80.5058 303.728 79.1618 303.728C78.0738 303.728 77.1458 303.888 76.3778 304.208C75.6418 304.496 75.0818 304.928 74.6978 305.504C74.3458 306.048 74.1698 306.704 74.1698 307.472ZM73.0178 297.728L70.9538 294.032C71.9458 293.424 73.2098 292.832 74.7458 292.256C76.2818 291.68 78.0418 291.392 80.0258 291.392C81.8498 291.392 83.4498 291.664 84.8258 292.208C86.2018 292.752 87.2738 293.536 88.0418 294.56C88.8418 295.552 89.2418 296.784 89.2418 298.256V314H84.1538V298.832C84.1538 297.808 83.7218 297.024 82.8578 296.48C82.0258 295.904 81.0018 295.616 79.7858 295.616C78.7298 295.616 77.7538 295.744 76.8578 296C75.9618 296.256 75.1778 296.56 74.5058 296.912C73.8658 297.232 73.3698 297.504 73.0178 297.728ZM99.8396 314H94.3196L101.904 303.056H107.184L99.8396 314ZM114.192 314H108.96V291.92H114.192V314ZM110.88 301.568V305.504H104.016C102.512 305.504 101.12 305.28 99.8396 304.832C98.5596 304.352 97.5356 303.616 96.7676 302.624C95.9996 301.6 95.6156 300.272 95.6156 298.64C95.6156 297.008 95.9996 295.712 96.7676 294.752C97.5356 293.76 98.5596 293.04 99.8396 292.592C101.12 292.144 102.512 291.92 104.016 291.92H110.88V296.24H104.448C103.648 296.24 102.976 296.336 102.432 296.528C101.888 296.72 101.472 297.008 101.184 297.392C100.896 297.776 100.752 298.272 100.752 298.88C100.752 299.52 100.896 300.032 101.184 300.416C101.472 300.8 101.888 301.088 102.432 301.28C102.976 301.472 103.648 301.568 104.448 301.568H110.88ZM137.549 302.96C137.549 304.368 137.853 305.6 138.461 306.656C139.069 307.68 139.885 308.496 140.909 309.104C141.965 309.712 143.133 310.016 144.413 310.016C145.469 310.016 146.477 309.856 147.437 309.536C148.397 309.216 149.245 308.768 149.981 308.192C150.717 307.616 151.261 306.976 151.613 306.272V311.984C150.845 312.752 149.805 313.36 148.493 313.808C147.181 314.256 145.741 314.48 144.173 314.48C141.901 314.48 139.853 314 138.029 313.04C136.237 312.048 134.813 310.688 133.757 308.96C132.733 307.2 132.221 305.2 132.221 302.96C132.221 300.688 132.733 298.688 133.757 296.96C134.813 295.232 136.237 293.888 138.029 292.928C139.853 291.936 141.901 291.44 144.173 291.44C145.741 291.44 147.181 291.664 148.493 292.112C149.805 292.56 150.845 293.168 151.613 293.936V299.648C151.261 298.912 150.701 298.272 149.933 297.728C149.197 297.152 148.349 296.704 147.389 296.384C146.429 296.064 145.437 295.904 144.413 295.904C143.133 295.904 141.965 296.208 140.909 296.816C139.885 297.424 139.069 298.256 138.461 299.312C137.853 300.368 137.549 301.584 137.549 302.96ZM154.271 291.92H168.239V296.48H154.271V291.92ZM158.735 292.88H163.823V314H158.735V292.88ZM176.821 324.56H171.589V291.92H176.821V324.56ZM195.109 302.96C195.109 305.392 194.613 307.488 193.621 309.248C192.629 310.976 191.317 312.304 189.685 313.232C188.053 314.128 186.277 314.576 184.357 314.576C182.469 314.576 180.821 314.112 179.413 313.184C178.037 312.224 176.965 310.88 176.197 309.152C175.461 307.392 175.093 305.328 175.093 302.96C175.093 300.56 175.461 298.496 176.197 296.768C176.965 295.04 178.037 293.712 179.413 292.784C180.821 291.824 182.469 291.344 184.357 291.344C186.277 291.344 188.053 291.808 189.685 292.736C191.317 293.632 192.629 294.944 193.621 296.672C194.613 298.4 195.109 300.496 195.109 302.96ZM189.733 302.96C189.733 301.488 189.429 300.24 188.821 299.216C188.213 298.16 187.397 297.376 186.373 296.864C185.381 296.32 184.277 296.048 183.061 296.048C182.069 296.048 181.093 296.32 180.133 296.864C179.173 297.376 178.373 298.144 177.733 299.168C177.125 300.192 176.821 301.456 176.821 302.96C176.821 304.464 177.125 305.728 177.733 306.752C178.373 307.776 179.173 308.56 180.133 309.104C181.093 309.616 182.069 309.872 183.061 309.872C184.277 309.872 185.381 309.616 186.373 309.104C187.397 308.56 188.213 307.776 188.821 306.752C189.429 305.696 189.733 304.432 189.733 302.96ZM203.31 307.472C203.31 308.144 203.486 308.704 203.838 309.152C204.222 309.6 204.718 309.952 205.326 310.208C205.934 310.432 206.622 310.544 207.39 310.544C208.51 310.544 209.518 310.368 210.414 310.016C211.31 309.664 212.014 309.104 212.526 308.336C213.038 307.568 213.294 306.544 213.294 305.264L214.062 307.76C214.062 309.168 213.694 310.384 212.958 311.408C212.222 312.4 211.23 313.168 209.982 313.712C208.734 314.224 207.342 314.48 205.806 314.48C204.366 314.48 203.054 314.224 201.87 313.712C200.718 313.2 199.79 312.448 199.086 311.456C198.414 310.432 198.078 309.168 198.078 307.664C198.078 306.16 198.462 304.864 199.23 303.776C199.998 302.688 201.086 301.856 202.494 301.28C203.934 300.704 205.614 300.416 207.534 300.416C208.814 300.416 209.95 300.576 210.942 300.896C211.966 301.216 212.814 301.584 213.486 302C214.158 302.416 214.622 302.784 214.878 303.104V305.84C213.886 305.104 212.878 304.576 211.854 304.256C210.83 303.904 209.646 303.728 208.302 303.728C207.214 303.728 206.286 303.888 205.518 304.208C204.782 304.496 204.222 304.928 203.838 305.504C203.486 306.048 203.31 306.704 203.31 307.472ZM202.158 297.728L200.094 294.032C201.086 293.424 202.35 292.832 203.886 292.256C205.422 291.68 207.182 291.392 209.166 291.392C210.99 291.392 212.59 291.664 213.966 292.208C215.342 292.752 216.414 293.536 217.182 294.56C217.982 295.552 218.382 296.784 218.382 298.256V314H213.294V298.832C213.294 297.808 212.862 297.024 211.998 296.48C211.166 295.904 210.142 295.616 208.926 295.616C207.87 295.616 206.894 295.744 205.998 296C205.102 296.256 204.318 296.56 203.646 296.912C203.006 297.232 202.51 297.504 202.158 297.728ZM226.724 304.496V300.224H243.62V304.496H226.724ZM240.836 291.92H245.924V314H240.836V291.92ZM224.468 291.92H229.556V314H224.468V291.92ZM272.562 296.72L252.738 315.68L252.978 309.2L272.802 290.24L272.562 296.72ZM257.826 291.92V309.824L252.738 315.68V291.92H257.826ZM272.802 290.24V314H267.714V296.096L272.802 290.24ZM299.32 309.44H303.16V318.56H298.408V314H279.64V291.92H284.824V309.44H294.088V291.92H299.32V309.44ZM311.076 307.472C311.076 308.144 311.252 308.704 311.604 309.152C311.988 309.6 312.484 309.952 313.092 310.208C313.7 310.432 314.388 310.544 315.156 310.544C316.276 310.544 317.284 310.368 318.18 310.016C319.076 309.664 319.78 309.104 320.292 308.336C320.804 307.568 321.06 306.544 321.06 305.264L321.828 307.76C321.828 309.168 321.46 310.384 320.724 311.408C319.988 312.4 318.996 313.168 317.748 313.712C316.5 314.224 315.108 314.48 313.572 314.48C312.132 314.48 310.82 314.224 309.636 313.712C308.484 313.2 307.556 312.448 306.852 311.456C306.18 310.432 305.844 309.168 305.844 307.664C305.844 306.16 306.228 304.864 306.996 303.776C307.764 302.688 308.852 301.856 310.26 301.28C311.7 300.704 313.38 300.416 315.3 300.416C316.58 300.416 317.716 300.576 318.708 300.896C319.732 301.216 320.58 301.584 321.252 302C321.924 302.416 322.388 302.784 322.644 303.104V305.84C321.652 305.104 320.644 304.576 319.62 304.256C318.596 303.904 317.412 303.728 316.068 303.728C314.98 303.728 314.052 303.888 313.284 304.208C312.548 304.496 311.988 304.928 311.604 305.504C311.252 306.048 311.076 306.704 311.076 307.472ZM309.924 297.728L307.86 294.032C308.852 293.424 310.116 292.832 311.652 292.256C313.188 291.68 314.948 291.392 316.932 291.392C318.756 291.392 320.356 291.664 321.732 292.208C323.108 292.752 324.18 293.536 324.948 294.56C325.748 295.552 326.148 296.784 326.148 298.256V314H321.06V298.832C321.06 297.808 320.628 297.024 319.764 296.48C318.932 295.904 317.908 295.616 316.692 295.616C315.636 295.616 314.66 295.744 313.764 296C312.868 296.256 312.084 296.56 311.412 296.912C310.772 297.232 310.276 297.504 309.924 297.728ZM348.881 304.496V300.224H365.777V304.496H348.881ZM362.993 291.92H368.081V314H362.993V291.92ZM346.625 291.92H351.713V314H346.625V291.92ZM376.095 304.16V300.608H389.967C389.839 299.552 389.551 298.64 389.103 297.872C388.687 297.072 388.095 296.464 387.327 296.048C386.559 295.6 385.615 295.376 384.495 295.376C383.343 295.376 382.303 295.632 381.375 296.144C380.447 296.624 379.711 297.344 379.167 298.304C378.623 299.232 378.351 300.336 378.351 301.616L378.255 302.96C378.255 304.592 378.511 305.952 379.023 307.04C379.567 308.096 380.303 308.896 381.231 309.44C382.191 309.952 383.295 310.208 384.543 310.208C385.567 310.208 386.463 310.064 387.231 309.776C388.031 309.488 388.735 309.088 389.343 308.576C389.951 308.032 390.463 307.408 390.879 306.704L395.343 308.528C394.607 309.712 393.759 310.752 392.799 311.648C391.871 312.544 390.719 313.248 389.343 313.76C387.999 314.24 386.319 314.48 384.303 314.48C382.031 314.48 380.047 313.984 378.351 312.992C376.655 312 375.343 310.64 374.415 308.912C373.487 307.152 373.023 305.168 373.023 302.96C373.023 302.544 373.039 302.144 373.071 301.76C373.103 301.376 373.151 300.992 373.215 300.608C373.535 298.784 374.175 297.184 375.135 295.808C376.127 294.432 377.423 293.36 379.023 292.592C380.623 291.824 382.463 291.44 384.543 291.44C386.815 291.44 388.767 291.904 390.399 292.832C392.063 293.728 393.343 295.024 394.239 296.72C395.135 298.384 395.583 300.384 395.583 302.72C395.583 302.912 395.583 303.136 395.583 303.392C395.583 303.616 395.551 303.872 395.487 304.16H376.095ZM417.224 304.496V300.224H434.12V304.496H417.224ZM431.336 291.92H436.424V314H431.336V291.92ZM414.968 291.92H420.056V314H414.968V291.92ZM446.31 307.472C446.31 308.144 446.486 308.704 446.838 309.152C447.222 309.6 447.718 309.952 448.326 310.208C448.934 310.432 449.622 310.544 450.39 310.544C451.51 310.544 452.518 310.368 453.414 310.016C454.31 309.664 455.014 309.104 455.526 308.336C456.038 307.568 456.294 306.544 456.294 305.264L457.062 307.76C457.062 309.168 456.694 310.384 455.958 311.408C455.222 312.4 454.23 313.168 452.982 313.712C451.734 314.224 450.342 314.48 448.806 314.48C447.366 314.48 446.054 314.224 444.87 313.712C443.718 313.2 442.79 312.448 442.086 311.456C441.414 310.432 441.078 309.168 441.078 307.664C441.078 306.16 441.462 304.864 442.23 303.776C442.998 302.688 444.086 301.856 445.494 301.28C446.934 300.704 448.614 300.416 450.534 300.416C451.814 300.416 452.95 300.576 453.942 300.896C454.966 301.216 455.814 301.584 456.486 302C457.158 302.416 457.622 302.784 457.878 303.104V305.84C456.886 305.104 455.878 304.576 454.854 304.256C453.83 303.904 452.646 303.728 451.302 303.728C450.214 303.728 449.286 303.888 448.518 304.208C447.782 304.496 447.222 304.928 446.838 305.504C446.486 306.048 446.31 306.704 446.31 307.472ZM445.158 297.728L443.094 294.032C444.086 293.424 445.35 292.832 446.886 292.256C448.422 291.68 450.182 291.392 452.166 291.392C453.99 291.392 455.59 291.664 456.966 292.208C458.342 292.752 459.414 293.536 460.182 294.56C460.982 295.552 461.382 296.784 461.382 298.256V314H456.294V298.832C456.294 297.808 455.862 297.024 454.998 296.48C454.166 295.904 453.142 295.616 451.926 295.616C450.87 295.616 449.894 295.744 448.998 296C448.102 296.256 447.318 296.56 446.646 296.912C446.006 297.232 445.51 297.504 445.158 297.728ZM487.484 296.72L467.66 315.68L467.9 309.2L487.724 290.24L487.484 296.72ZM472.748 291.92V309.824L467.66 315.68V291.92H472.748ZM487.724 290.24V314H482.636V296.096L487.724 290.24ZM470.204 280.64H474.14C474.14 281.12 474.252 281.616 474.476 282.128C474.732 282.64 475.132 283.072 475.676 283.424C476.22 283.776 476.956 283.952 477.884 283.952C478.812 283.952 479.548 283.776 480.092 283.424C480.636 283.072 481.02 282.64 481.244 282.128C481.5 281.616 481.628 281.12 481.628 280.64H485.612C485.612 281.792 485.308 282.896 484.7 283.952C484.124 285.008 483.26 285.856 482.108 286.496C480.988 287.136 479.58 287.456 477.884 287.456C476.22 287.456 474.812 287.136 473.66 286.496C472.508 285.856 471.644 285.008 471.068 283.952C470.492 282.896 470.204 281.792 470.204 280.64ZM507.33 299.36L501.33 312.56L495.954 311.984L507.33 290.24L518.706 311.984L513.33 312.56L507.33 299.36ZM516.45 314H498.45V318.32H493.17V309.584H521.49V318.32H516.45V314ZM528.345 304.16V300.608H542.217C542.089 299.552 541.801 298.64 541.353 297.872C540.937 297.072 540.345 296.464 539.577 296.048C538.809 295.6 537.865 295.376 536.745 295.376C535.593 295.376 534.553 295.632 533.625 296.144C532.697 296.624 531.961 297.344 531.417 298.304C530.873 299.232 530.601 300.336 530.601 301.616L530.505 302.96C530.505 304.592 530.761 305.952 531.273 307.04C531.817 308.096 532.553 308.896 533.481 309.44C534.441 309.952 535.545 310.208 536.793 310.208C537.817 310.208 538.713 310.064 539.481 309.776C540.281 309.488 540.985 309.088 541.593 308.576C542.201 308.032 542.713 307.408 543.129 306.704L547.593 308.528C546.857 309.712 546.009 310.752 545.049 311.648C544.121 312.544 542.969 313.248 541.593 313.76C540.249 314.24 538.569 314.48 536.553 314.48C534.281 314.48 532.297 313.984 530.601 312.992C528.905 312 527.593 310.64 526.665 308.912C525.737 307.152 525.273 305.168 525.273 302.96C525.273 302.544 525.289 302.144 525.321 301.76C525.353 301.376 525.401 300.992 525.465 300.608C525.785 298.784 526.425 297.184 527.385 295.808C528.377 294.432 529.673 293.36 531.273 292.592C532.873 291.824 534.713 291.44 536.793 291.44C539.065 291.44 541.017 291.904 542.649 292.832C544.313 293.728 545.593 295.024 546.489 296.72C547.385 298.384 547.833 300.384 547.833 302.72C547.833 302.912 547.833 303.136 547.833 303.392C547.833 303.616 547.801 303.872 547.737 304.16H528.345ZM555.084 304.496V300.224H571.98V304.496H555.084ZM569.196 291.92H574.284V314H569.196V291.92ZM552.828 291.92H557.916V314H552.828V291.92ZM584.17 307.472C584.17 308.144 584.346 308.704 584.698 309.152C585.082 309.6 585.578 309.952 586.186 310.208C586.794 310.432 587.482 310.544 588.25 310.544C589.37 310.544 590.378 310.368 591.274 310.016C592.17 309.664 592.874 309.104 593.386 308.336C593.898 307.568 594.154 306.544 594.154 305.264L594.922 307.76C594.922 309.168 594.554 310.384 593.818 311.408C593.082 312.4 592.09 313.168 590.842 313.712C589.594 314.224 588.202 314.48 586.666 314.48C585.226 314.48 583.914 314.224 582.73 313.712C581.578 313.2 580.65 312.448 579.946 311.456C579.274 310.432 578.938 309.168 578.938 307.664C578.938 306.16 579.322 304.864 580.09 303.776C580.858 302.688 581.946 301.856 583.354 301.28C584.794 300.704 586.474 300.416 588.394 300.416C589.674 300.416 590.81 300.576 591.802 300.896C592.826 301.216 593.674 301.584 594.346 302C595.018 302.416 595.482 302.784 595.738 303.104V305.84C594.746 305.104 593.738 304.576 592.714 304.256C591.69 303.904 590.506 303.728 589.162 303.728C588.074 303.728 587.146 303.888 586.378 304.208C585.642 304.496 585.082 304.928 584.698 305.504C584.346 306.048 584.17 306.704 584.17 307.472ZM583.018 297.728L580.954 294.032C581.946 293.424 583.21 292.832 584.746 292.256C586.282 291.68 588.042 291.392 590.026 291.392C591.85 291.392 593.45 291.664 594.826 292.208C596.202 292.752 597.274 293.536 598.042 294.56C598.842 295.552 599.242 296.784 599.242 298.256V314H594.154V298.832C594.154 297.808 593.722 297.024 592.858 296.48C592.026 295.904 591.002 295.616 589.786 295.616C588.73 295.616 587.754 295.744 586.858 296C585.962 296.256 585.178 296.56 584.506 296.912C583.866 297.232 583.37 297.504 583.018 297.728ZM620.438 311.552C620.438 310.624 620.758 309.84 621.398 309.2C622.07 308.528 622.87 308.192 623.798 308.192C624.79 308.192 625.606 308.528 626.246 309.2C626.886 309.84 627.206 310.624 627.206 311.552C627.206 312.448 626.886 313.232 626.246 313.904C625.606 314.576 624.79 314.912 623.798 314.912C622.87 314.912 622.07 314.576 621.398 313.904C620.758 313.232 620.438 312.448 620.438 311.552ZM620.438 293.408C620.438 292.48 620.758 291.696 621.398 291.056C622.07 290.384 622.87 290.048 623.798 290.048C624.79 290.048 625.606 290.384 626.246 291.056C626.886 291.696 627.206 292.48 627.206 293.408C627.206 294.336 626.886 295.136 626.246 295.808C625.606 296.448 624.79 296.768 623.798 296.768C622.87 296.768 622.07 296.448 621.398 295.808C620.758 295.136 620.438 294.336 620.438 293.408ZM640.771 276.56H645.571C643.907 280.144 642.659 283.936 641.827 287.936C640.995 291.936 640.579 295.984 640.579 300.08C640.579 304.144 640.995 308.176 641.827 312.176C642.659 316.176 643.907 319.984 645.571 323.6H640.771C638.851 319.984 637.427 316.176 636.499 312.176C635.571 308.176 635.107 304.144 635.107 300.08C635.107 295.984 635.571 291.936 636.499 287.936C637.427 283.936 638.851 280.144 640.771 276.56Z" fill="#A25353"/>
</svg>
