<svg width="170" height="70" viewBox="0 0 170 70" fill="none" xmlns="http://www.w3.org/2000/svg">
<rect x="3.5" y="3.5" width="163" height="63" rx="31.5" stroke="#A25353" stroke-width="7"/>
<path d="M29.16 34.8C29.16 36.4853 29.5227 37.9893 30.248 39.312C30.9947 40.6347 32.008 41.68 33.288 42.448C34.568 43.216 36.0187 43.6 37.64 43.6C39.2827 43.6 40.7333 43.216 41.992 42.448C43.272 41.68 44.2747 40.6347 45 39.312C45.7467 37.9893 46.12 36.4853 46.12 34.8C46.12 33.1147 45.7467 31.6107 45 30.288C44.2747 28.9653 43.272 27.92 41.992 27.152C40.7333 26.384 39.2827 26 37.64 26C36.0187 26 34.568 26.384 33.288 27.152C32.008 27.92 30.9947 28.9653 30.248 30.288C29.5227 31.6107 29.16 33.1147 29.16 34.8ZM26.28 34.8C26.28 33.1573 26.5573 31.6427 27.112 30.256C27.688 28.848 28.488 27.632 29.512 26.608C30.536 25.5627 31.7413 24.752 33.128 24.176C34.5147 23.5787 36.0187 23.28 37.64 23.28C39.2827 23.28 40.7867 23.5787 42.152 24.176C43.5387 24.752 44.744 25.5627 45.768 26.608C46.792 27.632 47.5813 28.848 48.136 30.256C48.712 31.6427 49 33.1573 49 34.8C49 36.4213 48.712 37.936 48.136 39.344C47.5813 40.752 46.792 41.9787 45.768 43.024C44.744 44.048 43.5387 44.8587 42.152 45.456C40.7867 46.032 39.2827 46.32 37.64 46.32C36.0187 46.32 34.5147 46.032 33.128 45.456C31.7413 44.8587 30.536 44.048 29.512 43.024C28.488 41.9787 27.688 40.752 27.112 39.344C26.5573 37.936 26.28 36.4213 26.28 34.8ZM64.6813 43.6H67.2413V48.88H65.0013V46H52.6813V31.28H55.2413V43.6H62.1213V31.28H64.6813V43.6ZM71.127 39.28V37.104H80.951C80.8657 36.336 80.6523 35.664 80.311 35.088C79.991 34.4907 79.5323 34.032 78.935 33.712C78.359 33.3707 77.6443 33.2 76.791 33.2C75.9377 33.2 75.159 33.3813 74.455 33.744C73.751 34.1067 73.1857 34.6293 72.759 35.312C72.3537 35.9733 72.151 36.7627 72.151 37.68L72.087 38.64C72.087 39.7707 72.279 40.7307 72.663 41.52C73.047 42.3093 73.591 42.9067 74.295 43.312C74.999 43.7173 75.831 43.92 76.791 43.92C77.5163 43.92 78.1563 43.8133 78.711 43.6C79.287 43.3653 79.799 43.056 80.247 42.672C80.695 42.2667 81.079 41.7973 81.399 41.264L83.479 42.576C82.9883 43.3227 82.4443 43.984 81.847 44.56C81.2497 45.1147 80.5243 45.552 79.671 45.872C78.8177 46.1707 77.751 46.32 76.471 46.32C75.1483 46.32 73.9537 45.9893 72.887 45.328C71.8417 44.6667 71.0097 43.76 70.391 42.608C69.7937 41.4347 69.495 40.112 69.495 38.64C69.495 38.3627 69.5057 38.096 69.527 37.84C69.5483 37.584 69.5803 37.328 69.623 37.072C69.8363 35.856 70.263 34.7893 70.903 33.872C71.543 32.9547 72.3643 32.24 73.367 31.728C74.391 31.216 75.5323 30.96 76.791 30.96C78.1777 30.96 79.3937 31.2693 80.439 31.888C81.4843 32.5067 82.295 33.3813 82.871 34.512C83.447 35.6213 83.735 36.9547 83.735 38.512C83.735 38.64 83.735 38.768 83.735 38.896C83.735 39.024 83.7243 39.152 83.703 39.28H71.127ZM88.7478 39.44V37.04H99.6278V39.44H88.7478ZM97.9638 31.28H100.524V46H97.9638V31.28ZM87.2438 31.28H89.8038V46H87.2438V31.28ZM117.658 33.84L105.498 47.12L105.658 43.44L117.818 30.16L117.658 33.84ZM108.058 31.28V43.6L105.498 47.12V31.28H108.058ZM117.818 30.16V46H115.258V33.68L117.818 30.16ZM120.535 31.28H129.175V33.68H120.535V31.28ZM123.575 31.92H126.135V46H123.575V31.92ZM131.744 31.28H134.304V46H131.744V31.28ZM133.248 39.088V36.848H137.824C139.338 36.848 140.608 37.2213 141.632 37.968C142.677 38.6933 143.2 39.8453 143.2 41.424C143.2 42.4693 142.965 43.3333 142.496 44.016C142.026 44.6987 141.386 45.2 140.576 45.52C139.765 45.84 138.848 46 137.824 46H133.248V43.76H137.824C138.442 43.76 138.954 43.6747 139.36 43.504C139.786 43.312 140.106 43.0453 140.32 42.704C140.533 42.3413 140.64 41.9147 140.64 41.424C140.64 40.6773 140.405 40.1013 139.936 39.696C139.466 39.2907 138.762 39.088 137.824 39.088H133.248Z" fill="#A25353"/>
</svg>
