<svg width="50" height="50" viewBox="0 0 50 50" fill="none" xmlns="http://www.w3.org/2000/svg">
<rect width="50" height="50" fill="white"/>
<path fill-rule="evenodd" clip-rule="evenodd" d="M13 16H36.4348V25.6143L29.2239 24.6655V29.5205L30.6024 32.7367C31.3088 33.5992 31.6774 35.4492 30.9858 37.511C29.8589 40.8707 30.6869 41.3096 31.5164 41.0199L31.5857 40.9956C31.8982 40.8858 32.2146 40.7747 32.5451 40.7747H32.8113C33.157 40.7747 33.4865 40.9214 33.7178 41.1783C33.9195 41.4023 34.0358 41.7088 33.8627 41.9556C33.4764 42.5064 32.3951 43.1926 30.3092 43.0097C27.6023 42.7724 27.9407 39.4494 28.1788 37.511L28.2516 35.6875L27.4213 34.0269L26.139 32.7446C25.9644 36.6848 25.8151 42.1735 26.2216 41.75C26.8099 41.137 27.9866 42.0566 27.1041 42.9761C26.476 43.6305 25.7371 43.6467 25.0175 43.6332L25.0175 43.6412C24.9379 43.6412 24.8493 43.6372 24.7539 43.628L24.7508 43.6279V43.6277C24.2067 43.5746 23.4464 43.3522 22.902 42.7398C22.1008 41.8385 23.1691 40.9372 23.7032 41.5381C24.0623 41.942 23.9436 36.858 23.7909 33.0254L22.9146 34.0269L21.7621 36.3318L21.802 37.4715C22.0135 39.4345 22.3139 42.7995 19.9103 43.0398C17.9995 43.2309 17.0382 42.4852 16.7243 41.9199C16.597 41.6906 16.6938 41.4257 16.8563 41.2199C17.0773 40.9399 17.4145 40.7765 17.7713 40.7765H17.9184C18.2261 40.7765 18.517 40.8945 18.8025 41.0103L18.8308 41.0218C19.5699 41.3212 20.3136 40.8854 19.3095 37.4715C18.6575 35.2548 19.0667 33.2798 19.7694 32.4868L20.511 29.5203L20.7431 24.6464L13 25.6143V16Z" fill="#572E17"/>
</svg>
