<svg width="330" height="100" viewBox="0 0 330 100" fill="none" xmlns="http://www.w3.org/2000/svg">
<path d="M38.416 53.32H43.088C44.112 53.32 45.0293 53.4267 45.84 53.64C46.6507 53.8533 47.2907 54.2267 47.76 54.76C48.2293 55.2933 48.464 56.04 48.464 57C48.464 58.1093 48.0907 59.0587 47.344 59.848C46.6187 60.616 45.4133 61 43.728 61H38.416V58.44H42.672C43.5253 58.44 44.144 58.2587 44.528 57.896C44.912 57.5333 45.104 57.1067 45.104 56.616C45.104 56.36 45.0507 56.1253 44.944 55.912C44.8373 55.6987 44.688 55.5067 44.496 55.336C44.3253 55.1653 44.08 55.0373 43.76 54.952C43.4613 54.8667 43.0987 54.824 42.672 54.824H38.416V53.32ZM38.416 53.96V52.296H42.352C42.672 52.296 42.96 52.2533 43.216 52.168C43.4933 52.0827 43.7173 51.9547 43.888 51.784C44.0587 51.6133 44.1973 51.4213 44.304 51.208C44.4107 50.9947 44.464 50.7707 44.464 50.536C44.464 50.0453 44.272 49.64 43.888 49.32C43.5253 49 43.0133 48.84 42.352 48.84H38.416V46.28H42.768C43.6853 46.28 44.5173 46.4187 45.264 46.696C46.032 46.952 46.6507 47.3787 47.12 47.976C47.5893 48.552 47.824 49.32 47.824 50.28C47.824 51.112 47.5893 51.8053 47.12 52.36C46.6507 52.8933 46.032 53.2987 45.264 53.576C44.5173 53.832 43.6853 53.96 42.768 53.96H38.416ZM36.4 46.28H39.792V61H36.4V46.28ZM60.1255 46.28H63.9975L58.7175 53.416L64.3175 61H60.4455L56.8935 55.944L53.4055 61H49.4375L55.0695 53.416L49.7575 46.28H53.7255L56.8935 50.888L60.1255 46.28ZM64.9318 53.64C64.9318 52.1253 65.2731 50.792 65.9557 49.64C66.6598 48.488 67.6091 47.592 68.8038 46.952C69.9984 46.2907 71.3531 45.96 72.8678 45.96C74.3824 45.96 75.7264 46.2907 76.8998 46.952C78.0944 47.592 79.0438 48.488 79.7478 49.64C80.4518 50.792 80.8038 52.1253 80.8038 53.64C80.8038 55.1333 80.4518 56.4667 79.7478 57.64C79.0438 58.792 78.0944 59.6987 76.8998 60.36C75.7264 61 74.3824 61.32 72.8678 61.32C71.3531 61.32 69.9984 61 68.8038 60.36C67.6091 59.6987 66.6598 58.792 65.9557 57.64C65.2731 56.4667 64.9318 55.1333 64.9318 53.64ZM68.4838 53.64C68.4838 54.5573 68.6758 55.368 69.0598 56.072C69.4438 56.7547 69.9664 57.2987 70.6278 57.704C71.2891 58.088 72.0358 58.28 72.8678 58.28C73.6784 58.28 74.4144 58.088 75.0758 57.704C75.7584 57.2987 76.2918 56.7547 76.6758 56.072C77.0598 55.368 77.2518 54.5573 77.2518 53.64C77.2518 52.7227 77.0598 51.912 76.6758 51.208C76.2918 50.504 75.7584 49.96 75.0758 49.576C74.4144 49.192 73.6784 49 72.8678 49C72.0358 49 71.2891 49.192 70.6278 49.576C69.9664 49.96 69.4438 50.504 69.0598 51.208C68.6758 51.912 68.4838 52.7227 68.4838 53.64ZM91.0013 51.24L87.0013 60.04L83.4173 59.656L91.0013 45.16L98.5853 59.656L95.0013 60.04L91.0013 51.24ZM97.0813 61H85.0813V63.88H81.5613V58.056H100.441V63.88H97.0813V61ZM115.667 38.6H119.059L105.843 65.8H102.355L115.667 38.6ZM122.849 68.04H119.361V46.28H122.849V68.04ZM135.041 53.64C135.041 55.2613 134.711 56.6587 134.049 57.832C133.388 58.984 132.513 59.8693 131.425 60.488C130.337 61.0853 129.153 61.384 127.873 61.384C126.615 61.384 125.516 61.0747 124.577 60.456C123.66 59.816 122.945 58.92 122.433 57.768C121.943 56.5947 121.697 55.2187 121.697 53.64C121.697 52.04 121.943 50.664 122.433 49.512C122.945 48.36 123.66 47.4747 124.577 46.856C125.516 46.216 126.615 45.896 127.873 45.896C129.153 45.896 130.337 46.2053 131.425 46.824C132.513 47.4213 133.388 48.296 134.049 49.448C134.711 50.6 135.041 51.9973 135.041 53.64ZM131.457 53.64C131.457 52.6587 131.255 51.8267 130.849 51.144C130.444 50.44 129.9 49.9173 129.217 49.576C128.556 49.2133 127.82 49.032 127.009 49.032C126.348 49.032 125.697 49.2133 125.057 49.576C124.417 49.9173 123.884 50.4293 123.457 51.112C123.052 51.7947 122.849 52.6373 122.849 53.64C122.849 54.6427 123.052 55.4853 123.457 56.168C123.884 56.8507 124.417 57.3733 125.057 57.736C125.697 58.0773 126.348 58.248 127.009 58.248C127.82 58.248 128.556 58.0773 129.217 57.736C129.9 57.3733 130.444 56.8507 130.849 56.168C131.255 55.464 131.457 54.6213 131.457 53.64ZM139.261 54.44V52.072H148.509C148.424 51.368 148.232 50.76 147.933 50.248C147.656 49.7147 147.261 49.3093 146.749 49.032C146.237 48.7333 145.608 48.584 144.861 48.584C144.093 48.584 143.4 48.7547 142.781 49.096C142.162 49.416 141.672 49.896 141.309 50.536C140.946 51.1547 140.765 51.8907 140.765 52.744L140.701 53.64C140.701 54.728 140.872 55.6347 141.213 56.36C141.576 57.064 142.066 57.5973 142.685 57.96C143.325 58.3013 144.061 58.472 144.893 58.472C145.576 58.472 146.173 58.376 146.685 58.184C147.218 57.992 147.688 57.7253 148.093 57.384C148.498 57.0213 148.84 56.6053 149.117 56.136L152.093 57.352C151.602 58.1413 151.037 58.8347 150.397 59.432C149.778 60.0293 149.01 60.4987 148.093 60.84C147.197 61.16 146.077 61.32 144.733 61.32C143.218 61.32 141.896 60.9893 140.765 60.328C139.634 59.6667 138.76 58.76 138.141 57.608C137.522 56.4347 137.213 55.112 137.213 53.64C137.213 53.3627 137.224 53.096 137.245 52.84C137.266 52.584 137.298 52.328 137.341 52.072C137.554 50.856 137.981 49.7893 138.621 48.872C139.282 47.9547 140.146 47.24 141.213 46.728C142.28 46.216 143.506 45.96 144.893 45.96C146.408 45.96 147.709 46.2693 148.797 46.888C149.906 47.4853 150.76 48.3493 151.357 49.48C151.954 50.5893 152.253 51.9227 152.253 53.48C152.253 53.608 152.253 53.7573 152.253 53.928C152.253 54.0773 152.232 54.248 152.189 54.44H139.261ZM155.711 46.28H164.159V49.32H159.135V61H155.711V46.28ZM179.833 49.48L166.617 62.12L166.777 57.8L179.993 45.16L179.833 49.48ZM170.009 46.28V58.216L166.617 62.12V46.28H170.009ZM179.993 45.16V61H176.601V49.064L179.993 45.16ZM186.856 53.64C186.856 54.5787 187.058 55.4 187.464 56.104C187.869 56.7867 188.413 57.3307 189.096 57.736C189.8 58.1413 190.578 58.344 191.432 58.344C192.136 58.344 192.808 58.2373 193.448 58.024C194.088 57.8107 194.653 57.512 195.144 57.128C195.634 56.744 195.997 56.3173 196.232 55.848V59.656C195.72 60.168 195.026 60.5733 194.152 60.872C193.277 61.1707 192.317 61.32 191.272 61.32C189.757 61.32 188.392 61 187.176 60.36C185.981 59.6987 185.032 58.792 184.328 57.64C183.645 56.4667 183.304 55.1333 183.304 53.64C183.304 52.1253 183.645 50.792 184.328 49.64C185.032 48.488 185.981 47.592 187.176 46.952C188.392 46.2907 189.757 45.96 191.272 45.96C192.317 45.96 193.277 46.1093 194.152 46.408C195.026 46.7067 195.72 47.112 196.232 47.624V51.432C195.997 50.9413 195.624 50.5147 195.112 50.152C194.621 49.768 194.056 49.4693 193.416 49.256C192.776 49.0427 192.114 48.936 191.432 48.936C190.578 48.936 189.8 49.1387 189.096 49.544C188.413 49.9493 187.869 50.504 187.464 51.208C187.058 51.912 186.856 52.7227 186.856 53.64ZM198.004 46.28H207.316V49.32H198.004V46.28ZM200.98 46.92H204.372V61H200.98V46.92ZM213.037 68.04H209.549V46.28H213.037V68.04ZM225.229 53.64C225.229 55.2613 224.898 56.6587 224.237 57.832C223.575 58.984 222.701 59.8693 221.613 60.488C220.525 61.0853 219.341 61.384 218.061 61.384C216.802 61.384 215.703 61.0747 214.765 60.456C213.847 59.816 213.133 58.92 212.621 57.768C212.13 56.5947 211.885 55.2187 211.885 53.64C211.885 52.04 212.13 50.664 212.621 49.512C213.133 48.36 213.847 47.4747 214.765 46.856C215.703 46.216 216.802 45.896 218.061 45.896C219.341 45.896 220.525 46.2053 221.613 46.824C222.701 47.4213 223.575 48.296 224.237 49.448C224.898 50.6 225.229 51.9973 225.229 53.64ZM221.645 53.64C221.645 52.6587 221.442 51.8267 221.037 51.144C220.631 50.44 220.087 49.9173 219.405 49.576C218.743 49.2133 218.007 49.032 217.197 49.032C216.535 49.032 215.885 49.2133 215.245 49.576C214.605 49.9173 214.071 50.4293 213.645 51.112C213.239 51.7947 213.037 52.6373 213.037 53.64C213.037 54.6427 213.239 55.4853 213.645 56.168C214.071 56.8507 214.605 57.3733 215.245 57.736C215.885 58.0773 216.535 58.248 217.197 58.248C218.007 58.248 218.743 58.0773 219.405 57.736C220.087 57.3733 220.631 56.8507 221.037 56.168C221.442 55.464 221.645 54.6213 221.645 53.64ZM230.697 56.648C230.697 57.096 230.814 57.4693 231.049 57.768C231.305 58.0667 231.635 58.3013 232.041 58.472C232.446 58.6213 232.905 58.696 233.417 58.696C234.163 58.696 234.835 58.5787 235.433 58.344C236.03 58.1093 236.499 57.736 236.841 57.224C237.182 56.712 237.353 56.0293 237.353 55.176L237.865 56.84C237.865 57.7787 237.619 58.5893 237.129 59.272C236.638 59.9333 235.977 60.4453 235.145 60.808C234.313 61.1493 233.385 61.32 232.361 61.32C231.401 61.32 230.526 61.1493 229.737 60.808C228.969 60.4667 228.35 59.9653 227.881 59.304C227.433 58.6213 227.209 57.7787 227.209 56.776C227.209 55.7733 227.465 54.9093 227.977 54.184C228.489 53.4587 229.214 52.904 230.153 52.52C231.113 52.136 232.233 51.944 233.513 51.944C234.366 51.944 235.123 52.0507 235.785 52.264C236.467 52.4773 237.033 52.7227 237.481 53C237.929 53.2773 238.238 53.5227 238.409 53.736V55.56C237.747 55.0693 237.075 54.7173 236.393 54.504C235.71 54.2693 234.921 54.152 234.025 54.152C233.299 54.152 232.681 54.2587 232.169 54.472C231.678 54.664 231.305 54.952 231.049 55.336C230.814 55.6987 230.697 56.136 230.697 56.648ZM229.929 50.152L228.553 47.688C229.214 47.2827 230.057 46.888 231.081 46.504C232.105 46.12 233.278 45.928 234.601 45.928C235.817 45.928 236.883 46.1093 237.801 46.472C238.718 46.8347 239.433 47.3573 239.945 48.04C240.478 48.7013 240.745 49.5227 240.745 50.504V61H237.353V50.888C237.353 50.2053 237.065 49.6827 236.489 49.32C235.934 48.936 235.251 48.744 234.441 48.744C233.737 48.744 233.086 48.8293 232.489 49C231.891 49.1707 231.369 49.3733 230.921 49.608C230.494 49.8213 230.163 50.0027 229.929 50.152ZM257.922 57.96H260.482V64.04H257.314V61H244.802V46.28H248.258V57.96H254.434V46.28H257.922V57.96ZM276.927 49.48L263.711 62.12L263.871 57.8L277.087 45.16L276.927 49.48ZM267.103 46.28V58.216L263.711 62.12V46.28H267.103ZM277.087 45.16V61H273.695V49.064L277.087 45.16ZM284.654 61H280.974L286.03 53.704H289.55L284.654 61ZM294.222 61H290.734V46.28H294.222V61ZM292.014 52.712V55.336H287.438C286.435 55.336 285.507 55.1867 284.654 54.888C283.8 54.568 283.118 54.0773 282.606 53.416C282.094 52.7333 281.838 51.848 281.838 50.76C281.838 49.672 282.094 48.808 282.606 48.168C283.118 47.5067 283.8 47.0267 284.654 46.728C285.507 46.4293 286.435 46.28 287.438 46.28H292.014V49.16H287.726C287.192 49.16 286.744 49.224 286.382 49.352C286.019 49.48 285.742 49.672 285.55 49.928C285.358 50.184 285.262 50.5147 285.262 50.92C285.262 51.3467 285.358 51.688 285.55 51.944C285.742 52.2 286.019 52.392 286.382 52.52C286.744 52.648 287.192 52.712 287.726 52.712H292.014Z" fill="white"/>
<rect x="3.5" y="3.5" width="323" height="93" rx="44.5" stroke="white" stroke-width="7"/>
</svg>
