<svg width="221" height="100" viewBox="0 0 221 100" fill="none" xmlns="http://www.w3.org/2000/svg">
<path d="M72.376 49.448V47.592H75.992C76.696 47.592 77.3147 47.4747 77.848 47.24C78.3813 47.0053 78.7973 46.6747 79.096 46.248C79.3947 45.8 79.544 45.2667 79.544 44.648C79.544 43.7093 79.2133 42.984 78.552 42.472C77.8907 41.96 77.0373 41.704 75.992 41.704H73.272V57.896H76.408C77.2613 57.896 78.0187 57.7573 78.68 57.48C79.3413 57.2027 79.864 56.7867 80.248 56.232C80.632 55.6773 80.824 54.984 80.824 54.152C80.824 53.5547 80.7067 53.032 80.472 52.584C80.2587 52.1147 79.9493 51.7307 79.544 51.432C79.16 51.112 78.7013 50.888 78.168 50.76C77.6347 50.6107 77.048 50.536 76.408 50.536H72.376V48.456H76.632C77.72 48.456 78.744 48.5733 79.704 48.808C80.664 49.0427 81.5173 49.4053 82.264 49.896C83.032 50.3867 83.6293 51.016 84.056 51.784C84.4827 52.552 84.696 53.4693 84.696 54.536C84.696 56.008 84.344 57.224 83.64 58.184C82.9573 59.144 82.008 59.8587 80.792 60.328C79.5973 60.776 78.2107 61 76.632 61H69.496V38.6H76.248C77.656 38.6 78.8933 38.8027 79.96 39.208C81.048 39.6133 81.8907 40.232 82.488 41.064C83.1067 41.896 83.416 42.952 83.416 44.232C83.416 45.3413 83.1067 46.2907 82.488 47.08C81.8907 47.848 81.048 48.4347 79.96 48.84C78.8933 49.2453 77.656 49.448 76.248 49.448H72.376ZM102.668 46.28H106.156V61H102.668V46.28ZM88.3955 46.28H91.8515V61H88.3955V46.28ZM90.7955 54.216V51.624H95.3715C96.8862 51.624 98.1555 51.9973 99.1795 52.744C100.225 53.4693 100.748 54.6213 100.748 56.2C100.748 57.2453 100.513 58.1307 100.044 58.856C99.5742 59.56 98.9342 60.0933 98.1235 60.456C97.3128 60.8187 96.3955 61 95.3715 61H90.7955V58.152H95.0515C95.5635 58.152 95.9902 58.0773 96.3315 57.928C96.6728 57.7787 96.9395 57.5547 97.1315 57.256C97.3235 56.9573 97.4195 56.6053 97.4195 56.2C97.4195 55.56 97.2168 55.0693 96.8115 54.728C96.4062 54.3867 95.8195 54.216 95.0515 54.216H90.7955ZM123.896 49.48L110.68 62.12L110.84 57.8L124.056 45.16L123.896 49.48ZM114.072 46.28V58.216L110.68 62.12V46.28H114.072ZM124.056 45.16V61H120.664V49.064L124.056 45.16ZM112.376 38.76H115C115 39.08 115.074 39.4107 115.224 39.752C115.394 40.0933 115.661 40.3813 116.024 40.616C116.386 40.8507 116.877 40.968 117.496 40.968C118.114 40.968 118.605 40.8507 118.968 40.616C119.33 40.3813 119.586 40.0933 119.736 39.752C119.906 39.4107 119.992 39.08 119.992 38.76H122.648C122.648 39.528 122.445 40.264 122.04 40.968C121.656 41.672 121.08 42.2373 120.312 42.664C119.565 43.0907 118.626 43.304 117.496 43.304C116.386 43.304 115.448 43.0907 114.68 42.664C113.912 42.2373 113.336 41.672 112.952 40.968C112.568 40.264 112.376 39.528 112.376 38.76ZM126.566 46.28H135.878V49.32H126.566V46.28ZM129.542 46.92H132.934V61H129.542V46.92ZM151.583 49.48L138.367 62.12L138.527 57.8L151.743 45.16L151.583 49.48ZM141.759 46.28V58.216L138.367 62.12V46.28H141.759ZM151.743 45.16V61H148.351V49.064L151.743 45.16Z" fill="white"/>
<rect x="3.5" y="3.5" width="214" height="93" rx="44.5" stroke="white" stroke-width="7"/>
</svg>
