<svg width="180" height="100" viewBox="0 0 180 100" fill="none" xmlns="http://www.w3.org/2000/svg">
<path d="M51.376 52.448V50.592H54.992C55.696 50.592 56.3147 50.4747 56.848 50.24C57.3813 50.0053 57.7973 49.6747 58.096 49.248C58.3947 48.8 58.544 48.2667 58.544 47.648C58.544 46.7093 58.2133 45.984 57.552 45.472C56.8907 44.96 56.0373 44.704 54.992 44.704H52.272V60.896H55.408C56.2613 60.896 57.0187 60.7573 57.68 60.48C58.3413 60.2027 58.864 59.7867 59.248 59.232C59.632 58.6773 59.824 57.984 59.824 57.152C59.824 56.5547 59.7067 56.032 59.472 55.584C59.2587 55.1147 58.9493 54.7307 58.544 54.432C58.16 54.112 57.7013 53.888 57.168 53.76C56.6347 53.6107 56.048 53.536 55.408 53.536H51.376V51.456H55.632C56.72 51.456 57.744 51.5733 58.704 51.808C59.664 52.0427 60.5173 52.4053 61.264 52.896C62.032 53.3867 62.6293 54.016 63.056 54.784C63.4827 55.552 63.696 56.4693 63.696 57.536C63.696 59.008 63.344 60.224 62.64 61.184C61.9573 62.144 61.008 62.8587 59.792 63.328C58.5973 63.776 57.2107 64 55.632 64H48.496V41.6H55.248C56.656 41.6 57.8933 41.8027 58.96 42.208C60.048 42.6133 60.8907 43.232 61.488 44.064C62.1067 44.896 62.416 45.952 62.416 47.232C62.416 48.3413 62.1067 49.2907 61.488 50.08C60.8907 50.848 60.048 51.4347 58.96 51.84C57.8933 52.2453 56.656 52.448 55.248 52.448H51.376ZM81.6675 49.28H85.1555V64H81.6675V49.28ZM67.3955 49.28H70.8515V64H67.3955V49.28ZM69.7955 57.216V54.624H74.3715C75.8862 54.624 77.1555 54.9973 78.1795 55.744C79.2248 56.4693 79.7475 57.6213 79.7475 59.2C79.7475 60.2453 79.5128 61.1307 79.0435 61.856C78.5742 62.56 77.9342 63.0933 77.1235 63.456C76.3128 63.8187 75.3955 64 74.3715 64H69.7955V61.152H74.0515C74.5635 61.152 74.9902 61.0773 75.3315 60.928C75.6728 60.7787 75.9395 60.5547 76.1315 60.256C76.3235 59.9573 76.4195 59.6053 76.4195 59.2C76.4195 58.56 76.2168 58.0693 75.8115 57.728C75.4062 57.3867 74.8195 57.216 74.0515 57.216H69.7955ZM102.896 52.48L89.6798 65.12L89.8398 60.8L103.056 48.16L102.896 52.48ZM93.0718 49.28V61.216L89.6798 65.12V49.28H93.0718ZM103.056 48.16V64H99.6638V52.064L103.056 48.16ZM91.3758 41.76H93.9998C93.9998 42.08 94.0744 42.4107 94.2238 42.752C94.3944 43.0933 94.6611 43.3813 95.0238 43.616C95.3864 43.8507 95.8771 43.968 96.4958 43.968C97.1144 43.968 97.6051 43.8507 97.9678 43.616C98.3304 43.3813 98.5864 43.0933 98.7358 42.752C98.9064 42.4107 98.9918 42.08 98.9918 41.76H101.648C101.648 42.528 101.445 43.264 101.04 43.968C100.656 44.672 100.08 45.2373 99.3118 45.664C98.5651 46.0907 97.6264 46.304 96.4958 46.304C95.3864 46.304 94.4478 46.0907 93.6798 45.664C92.9118 45.2373 92.3358 44.672 91.9518 43.968C91.5678 43.264 91.3758 42.528 91.3758 41.76ZM105.566 49.28H114.878V52.32H105.566V49.28ZM108.542 49.92H111.934V64H108.542V49.92ZM130.583 52.48L117.367 65.12L117.527 60.8L130.743 48.16L130.583 52.48ZM120.759 49.28V61.216L117.367 65.12V49.28H120.759ZM130.743 48.16V64H127.351V52.064L130.743 48.16Z" fill="white"/>
<rect x="3.5" y="3.5" width="173" height="93" rx="44.5" stroke="white" stroke-width="7"/>
</svg>
