<svg width="355" height="49" viewBox="0 0 355 49" fill="none" xmlns="http://www.w3.org/2000/svg">
<path d="M13.08 48V14.912L0.28 15.552V2.688H40.28V15.552L27.16 14.912V37.76L27.864 44.16L27.16 48H13.08ZM38.39 48L41.462 37.184V29.056L46.198 27.136L55.158 2.752H74.422L85.366 31.424L90.294 40.512V48H76.406L73.206 38.464H55.862L53.11 48H38.39ZM60.086 27.264H69.686L65.462 14.528H64.118L60.086 27.264ZM96.0575 48V12.928L94.7775 6.528L96.0575 2.688H120.378C125.199 2.688 129.06 3.62667 131.962 5.504C134.863 7.38133 136.314 10.24 136.314 14.08C136.314 16.1707 135.93 17.8987 135.162 19.264C134.436 20.5867 133.498 21.7173 132.346 22.656C133.796 22.9973 135.162 23.6373 136.442 24.576C137.722 25.472 138.767 26.688 139.578 28.224C140.388 29.7173 140.794 31.5733 140.794 33.792C140.794 38.272 139.471 41.7707 136.826 44.288C134.223 46.7627 130.02 48 124.218 48H96.0575ZM110.138 20.288H117.69C119.14 20.288 120.186 20.0747 120.826 19.648C121.466 19.1787 121.786 18.4747 121.786 17.536C121.786 16.5547 121.316 15.872 120.378 15.488C119.439 15.0613 118.33 14.848 117.05 14.848H110.138V20.288ZM110.138 35.84H121.018C122.724 35.84 123.919 35.584 124.602 35.072C125.284 34.5173 125.626 33.792 125.626 32.896C125.626 30.848 124.303 29.824 121.658 29.824H110.138V35.84ZM148.495 48L147.215 44.16L148.495 37.76V2.688H162.575V27.072L161.935 35.84H163.215L174.671 35.2L179.215 34.56L184.847 43.904L181.711 48H148.495ZM189.995 48L188.715 44.16L189.995 37.76V2.688H222.955L226.155 4.608L221.931 15.488L216.171 14.848H204.203V19.968H220.011V30.528H211.179L204.203 29.888V35.84H221.931L229.547 43.904L225.771 48H189.995ZM242.555 48.64C239.653 48.64 237.541 48 236.219 46.72C234.896 45.44 234.235 43.4987 234.235 40.896V23.744H230.203V19.584L233.595 16.448L238.139 8.512H243.131V17.792H251.451V24.192H243.131V41.728L251.451 41.664V46.72C251.451 46.72 251.109 46.8907 250.427 47.232C249.744 47.5307 248.741 47.8293 247.419 48.128C246.139 48.4693 244.517 48.64 242.555 48.64ZM261.07 14.592L254.222 7.744L261.07 0.895996L267.854 7.744L261.07 14.592ZM256.59 48V26.816L255.246 21.696L256.526 17.792H265.486V48H256.59ZM271.31 21.696L273.294 17.792H280.27V20.544L280.846 20.928C281.315 20.5013 281.955 20.0107 282.766 19.456C283.619 18.8587 284.643 18.3253 285.838 17.856C287.033 17.3867 288.377 17.152 289.87 17.152C294.307 17.152 297.486 18.624 299.406 21.568C300.131 20.5013 301.262 19.4987 302.798 18.56C304.377 17.5787 306.553 17.088 309.326 17.088C313.166 17.088 316.046 18.176 317.966 20.352C319.886 22.528 320.846 25.5787 320.846 29.504V37.696L322.19 44.096L320.846 48H311.95V29.248C311.95 27.6267 311.502 26.3893 310.606 25.536C309.753 24.64 308.515 24.192 306.894 24.192C305.23 24.192 303.886 24.6613 302.862 25.6C301.881 26.5387 301.39 27.776 301.39 29.312V29.568V48H292.43V29.312C292.43 27.6907 292.067 26.4533 291.342 25.6C290.659 24.704 289.571 24.256 288.078 24.256L281.55 25.472V48H272.59V28.736L271.31 21.696ZM340.82 48.64C338.047 48.64 335.572 48.1493 333.396 47.168C331.22 46.1867 329.513 44.544 328.276 42.24C327.039 39.936 326.42 36.8213 326.42 32.896C326.42 29.0987 327.081 26.048 328.404 23.744C329.727 21.44 331.476 19.776 333.652 18.752C335.828 17.6853 338.217 17.152 340.82 17.152C343.679 17.152 345.919 17.472 347.54 18.112C349.204 18.752 350.463 19.3707 351.316 19.968L354.516 30.144L353.236 34.112H335.316C335.572 36.3733 336.383 38.1867 337.748 39.552C339.113 40.9173 341.204 41.6 344.02 41.6C346.324 41.6 348.18 41.3227 349.588 40.768C351.039 40.2133 352.041 39.7867 352.596 39.488V46.144C351.316 46.8267 349.673 47.424 347.668 47.936C345.705 48.4053 343.423 48.64 340.82 48.64ZM335.252 30.016L344.852 28.736L343.892 24C343.593 23.8293 343.167 23.7013 342.612 23.616C342.1 23.5307 341.631 23.488 341.204 23.488C339.284 23.488 337.812 24.1707 336.788 25.536C335.764 26.8587 335.252 28.352 335.252 30.016Z" fill="white"/>
</svg>
