<svg width="47" height="47" viewBox="0 0 47 47" fill="none" xmlns="http://www.w3.org/2000/svg">
<path fill-rule="evenodd" clip-rule="evenodd" d="M21.1425 32.4693C27.5997 36.0325 35.8838 35.0842 41.3708 29.6164C48.028 22.9826 48.0469 12.2081 41.413 5.55091C34.7792 -1.10624 24.0047 -1.12513 17.3475 5.50872C11.7073 11.1292 10.8322 19.7218 14.7308 26.2645C14.5982 26.3697 14.4702 26.4835 14.3474 26.6058L2.07439 38.8359C0.313949 40.5902 0.308956 43.4394 2.06323 45.1998C3.81751 46.9603 6.66674 46.9653 8.42718 45.211L20.7002 32.9809C20.8625 32.8191 21.01 32.648 21.1425 32.4693ZM37.2205 25.8899C32.8631 30.2321 25.8107 30.2197 21.4686 25.8623C17.1264 21.5049 17.1388 14.4525 21.4962 10.1103C25.8536 5.76818 32.906 5.78054 37.2481 10.1379C41.5903 14.4954 41.5779 21.5478 37.2205 25.8899Z" fill="white"/>
</svg>
