<svg width="170" height="70" viewBox="0 0 170 70" fill="none" xmlns="http://www.w3.org/2000/svg">
<rect x="3.5" y="3.5" width="163" height="63" rx="31.5" stroke="#A25353" stroke-width="7"/>
<path d="M36.664 30.864L35 46H32.28L35 22.48L43.96 38.704L52.92 22.48L55.64 46H52.92L51.256 30.864L43.96 43.92L36.664 30.864ZM60.9703 46V43.44H72.2663V46H60.9703ZM60.9703 26.16V23.6H72.2663V26.16H60.9703ZM60.9703 35.12V32.56H71.6263V35.12H60.9703ZM59.4663 23.6H62.1863V46H59.4663V23.6ZM78.564 35.12V32.56H93.924V35.12H78.564ZM92.1 23.6H94.82V46H92.1V23.6ZM77.06 23.6H79.78V46H77.06V23.6ZM101.439 35.12V32.56H108.479V35.12H101.439ZM99.935 23.6H102.655V46H99.935V23.6ZM109.215 34.8C109.215 36.4853 109.578 37.9893 110.303 39.312C111.05 40.6347 112.063 41.68 113.343 42.448C114.623 43.216 116.074 43.6 117.695 43.6C119.338 43.6 120.788 43.216 122.047 42.448C123.327 41.68 124.33 40.6347 125.055 39.312C125.802 37.9893 126.175 36.4853 126.175 34.8C126.175 33.1147 125.802 31.6107 125.055 30.288C124.33 28.9653 123.327 27.92 122.047 27.152C120.788 26.384 119.338 26 117.695 26C116.074 26 114.623 26.384 113.343 27.152C112.063 27.92 111.05 28.9653 110.303 30.288C109.578 31.6107 109.215 33.1147 109.215 34.8ZM106.335 34.8C106.335 33.1573 106.612 31.6427 107.167 30.256C107.743 28.848 108.543 27.632 109.567 26.608C110.591 25.5627 111.796 24.752 113.183 24.176C114.57 23.5787 116.074 23.28 117.695 23.28C119.338 23.28 120.842 23.5787 122.207 24.176C123.594 24.752 124.799 25.5627 125.823 26.608C126.847 27.632 127.636 28.848 128.191 30.256C128.767 31.6427 129.055 33.1573 129.055 34.8C129.055 36.4213 128.767 37.936 128.191 39.344C127.636 40.752 126.847 41.9787 125.823 43.024C124.799 44.048 123.594 44.8587 122.207 45.456C120.842 46.032 119.338 46.32 117.695 46.32C116.074 46.32 114.57 46.032 113.183 45.456C111.796 44.8587 110.591 44.048 109.567 43.024C108.543 41.9787 107.743 40.752 107.167 39.344C106.612 37.936 106.335 36.4213 106.335 34.8Z" fill="#A25353"/>
</svg>
