<svg width="330" height="100" viewBox="0 0 330 100" fill="none" xmlns="http://www.w3.org/2000/svg">
<rect x="3.5" y="3.5" width="323" height="93" rx="44.5" fill="white" stroke="#A25353" stroke-width="7"/>
<path d="M123.184 45.096L117.584 60.04H113.36L123.216 37.48L133.04 60.04H128.816L123.184 45.096ZM131.536 61H114.864V64.52H111.28V57.608H135.12V64.52H131.536V61ZM142.715 55.24L143.419 52.04H153.819L154.555 55.24H142.715ZM148.571 44.936L145.051 53.16L144.987 53.992L141.883 61H137.627L148.571 37.352L159.515 61H155.259L152.219 54.184L152.123 53.256L148.571 44.936ZM179.561 38.6V61H175.721V42.088H166.793V52.616C166.793 54.2587 166.548 55.72 166.057 57C165.566 58.2587 164.809 59.24 163.785 59.944C162.782 60.648 161.502 61 159.945 61V57.768C160.457 57.768 160.905 57.64 161.289 57.384C161.673 57.1067 161.993 56.7333 162.249 56.264C162.526 55.7733 162.729 55.1973 162.857 54.536C163.006 53.8747 163.081 53.1493 163.081 52.36V38.6H179.561ZM186.957 61V57.672H198.253V61H186.957ZM186.957 41.928V38.6H198.253V41.928H186.957ZM186.957 50.632V47.368H197.613V50.632H186.957ZM184.621 38.6H188.333V61H184.621V38.6ZM205.238 61V57.672H216.534V61H205.238ZM205.238 41.928V38.6H216.534V41.928H205.238ZM205.238 50.632V47.368H215.894V50.632H205.238ZM202.902 38.6H206.614V61H202.902V38.6Z" fill="#A25353"/>
</svg>
