<svg width="360" height="70" viewBox="0 0 360 70" fill="none" xmlns="http://www.w3.org/2000/svg">
<rect x="3.5" y="3.5" width="353" height="63" rx="31.5" stroke="#A25353" stroke-width="7"/>
<path d="M60.6 29.16H48.28V49H45.56V26.6H63.32V49H60.6V29.16ZM84.371 26.6V49H81.651V29.16H71.731V41.32C71.731 42.6853 71.5177 43.9547 71.091 45.128C70.6857 46.3013 70.067 47.24 69.235 47.944C68.4243 48.648 67.411 49 66.195 49V46.664C66.6857 46.664 67.1123 46.5147 67.475 46.216C67.8377 45.9173 68.147 45.5013 68.403 44.968C68.659 44.4133 68.851 43.7733 68.979 43.048C69.107 42.3227 69.171 41.5333 69.171 40.68V26.6H84.371ZM91.6415 42.28L92.6015 39.72H102.522L103.482 42.28H91.6415ZM97.4975 31.656L93.7215 40.552L93.4655 41.128L90.1375 49H87.0975L97.4975 25.48L107.898 49H104.858L101.594 41.32L101.338 40.68L97.4975 31.656ZM112.127 38.12V35.56H127.487V38.12H112.127ZM125.663 26.6H128.383V49H125.663V26.6ZM110.623 26.6H113.343V49H110.623V26.6ZM143.091 26.6H145.811V49H143.091V26.6ZM144.595 29.16V26.6H149.171C150.622 26.6 151.913 26.8773 153.043 27.432C154.195 27.9653 155.102 28.7333 155.763 29.736C156.446 30.7387 156.787 31.9333 156.787 33.32C156.787 34.6853 156.446 35.88 155.763 36.904C155.102 37.9067 154.195 38.6853 153.043 39.24C151.913 39.7733 150.622 40.04 149.171 40.04H144.595V37.48H149.171C150.622 37.48 151.795 37.128 152.691 36.424C153.609 35.72 154.067 34.6853 154.067 33.32C154.067 31.9333 153.609 30.8987 152.691 30.216C151.795 29.512 150.622 29.16 149.171 29.16H144.595ZM162.127 49V46.44H173.423V49H162.127ZM162.127 29.16V26.6H173.423V29.16H162.127ZM162.127 38.12V35.56H172.783V38.12H162.127ZM160.623 26.6H163.343V49H160.623V26.6ZM179.816 37.8C179.816 39.528 180.2 41.0533 180.968 42.376C181.758 43.6987 182.782 44.7333 184.04 45.48C185.299 46.2267 186.664 46.6 188.136 46.6C189.203 46.6 190.174 46.4613 191.048 46.184C191.944 45.9067 192.755 45.5227 193.48 45.032C194.206 44.52 194.824 43.9333 195.336 43.272V46.856C194.398 47.688 193.374 48.3067 192.264 48.712C191.155 49.1173 189.779 49.32 188.136 49.32C186.579 49.32 185.118 49.0427 183.752 48.488C182.408 47.912 181.224 47.112 180.2 46.088C179.176 45.0427 178.376 43.816 177.8 42.408C177.224 41 176.936 39.464 176.936 37.8C176.936 36.136 177.224 34.6 177.8 33.192C178.376 31.784 179.176 30.568 180.2 29.544C181.224 28.4987 182.408 27.6987 183.752 27.144C185.118 26.568 186.579 26.28 188.136 26.28C189.779 26.28 191.155 26.4827 192.264 26.888C193.374 27.2933 194.398 27.912 195.336 28.744V32.328C194.824 31.6667 194.206 31.0907 193.48 30.6C192.755 30.088 191.944 29.6933 191.048 29.416C190.174 29.1387 189.203 29 188.136 29C186.664 29 185.299 29.3733 184.04 30.12C182.782 30.8667 181.758 31.9013 180.968 33.224C180.2 34.5253 179.816 36.0507 179.816 37.8ZM196.914 29.16V26.6H211.154V29.16H205.394V49H202.674V29.16H196.914ZM214.035 37.8C214.035 39.4853 214.398 40.9893 215.123 42.312C215.87 43.6347 216.883 44.68 218.163 45.448C219.443 46.216 220.894 46.6 222.515 46.6C224.158 46.6 225.608 46.216 226.867 45.448C228.147 44.68 229.15 43.6347 229.875 42.312C230.622 40.9893 230.995 39.4853 230.995 37.8C230.995 36.1147 230.622 34.6107 229.875 33.288C229.15 31.9653 228.147 30.92 226.867 30.152C225.608 29.384 224.158 29 222.515 29C220.894 29 219.443 29.384 218.163 30.152C216.883 30.92 215.87 31.9653 215.123 33.288C214.398 34.6107 214.035 36.1147 214.035 37.8ZM211.155 37.8C211.155 36.1573 211.432 34.6427 211.987 33.256C212.563 31.848 213.363 30.632 214.387 29.608C215.411 28.5627 216.616 27.752 218.003 27.176C219.39 26.5787 220.894 26.28 222.515 26.28C224.158 26.28 225.662 26.5787 227.027 27.176C228.414 27.752 229.619 28.5627 230.643 29.608C231.667 30.632 232.456 31.848 233.011 33.256C233.587 34.6427 233.875 36.1573 233.875 37.8C233.875 39.4213 233.587 40.936 233.011 42.344C232.456 43.752 231.667 44.9787 230.643 46.024C229.619 47.048 228.414 47.8587 227.027 48.456C225.662 49.032 224.158 49.32 222.515 49.32C220.894 49.32 219.39 49.032 218.003 48.456C216.616 47.8587 215.411 47.048 214.387 46.024C213.363 44.9787 212.563 43.752 211.987 42.344C211.432 40.936 211.155 39.4213 211.155 37.8ZM237.716 26.6H240.436V49H237.716V26.6ZM239.22 29.16V26.6H243.796C245.247 26.6 246.538 26.8773 247.668 27.432C248.82 27.9653 249.727 28.7333 250.388 29.736C251.071 30.7387 251.412 31.9333 251.412 33.32C251.412 34.6853 251.071 35.88 250.388 36.904C249.727 37.9067 248.82 38.6853 247.668 39.24C246.538 39.7733 245.247 40.04 243.796 40.04H239.22V37.48H243.796C245.247 37.48 246.42 37.128 247.316 36.424C248.234 35.72 248.692 34.6853 248.692 33.32C248.692 31.9333 248.234 30.8987 247.316 30.216C246.42 29.512 245.247 29.16 243.796 29.16H239.22ZM255.141 42.28L256.102 39.72H266.022L266.982 42.28H255.141ZM260.998 31.656L257.222 40.552L256.966 41.128L253.638 49H250.598L260.998 25.48L271.398 49H268.358L265.094 41.32L264.838 40.68L260.998 31.656ZM275.627 38.12V35.56H290.987V38.12H275.627ZM289.163 26.6H291.883V49H289.163V26.6ZM274.123 26.6H276.843V49H274.123V26.6ZM299.141 42.28L300.102 39.72H310.022L310.982 42.28H299.141ZM304.998 31.656L301.222 40.552L300.966 41.128L297.638 49H294.598L304.998 25.48L315.398 49H312.358L309.094 41.32L308.838 40.68L304.998 31.656Z" fill="#A25353"/>
</svg>
