<svg width="330" height="100" viewBox="0 0 330 100" fill="none" xmlns="http://www.w3.org/2000/svg">
<path d="M64.936 40.6V63H61.096V44.088H52.168V54.616C52.168 56.2587 51.9227 57.72 51.432 59C50.9413 60.2587 50.184 61.24 49.16 61.944C48.1573 62.648 46.8773 63 45.32 63V59.768C45.832 59.768 46.28 59.64 46.664 59.384C47.048 59.1067 47.368 58.7333 47.624 58.264C47.9013 57.7733 48.104 57.1973 48.232 56.536C48.3813 55.8747 48.456 55.1493 48.456 54.36V40.6H64.936ZM83.052 51.48L69.836 64.12L69.996 59.8L83.212 47.16L83.052 51.48ZM73.228 48.28V60.216L69.836 64.12V48.28H73.228ZM83.212 47.16V63H79.82V51.064L83.212 47.16ZM92.9225 58.84L93.4665 55.8H97.9465V58.84H92.9225ZM96.1225 48.28H99.6105V63H96.1225V48.28ZM90.6505 48.28V52.664C90.6505 53.4107 90.7358 54.0187 90.9065 54.488C91.0772 54.936 91.3652 55.2667 91.7705 55.48C92.1972 55.6933 92.7625 55.8 93.4665 55.8L92.9225 58.84C91.4505 58.84 90.2878 58.616 89.4345 58.168C88.6025 57.6987 88.0158 56.9947 87.6745 56.056C87.3332 55.1173 87.1625 53.9333 87.1625 52.504V48.28H90.6505ZM105.587 56.664V53.816H116.851V56.664H105.587ZM114.995 48.28H118.387V63H114.995V48.28ZM104.083 48.28H107.475V63H104.083V48.28ZM137.074 48.28H140.562V63H137.074V48.28ZM122.802 48.28H126.258V63H122.802V48.28ZM125.202 56.216V53.624H129.778C131.292 53.624 132.562 53.9973 133.586 54.744C134.631 55.4693 135.154 56.6213 135.154 58.2C135.154 59.2453 134.919 60.1307 134.45 60.856C133.98 61.56 133.34 62.0933 132.53 62.456C131.719 62.8187 130.802 63 129.778 63H125.202V60.152H129.458C129.97 60.152 130.396 60.0773 130.738 59.928C131.079 59.7787 131.346 59.5547 131.538 59.256C131.73 58.9573 131.826 58.6053 131.826 58.2C131.826 57.56 131.623 57.0693 131.218 56.728C130.812 56.3867 130.226 56.216 129.458 56.216H125.202ZM158.302 51.48L145.086 64.12L145.246 59.8L158.462 47.16L158.302 51.48ZM148.478 48.28V60.216L145.086 64.12V48.28H148.478ZM158.462 47.16V63H155.07V51.064L158.462 47.16ZM146.782 40.76H149.406C149.406 41.08 149.481 41.4107 149.63 41.752C149.801 42.0933 150.067 42.3813 150.43 42.616C150.793 42.8507 151.283 42.968 151.902 42.968C152.521 42.968 153.011 42.8507 153.374 42.616C153.737 42.3813 153.993 42.0933 154.142 41.752C154.313 41.4107 154.398 41.08 154.398 40.76H157.054C157.054 41.528 156.851 42.264 156.446 42.968C156.062 43.672 155.486 44.2373 154.718 44.664C153.971 45.0907 153.033 45.304 151.902 45.304C150.793 45.304 149.854 45.0907 149.086 44.664C148.318 44.2373 147.742 43.672 147.358 42.968C146.974 42.264 146.782 41.528 146.782 40.76ZM172.486 48.28H175.878V63H172.486V48.28ZM181.286 48.28H185.51L179.174 54.36L186.15 63H181.958L174.918 54.36L181.286 48.28ZM190.634 58.648C190.634 59.096 190.751 59.4693 190.986 59.768C191.242 60.0667 191.573 60.3013 191.978 60.472C192.383 60.6213 192.842 60.696 193.354 60.696C194.101 60.696 194.773 60.5787 195.37 60.344C195.967 60.1093 196.437 59.736 196.778 59.224C197.119 58.712 197.29 58.0293 197.29 57.176L197.802 58.84C197.802 59.7787 197.557 60.5893 197.066 61.272C196.575 61.9333 195.914 62.4453 195.082 62.808C194.25 63.1493 193.322 63.32 192.298 63.32C191.338 63.32 190.463 63.1493 189.674 62.808C188.906 62.4667 188.287 61.9653 187.818 61.304C187.37 60.6213 187.146 59.7787 187.146 58.776C187.146 57.7733 187.402 56.9093 187.914 56.184C188.426 55.4587 189.151 54.904 190.09 54.52C191.05 54.136 192.17 53.944 193.45 53.944C194.303 53.944 195.061 54.0507 195.722 54.264C196.405 54.4773 196.97 54.7227 197.418 55C197.866 55.2773 198.175 55.5227 198.346 55.736V57.56C197.685 57.0693 197.013 56.7173 196.33 56.504C195.647 56.2693 194.858 56.152 193.962 56.152C193.237 56.152 192.618 56.2587 192.106 56.472C191.615 56.664 191.242 56.952 190.986 57.336C190.751 57.6987 190.634 58.136 190.634 58.648ZM189.866 52.152L188.49 49.688C189.151 49.2827 189.994 48.888 191.018 48.504C192.042 48.12 193.215 47.928 194.538 47.928C195.754 47.928 196.821 48.1093 197.738 48.472C198.655 48.8347 199.37 49.3573 199.882 50.04C200.415 50.7013 200.682 51.5227 200.682 52.504V63H197.29V52.888C197.29 52.2053 197.002 51.6827 196.426 51.32C195.871 50.936 195.189 50.744 194.378 50.744C193.674 50.744 193.023 50.8293 192.426 51C191.829 51.1707 191.306 51.3733 190.858 51.608C190.431 51.8213 190.101 52.0027 189.866 52.152ZM211.747 51L211.907 47.96C213.401 47.96 214.734 48.2907 215.907 48.952C217.081 49.6133 217.998 50.52 218.659 51.672C219.342 52.824 219.683 54.1467 219.683 55.64C219.683 57.112 219.342 58.4347 218.659 59.608C217.977 60.76 217.038 61.6667 215.843 62.328C214.67 62.9893 213.305 63.32 211.747 63.32C210.211 63.32 208.825 62.968 207.587 62.264C206.371 61.5387 205.411 60.4613 204.707 59.032C204.003 57.6027 203.651 55.832 203.651 53.72L207.331 55.64C207.331 56.5573 207.523 57.368 207.907 58.072C208.313 58.7547 208.846 59.2987 209.507 59.704C210.169 60.088 210.915 60.28 211.747 60.28C212.579 60.28 213.326 60.088 213.987 59.704C214.649 59.2987 215.171 58.7547 215.555 58.072C215.939 57.368 216.131 56.5573 216.131 55.64C216.131 54.7227 215.939 53.912 215.555 53.208C215.171 52.504 214.649 51.96 213.987 51.576C213.326 51.192 212.579 51 211.747 51ZM205.763 55.64C205.763 54.4453 205.913 53.3787 206.211 52.44C206.51 51.48 206.926 50.6693 207.459 50.008C208.014 49.3467 208.665 48.8453 209.411 48.504C210.158 48.1413 210.99 47.96 211.907 47.96L211.747 51C211.235 51 210.713 51.1067 210.179 51.32C209.667 51.512 209.198 51.8107 208.771 52.216C208.345 52.6 207.993 53.08 207.715 53.656C207.459 54.232 207.331 54.8933 207.331 55.64H205.763ZM203.651 53.72C203.651 51.7147 203.833 49.944 204.195 48.408C204.579 46.872 205.241 45.5707 206.179 44.504C207.139 43.416 208.462 42.5627 210.147 41.944C211.598 41.4107 212.697 40.824 213.443 40.184C214.19 39.5227 214.638 38.808 214.787 38.04H218.147C218.041 38.9787 217.699 39.8533 217.123 40.664C216.547 41.4747 215.79 42.1893 214.851 42.808C213.934 43.4053 212.889 43.9067 211.715 44.312C210.393 44.7813 209.358 45.4213 208.611 46.232C207.886 47.0427 207.385 47.96 207.107 48.984C206.83 50.008 206.691 51.0533 206.691 52.12L207.011 55.48L203.651 53.72ZM236.365 51.48L223.149 64.12L223.309 59.8L236.525 47.16L236.365 51.48ZM226.541 48.28V60.216L223.149 64.12V48.28H226.541ZM236.525 47.16V63H233.133V51.064L236.525 47.16ZM242.587 56.664V53.816H253.851V56.664H242.587ZM251.995 48.28H255.387V63H251.995V48.28ZM241.083 48.28H244.475V63H241.083V48.28ZM260.73 56.44V54.072H269.978C269.892 53.368 269.7 52.76 269.402 52.248C269.124 51.7147 268.73 51.3093 268.218 51.032C267.706 50.7333 267.076 50.584 266.33 50.584C265.562 50.584 264.868 50.7547 264.25 51.096C263.631 51.416 263.14 51.896 262.778 52.536C262.415 53.1547 262.234 53.8907 262.234 54.744L262.17 55.64C262.17 56.728 262.34 57.6347 262.682 58.36C263.044 59.064 263.535 59.5973 264.154 59.96C264.794 60.3013 265.53 60.472 266.362 60.472C267.044 60.472 267.642 60.376 268.154 60.184C268.687 59.992 269.156 59.7253 269.562 59.384C269.967 59.0213 270.308 58.6053 270.586 58.136L273.562 59.352C273.071 60.1413 272.506 60.8347 271.866 61.432C271.247 62.0293 270.479 62.4987 269.562 62.84C268.666 63.16 267.546 63.32 266.202 63.32C264.687 63.32 263.364 62.9893 262.234 62.328C261.103 61.6667 260.228 60.76 259.61 59.608C258.991 58.4347 258.682 57.112 258.682 55.64C258.682 55.3627 258.692 55.096 258.714 54.84C258.735 54.584 258.767 54.328 258.81 54.072C259.023 52.856 259.45 51.7893 260.09 50.872C260.751 49.9547 261.615 49.24 262.682 48.728C263.748 48.216 264.975 47.96 266.362 47.96C267.876 47.96 269.178 48.2693 270.266 48.888C271.375 49.4853 272.228 50.3493 272.826 51.48C273.423 52.5893 273.722 53.9227 273.722 55.48C273.722 55.608 273.722 55.7573 273.722 55.928C273.722 56.0773 273.7 56.248 273.658 56.44H260.73ZM275.004 48.28H284.316V51.32H275.004V48.28ZM277.98 48.92H281.372V63H277.98V48.92Z" fill="white"/>
<rect x="3.5" y="3.5" width="323" height="93" rx="44.5" stroke="white" stroke-width="7"/>
</svg>
