<svg width="270" height="80" viewBox="0 0 270 80" fill="none" xmlns="http://www.w3.org/2000/svg">
<rect width="270" height="80" rx="40" fill="white"/>
<path d="M22.3026 28.6H26.0786V51H22.3026V28.6ZM24.5426 31.928V28.6H29.0546C30.676 28.6 32.084 28.888 33.2786 29.464C34.4946 30.0187 35.4333 30.8187 36.0946 31.864C36.756 32.888 37.0866 34.1147 37.0866 35.544C37.0866 36.9733 36.756 38.2107 36.0946 39.256C35.4333 40.3013 34.4946 41.112 33.2786 41.688C32.084 42.2427 30.676 42.52 29.0546 42.52H24.5426V39.192H29.0546C30.356 39.192 31.4013 38.8827 32.1906 38.264C32.98 37.6453 33.3746 36.7387 33.3746 35.544C33.3746 34.3493 32.98 33.4533 32.1906 32.856C31.4013 32.2373 30.356 31.928 29.0546 31.928H24.5426ZM43.1386 51V47.672H54.4346V51H43.1386ZM43.1386 31.928V28.6H54.4346V31.928H43.1386ZM43.1386 40.632V37.368H53.7946V40.632H43.1386ZM40.8026 28.6H44.5146V51H40.8026V28.6ZM59.1479 28.6H71.1159V32.088H62.9559V51H59.1479V28.6ZM93.8316 32.664L73.9276 52.12L74.0876 46.936L93.9916 27.48L93.8316 32.664ZM77.6396 28.6V47.896L73.9276 52.12V28.6H77.6396ZM93.9916 27.48V51H90.2796V31.8L93.9916 27.48ZM101.743 39.8C101.743 41.3787 102.095 42.7653 102.799 43.96C103.524 45.1547 104.463 46.0827 105.615 46.744C106.788 47.384 108.058 47.704 109.423 47.704C110.49 47.704 111.45 47.5653 112.303 47.288C113.156 47.0107 113.924 46.6373 114.607 46.168C115.311 45.6773 115.919 45.1333 116.431 44.536V49.016C115.492 49.784 114.479 50.3707 113.391 50.776C112.303 51.1813 110.938 51.384 109.295 51.384C107.652 51.384 106.116 51.1067 104.687 50.552C103.279 49.9973 102.052 49.1973 101.007 48.152C99.9616 47.1067 99.1402 45.88 98.5429 44.472C97.9669 43.0427 97.6789 41.4853 97.6789 39.8C97.6789 38.1147 97.9669 36.568 98.5429 35.16C99.1402 33.7307 99.9616 32.4933 101.007 31.448C102.052 30.4027 103.279 29.6027 104.687 29.048C106.116 28.4933 107.652 28.216 109.295 28.216C110.938 28.216 112.303 28.4187 113.391 28.824C114.479 29.2293 115.492 29.816 116.431 30.584V35.064C115.919 34.4667 115.311 33.9333 114.607 33.464C113.924 32.9733 113.156 32.5893 112.303 32.312C111.45 32.0347 110.49 31.896 109.423 31.896C108.058 31.896 106.788 32.2267 105.615 32.888C104.463 33.528 103.524 34.4453 102.799 35.64C102.095 36.8133 101.743 38.2 101.743 39.8ZM117.875 32.088V28.6H133.491V32.088H127.571V51H123.763V32.088H117.875ZM136.24 28.6H140.016V51H136.24V28.6ZM138.48 31.928V28.6H142.992C144.613 28.6 146.021 28.888 147.216 29.464C148.432 30.0187 149.371 30.8187 150.032 31.864C150.693 32.888 151.024 34.1147 151.024 35.544C151.024 36.9733 150.693 38.2107 150.032 39.256C149.371 40.3013 148.432 41.112 147.216 41.688C146.021 42.2427 144.613 42.52 142.992 42.52H138.48V39.192H142.992C144.293 39.192 145.339 38.8827 146.128 38.264C146.917 37.6453 147.312 36.7387 147.312 35.544C147.312 34.3493 146.917 33.4533 146.128 32.856C145.339 32.2373 144.293 31.928 142.992 31.928H138.48ZM155.178 45.24L155.882 42.04H166.282L167.018 45.24H155.178ZM161.034 34.936L157.514 43.16L157.45 43.992L154.346 51H150.09L161.034 27.352L171.978 51H167.722L164.682 44.184L164.586 43.256L161.034 34.936ZM178.392 47.512H189.624V28.6H193.432V47.512H196.472V54.84H192.952V51H174.584V28.6H178.392V47.512ZM220.082 32.664L200.178 52.12L200.338 46.936L220.242 27.48L220.082 32.664ZM203.89 28.6V47.896L200.178 52.12V28.6H203.89ZM220.242 27.48V51H216.53V31.8L220.242 27.48ZM234.617 40.312L227.513 51H222.969L230.553 40.312H234.617ZM239.257 28.6V51H235.481V28.6H239.257ZM237.017 31.864H232.505C231.652 31.864 230.894 32.0133 230.233 32.312C229.593 32.6107 229.092 33.0373 228.729 33.592C228.366 34.1467 228.185 34.8293 228.185 35.64C228.185 36.4293 228.366 37.112 228.729 37.688C229.092 38.2427 229.593 38.6693 230.233 38.968C230.894 39.2667 231.652 39.416 232.505 39.416H237.017V42.52H232.345C230.724 42.52 229.305 42.232 228.089 41.656C226.894 41.08 225.966 40.2693 225.305 39.224C224.644 38.1787 224.313 36.952 224.313 35.544C224.313 34.136 224.644 32.92 225.305 31.896C225.966 30.8507 226.894 30.04 228.089 29.464C229.305 28.888 230.724 28.6 232.345 28.6H237.017V31.864Z" fill="#A25353"/>
</svg>
