<svg width="330" height="100" viewBox="0 0 330 100" fill="none" xmlns="http://www.w3.org/2000/svg">
<rect x="3.5" y="3.5" width="323" height="93" rx="44.5" fill="white" stroke="#A25353" stroke-width="7"/>
<path d="M54.064 50.632V47.368H60.24C61.6907 47.368 62.9813 47.6453 64.112 48.2C65.264 48.7547 66.1707 49.544 66.832 50.568C67.5147 51.5707 67.856 52.7653 67.856 54.152C67.856 55.5173 67.5147 56.7227 66.832 57.768C66.1707 58.792 65.264 59.592 64.112 60.168C62.9813 60.7227 61.6907 61 60.24 61H54.064V57.672H59.76C60.6133 57.672 61.36 57.544 62 57.288C62.64 57.032 63.1307 56.648 63.472 56.136C63.8347 55.6027 64.016 54.9413 64.016 54.152C64.016 53.3627 63.8347 52.712 63.472 52.2C63.1307 51.6667 62.64 51.272 62 51.016C61.36 50.76 60.6133 50.632 59.76 50.632H54.064ZM52.56 38.6H66.16V41.928H56.4V61H52.56V38.6ZM71.621 38.6H75.397V61H71.621V38.6ZM73.861 41.928V38.6H78.373C79.9943 38.6 81.4023 38.888 82.597 39.464C83.813 40.0187 84.7517 40.8187 85.413 41.864C86.0743 42.888 86.405 44.1147 86.405 45.544C86.405 46.9733 86.0743 48.2107 85.413 49.256C84.7517 50.3013 83.813 51.112 82.597 51.688C81.4023 52.2427 79.9943 52.52 78.373 52.52H73.861V49.192H78.373C79.6743 49.192 80.7197 48.8827 81.509 48.264C82.2983 47.6453 82.693 46.7387 82.693 45.544C82.693 44.3493 82.2983 43.4533 81.509 42.856C80.7197 42.2373 79.6743 41.928 78.373 41.928H73.861ZM92.841 49.8C92.841 51.336 93.161 52.712 93.801 53.928C94.4623 55.1227 95.369 56.0613 96.521 56.744C97.673 57.4267 98.985 57.768 100.457 57.768C101.95 57.768 103.262 57.4267 104.393 56.744C105.545 56.0613 106.441 55.1227 107.081 53.928C107.742 52.712 108.073 51.336 108.073 49.8C108.073 48.264 107.753 46.8987 107.113 45.704C106.473 44.488 105.577 43.5387 104.425 42.856C103.294 42.1733 101.972 41.832 100.457 41.832C98.985 41.832 97.673 42.1733 96.521 42.856C95.369 43.5387 94.4623 44.488 93.801 45.704C93.161 46.8987 92.841 48.264 92.841 49.8ZM88.841 49.8C88.841 48.1147 89.129 46.568 89.705 45.16C90.281 43.752 91.0917 42.536 92.137 41.512C93.2037 40.4667 94.441 39.656 95.849 39.08C97.2783 38.504 98.8143 38.216 100.457 38.216C102.142 38.216 103.689 38.504 105.097 39.08C106.505 39.656 107.732 40.4667 108.777 41.512C109.844 42.536 110.665 43.752 111.241 45.16C111.817 46.568 112.105 48.1147 112.105 49.8C112.105 51.464 111.817 53.0107 111.241 54.44C110.665 55.8693 109.854 57.1067 108.809 58.152C107.764 59.1973 106.526 60.0187 105.097 60.616C103.689 61.192 102.142 61.48 100.457 61.48C98.793 61.48 97.2463 61.192 95.817 60.616C94.3877 60.0187 93.1503 59.1973 92.105 58.152C91.081 57.1067 90.281 55.8693 89.705 54.44C89.129 53.0107 88.841 51.464 88.841 49.8ZM117.281 50.728V47.24H133.249V50.728H117.281ZM130.817 38.6H134.593V61H130.817V38.6ZM115.777 38.6H119.553V61H115.777V38.6ZM159.494 42.664L139.59 62.12L139.75 56.936L159.654 37.48L159.494 42.664ZM143.302 38.6V57.896L139.59 62.12V38.6H143.302ZM159.654 37.48V61H155.942V41.8L159.654 37.48ZM164.621 38.6H168.397V61H164.621V38.6ZM166.861 41.928V38.6H171.373C172.994 38.6 174.402 38.888 175.597 39.464C176.813 40.0187 177.752 40.8187 178.413 41.864C179.074 42.888 179.405 44.1147 179.405 45.544C179.405 46.9733 179.074 48.2107 178.413 49.256C177.752 50.3013 176.813 51.112 175.597 51.688C174.402 52.2427 172.994 52.52 171.373 52.52H166.861V49.192H171.373C172.674 49.192 173.72 48.8827 174.509 48.264C175.298 47.6453 175.693 46.7387 175.693 45.544C175.693 44.3493 175.298 43.4533 174.509 42.856C173.72 42.2373 172.674 41.928 171.373 41.928H166.861ZM185.841 49.8C185.841 51.336 186.161 52.712 186.801 53.928C187.462 55.1227 188.369 56.0613 189.521 56.744C190.673 57.4267 191.985 57.768 193.457 57.768C194.95 57.768 196.262 57.4267 197.393 56.744C198.545 56.0613 199.441 55.1227 200.081 53.928C200.742 52.712 201.073 51.336 201.073 49.8C201.073 48.264 200.753 46.8987 200.113 45.704C199.473 44.488 198.577 43.5387 197.425 42.856C196.294 42.1733 194.972 41.832 193.457 41.832C191.985 41.832 190.673 42.1733 189.521 42.856C188.369 43.5387 187.462 44.488 186.801 45.704C186.161 46.8987 185.841 48.264 185.841 49.8ZM181.841 49.8C181.841 48.1147 182.129 46.568 182.705 45.16C183.281 43.752 184.092 42.536 185.137 41.512C186.204 40.4667 187.441 39.656 188.849 39.08C190.278 38.504 191.814 38.216 193.457 38.216C195.142 38.216 196.689 38.504 198.097 39.08C199.505 39.656 200.732 40.4667 201.777 41.512C202.844 42.536 203.665 43.752 204.241 45.16C204.817 46.568 205.105 48.1147 205.105 49.8C205.105 51.464 204.817 53.0107 204.241 54.44C203.665 55.8693 202.854 57.1067 201.809 58.152C200.764 59.1973 199.526 60.0187 198.097 60.616C196.689 61.192 195.142 61.48 193.457 61.48C191.793 61.48 190.246 61.192 188.817 60.616C187.388 60.0187 186.15 59.1973 185.105 58.152C184.081 57.1067 183.281 55.8693 182.705 54.44C182.129 53.0107 181.841 51.464 181.841 49.8ZM211.657 49.448V47.592H215.273C215.977 47.592 216.596 47.4747 217.129 47.24C217.663 47.0053 218.079 46.6747 218.377 46.248C218.676 45.8 218.825 45.2667 218.825 44.648C218.825 43.7093 218.495 42.984 217.833 42.472C217.172 41.96 216.319 41.704 215.273 41.704H212.553V57.896H215.689C216.543 57.896 217.3 57.7573 217.961 57.48C218.623 57.2027 219.145 56.7867 219.529 56.232C219.913 55.6773 220.105 54.984 220.105 54.152C220.105 53.5547 219.988 53.032 219.753 52.584C219.54 52.1147 219.231 51.7307 218.825 51.432C218.441 51.112 217.983 50.888 217.449 50.76C216.916 50.6107 216.329 50.536 215.689 50.536H211.657V48.456H215.913C217.001 48.456 218.025 48.5733 218.985 48.808C219.945 49.0427 220.799 49.4053 221.545 49.896C222.313 50.3867 222.911 51.016 223.337 51.784C223.764 52.552 223.977 53.4693 223.977 54.536C223.977 56.008 223.625 57.224 222.921 58.184C222.239 59.144 221.289 59.8587 220.073 60.328C218.879 60.776 217.492 61 215.913 61H208.777V38.6H215.529C216.937 38.6 218.175 38.8027 219.241 39.208C220.329 39.6133 221.172 40.232 221.769 41.064C222.388 41.896 222.697 42.952 222.697 44.232C222.697 45.3413 222.388 46.2907 221.769 47.08C221.172 47.848 220.329 48.4347 219.241 48.84C218.175 49.2453 216.937 49.448 215.529 49.448H211.657ZM230.184 55.24L230.888 52.04H241.288L242.024 55.24H230.184ZM236.04 44.936L232.52 53.16L232.456 53.992L229.352 61H225.096L236.04 37.352L246.984 61H242.728L239.688 54.184L239.592 53.256L236.04 44.936ZM245.1 42.088V38.6H260.716V42.088H254.796V61H250.988V42.088H245.1ZM263.465 38.6H267.241V61H263.465V38.6ZM265.705 50.408V47.08H270.217C271.838 47.08 273.246 47.368 274.441 47.944C275.657 48.4987 276.595 49.2987 277.257 50.344C277.918 51.368 278.249 52.6053 278.249 54.056C278.249 55.464 277.918 56.6907 277.257 57.736C276.595 58.7813 275.657 59.592 274.441 60.168C273.246 60.7227 271.838 61 270.217 61H265.705V57.672H270.217C271.07 57.672 271.817 57.544 272.457 57.288C273.118 57.0107 273.63 56.6053 273.993 56.072C274.355 55.5173 274.537 54.8453 274.537 54.056C274.537 53.2453 274.355 52.5733 273.993 52.04C273.63 51.4853 273.118 51.08 272.457 50.824C271.817 50.5467 271.07 50.408 270.217 50.408H265.705Z" fill="#A25353"/>
</svg>
