<svg width="170" height="70" viewBox="0 0 170 70" fill="none" xmlns="http://www.w3.org/2000/svg">
<rect x="3.5" y="3.5" width="163" height="63" rx="31.5" stroke="#A25353" stroke-width="7"/>
<path d="M32.704 39.28L33.664 36.72H43.584L44.544 39.28H32.704ZM38.56 28.656L34.784 37.552L34.528 38.128L31.2 46H28.16L38.56 22.48L48.96 46H45.92L42.656 38.32L42.4 37.68L38.56 28.656ZM51.685 23.6H54.405V46H51.685V23.6ZM63.205 23.6H66.565L56.869 34.096L67.045 46H63.685L53.573 34.16L63.205 23.6ZM72.4988 43.44H84.8188V23.6H87.5388V43.44H90.2588V49.52H87.8588V46H69.7788V23.6H72.4988V43.44ZM113.611 26.64L94.0913 47.12L94.2513 42.96L113.771 22.48L113.611 26.64ZM96.8113 23.6V43.6L94.0913 47.12V23.6H96.8113ZM113.771 22.48V46H111.051V26L113.771 22.48ZM138.424 26.64L118.904 47.12L119.064 42.96L138.584 22.48L138.424 26.64ZM121.624 23.6V43.6L118.904 47.12V23.6H121.624ZM138.584 22.48V46H135.864V26L138.584 22.48Z" fill="#A25353"/>
</svg>
