<svg width="292" height="70" viewBox="0 0 292 70" fill="none" xmlns="http://www.w3.org/2000/svg">
<rect x="3.5" y="3.5" width="285" height="63" rx="31.5" fill="white" stroke="#A25353" stroke-width="7"/>
<path d="M59.28 34.8C59.28 36.3787 59.632 37.7653 60.336 38.96C61.0613 40.1547 62 41.0827 63.152 41.744C64.3253 42.384 65.5947 42.704 66.96 42.704C68.0267 42.704 68.9867 42.5653 69.84 42.288C70.6933 42.0107 71.4613 41.6373 72.144 41.168C72.848 40.6773 73.456 40.1333 73.968 39.536V44.016C73.0293 44.784 72.016 45.3707 70.928 45.776C69.84 46.1813 68.4747 46.384 66.832 46.384C65.1893 46.384 63.6533 46.1067 62.224 45.552C60.816 44.9973 59.5893 44.1973 58.544 43.152C57.4987 42.1067 56.6773 40.88 56.08 39.472C55.504 38.0427 55.216 36.4853 55.216 34.8C55.216 33.1147 55.504 31.568 56.08 30.16C56.6773 28.7307 57.4987 27.4933 58.544 26.448C59.5893 25.4027 60.816 24.6027 62.224 24.048C63.6533 23.4933 65.1893 23.216 66.832 23.216C68.4747 23.216 69.84 23.4187 70.928 23.824C72.016 24.2293 73.0293 24.816 73.968 25.584V30.064C73.456 29.4667 72.848 28.9333 72.144 28.464C71.4613 27.9733 70.6933 27.5893 69.84 27.312C68.9867 27.0347 68.0267 26.896 66.96 26.896C65.5947 26.896 64.3253 27.2267 63.152 27.888C62 28.528 61.0613 29.4453 60.336 30.64C59.632 31.8133 59.28 33.2 59.28 34.8ZM81.341 34.8C81.341 36.336 81.661 37.712 82.301 38.928C82.9623 40.1227 83.869 41.0613 85.021 41.744C86.173 42.4267 87.485 42.768 88.957 42.768C90.4503 42.768 91.7623 42.4267 92.893 41.744C94.045 41.0613 94.941 40.1227 95.581 38.928C96.2423 37.712 96.573 36.336 96.573 34.8C96.573 33.264 96.253 31.8987 95.613 30.704C94.973 29.488 94.077 28.5387 92.925 27.856C91.7943 27.1733 90.4717 26.832 88.957 26.832C87.485 26.832 86.173 27.1733 85.021 27.856C83.869 28.5387 82.9623 29.488 82.301 30.704C81.661 31.8987 81.341 33.264 81.341 34.8ZM77.341 34.8C77.341 33.1147 77.629 31.568 78.205 30.16C78.781 28.752 79.5917 27.536 80.637 26.512C81.7037 25.4667 82.941 24.656 84.349 24.08C85.7783 23.504 87.3143 23.216 88.957 23.216C90.6423 23.216 92.189 23.504 93.597 24.08C95.005 24.656 96.2317 25.4667 97.277 26.512C98.3437 27.536 99.165 28.752 99.741 30.16C100.317 31.568 100.605 33.1147 100.605 34.8C100.605 36.464 100.317 38.0107 99.741 39.44C99.165 40.8693 98.3543 42.1067 97.309 43.152C96.2637 44.1973 95.0263 45.0187 93.597 45.616C92.189 46.192 90.6423 46.48 88.957 46.48C87.293 46.48 85.7463 46.192 84.317 45.616C82.8877 45.0187 81.6503 44.1973 80.605 43.152C79.581 42.1067 78.781 40.8693 78.205 39.44C77.629 38.0107 77.341 36.464 77.341 34.8ZM114.925 23.6H119.533L112.749 34.352L120.013 46H115.405L110.605 37.392L105.645 46H101.069L108.493 34.352L101.868 23.6H106.445L110.637 31.184L114.925 23.6ZM122.746 23.6H126.522V46H122.746V23.6ZM124.986 26.928V23.6H129.498C131.119 23.6 132.527 23.888 133.722 24.464C134.938 25.0187 135.877 25.8187 136.538 26.864C137.199 27.888 137.53 29.1147 137.53 30.544C137.53 31.9733 137.199 33.2107 136.538 34.256C135.877 35.3013 134.938 36.112 133.722 36.688C132.527 37.2427 131.119 37.52 129.498 37.52H124.986V34.192H129.498C130.799 34.192 131.845 33.8827 132.634 33.264C133.423 32.6453 133.818 31.7387 133.818 30.544C133.818 29.3493 133.423 28.4533 132.634 27.856C131.845 27.2373 130.799 26.928 129.498 26.928H124.986ZM141.684 40.24L142.388 37.04H152.788L153.524 40.24H141.684ZM147.54 29.936L144.02 38.16L143.956 38.992L140.852 46H136.596L147.54 22.352L158.484 46H154.228L151.188 39.184L151.092 38.256L147.54 29.936ZM162.594 35.728V32.24H178.562V35.728H162.594ZM176.13 23.6H179.906V46H176.13V23.6ZM161.09 23.6H164.866V46H161.09V23.6ZM204.806 27.664L184.902 47.12L185.062 41.936L204.966 22.48L204.806 27.664ZM188.614 23.6V42.896L184.902 47.12V23.6H188.614ZM204.966 22.48V46H201.254V26.8L204.966 22.48ZM207.694 27.088V23.6H223.31V27.088H217.39V46H213.582V27.088H207.694ZM226.059 23.6H229.835V46H226.059V23.6ZM228.299 35.408V32.08H232.811C234.432 32.08 235.84 32.368 237.035 32.944C238.251 33.4987 239.189 34.2987 239.851 35.344C240.512 36.368 240.843 37.6053 240.843 39.056C240.843 40.464 240.512 41.6907 239.851 42.736C239.189 43.7813 238.251 44.592 237.035 45.168C235.84 45.7227 234.432 46 232.811 46H228.299V42.672H232.811C233.664 42.672 234.411 42.544 235.051 42.288C235.712 42.0107 236.224 41.6053 236.587 41.072C236.949 40.5173 237.131 39.8453 237.131 39.056C237.131 38.2453 236.949 37.5733 236.587 37.04C236.224 36.4853 235.712 36.08 235.051 35.824C234.411 35.5467 233.664 35.408 232.811 35.408H228.299Z" fill="#A25353"/>
</svg>
