<svg width="330" height="100" viewBox="0 0 330 100" fill="none" xmlns="http://www.w3.org/2000/svg">
<rect x="3.5" y="3.5" width="323" height="93" rx="44.5" fill="white" stroke="#A25353" stroke-width="7"/>
<path d="M75.28 49.8C75.28 51.3787 75.632 52.7653 76.336 53.96C77.0613 55.1547 78 56.0827 79.152 56.744C80.3253 57.384 81.5947 57.704 82.96 57.704C84.0267 57.704 84.9867 57.5653 85.84 57.288C86.6933 57.0107 87.4613 56.6373 88.144 56.168C88.848 55.6773 89.456 55.1333 89.968 54.536V59.016C89.0293 59.784 88.016 60.3707 86.928 60.776C85.84 61.1813 84.4747 61.384 82.832 61.384C81.1893 61.384 79.6533 61.1067 78.224 60.552C76.816 59.9973 75.5893 59.1973 74.544 58.152C73.4987 57.1067 72.6773 55.88 72.08 54.472C71.504 53.0427 71.216 51.4853 71.216 49.8C71.216 48.1147 71.504 46.568 72.08 45.16C72.6773 43.7307 73.4987 42.4933 74.544 41.448C75.5893 40.4027 76.816 39.6027 78.224 39.048C79.6533 38.4933 81.1893 38.216 82.832 38.216C84.4747 38.216 85.84 38.4187 86.928 38.824C88.016 39.2293 89.0293 39.816 89.968 40.584V45.064C89.456 44.4667 88.848 43.9333 88.144 43.464C87.4613 42.9733 86.6933 42.5893 85.84 42.312C84.9867 42.0347 84.0267 41.896 82.96 41.896C81.5947 41.896 80.3253 42.2267 79.152 42.888C78 43.528 77.0613 44.4453 76.336 45.64C75.632 46.8133 75.28 48.2 75.28 49.8ZM97.341 49.8C97.341 51.336 97.661 52.712 98.301 53.928C98.9623 55.1227 99.869 56.0613 101.021 56.744C102.173 57.4267 103.485 57.768 104.957 57.768C106.45 57.768 107.762 57.4267 108.893 56.744C110.045 56.0613 110.941 55.1227 111.581 53.928C112.242 52.712 112.573 51.336 112.573 49.8C112.573 48.264 112.253 46.8987 111.613 45.704C110.973 44.488 110.077 43.5387 108.925 42.856C107.794 42.1733 106.472 41.832 104.957 41.832C103.485 41.832 102.173 42.1733 101.021 42.856C99.869 43.5387 98.9623 44.488 98.301 45.704C97.661 46.8987 97.341 48.264 97.341 49.8ZM93.341 49.8C93.341 48.1147 93.629 46.568 94.205 45.16C94.781 43.752 95.5917 42.536 96.637 41.512C97.7037 40.4667 98.941 39.656 100.349 39.08C101.778 38.504 103.314 38.216 104.957 38.216C106.642 38.216 108.189 38.504 109.597 39.08C111.005 39.656 112.232 40.4667 113.277 41.512C114.344 42.536 115.165 43.752 115.741 45.16C116.317 46.568 116.605 48.1147 116.605 49.8C116.605 51.464 116.317 53.0107 115.741 54.44C115.165 55.8693 114.354 57.1067 113.309 58.152C112.264 59.1973 111.026 60.0187 109.597 60.616C108.189 61.192 106.642 61.48 104.957 61.48C103.293 61.48 101.746 61.192 100.317 60.616C98.8877 60.0187 97.6503 59.1973 96.605 58.152C95.581 57.1067 94.781 55.8693 94.205 54.44C93.629 53.0107 93.341 51.464 93.341 49.8ZM130.925 38.6H135.533L128.749 49.352L136.013 61H131.405L126.605 52.392L121.645 61H117.069L124.493 49.352L117.868 38.6H122.445L126.637 46.184L130.925 38.6ZM138.746 38.6H142.522V61H138.746V38.6ZM140.986 41.928V38.6H145.498C147.119 38.6 148.527 38.888 149.722 39.464C150.938 40.0187 151.877 40.8187 152.538 41.864C153.199 42.888 153.53 44.1147 153.53 45.544C153.53 46.9733 153.199 48.2107 152.538 49.256C151.877 50.3013 150.938 51.112 149.722 51.688C148.527 52.2427 147.119 52.52 145.498 52.52H140.986V49.192H145.498C146.799 49.192 147.845 48.8827 148.634 48.264C149.423 47.6453 149.818 46.7387 149.818 45.544C149.818 44.3493 149.423 43.4533 148.634 42.856C147.845 42.2373 146.799 41.928 145.498 41.928H140.986ZM157.684 55.24L158.388 52.04H168.788L169.524 55.24H157.684ZM163.54 44.936L160.02 53.16L159.956 53.992L156.852 61H152.596L163.54 37.352L174.484 61H170.228L167.188 54.184L167.092 53.256L163.54 44.936ZM178.594 50.728V47.24H194.562V50.728H178.594ZM192.13 38.6H195.906V61H192.13V38.6ZM177.09 38.6H180.866V61H177.09V38.6ZM220.806 42.664L200.902 62.12L201.062 56.936L220.966 37.48L220.806 42.664ZM204.614 38.6V57.896L200.902 62.12V38.6H204.614ZM220.966 37.48V61H217.254V41.8L220.966 37.48ZM223.694 42.088V38.6H239.31V42.088H233.39V61H229.582V42.088H223.694ZM242.059 38.6H245.835V61H242.059V38.6ZM244.299 50.408V47.08H248.811C250.432 47.08 251.84 47.368 253.035 47.944C254.251 48.4987 255.189 49.2987 255.851 50.344C256.512 51.368 256.843 52.6053 256.843 54.056C256.843 55.464 256.512 56.6907 255.851 57.736C255.189 58.7813 254.251 59.592 253.035 60.168C251.84 60.7227 250.432 61 248.811 61H244.299V57.672H248.811C249.664 57.672 250.411 57.544 251.051 57.288C251.712 57.0107 252.224 56.6053 252.587 56.072C252.949 55.5173 253.131 54.8453 253.131 54.056C253.131 53.2453 252.949 52.5733 252.587 52.04C252.224 51.4853 251.712 51.08 251.051 50.824C250.411 50.5467 249.664 50.408 248.811 50.408H244.299Z" fill="#A25353"/>
</svg>
