<svg width="270" height="80" viewBox="0 0 270 80" fill="none" xmlns="http://www.w3.org/2000/svg">
<rect width="270" height="80" rx="40" fill="white"/>
<path d="M77.8965 38.448V36.592H81.5125C82.2165 36.592 82.8352 36.4747 83.3685 36.24C83.9018 36.0053 84.3178 35.6747 84.6165 35.248C84.9152 34.8 85.0645 34.2667 85.0645 33.648C85.0645 32.7093 84.7338 31.984 84.0725 31.472C83.4112 30.96 82.5578 30.704 81.5125 30.704H78.7925V46.896H81.9285C82.7818 46.896 83.5392 46.7573 84.2005 46.48C84.8618 46.2027 85.3845 45.7867 85.7685 45.232C86.1525 44.6773 86.3445 43.984 86.3445 43.152C86.3445 42.5547 86.2272 42.032 85.9925 41.584C85.7792 41.1147 85.4698 40.7307 85.0645 40.432C84.6805 40.112 84.2218 39.888 83.6885 39.76C83.1552 39.6107 82.5685 39.536 81.9285 39.536H77.8965V37.456H82.1525C83.2405 37.456 84.2645 37.5733 85.2245 37.808C86.1845 38.0427 87.0378 38.4053 87.7845 38.896C88.5525 39.3867 89.1498 40.016 89.5765 40.784C90.0032 41.552 90.2165 42.4693 90.2165 43.536C90.2165 45.008 89.8645 46.224 89.1605 47.184C88.4778 48.144 87.5285 48.8587 86.3125 49.328C85.1178 49.776 83.7312 50 82.1525 50H75.0165V27.6H81.7685C83.1765 27.6 84.4138 27.8027 85.4805 28.208C86.5685 28.6133 87.4112 29.232 88.0085 30.064C88.6272 30.896 88.9365 31.952 88.9365 33.232C88.9365 34.3413 88.6272 35.2907 88.0085 36.08C87.4112 36.848 86.5685 37.4347 85.4805 37.84C84.4138 38.2453 83.1765 38.448 81.7685 38.448H77.8965ZM96.924 38.8C96.924 40.336 97.244 41.712 97.884 42.928C98.5453 44.1227 99.452 45.0613 100.604 45.744C101.756 46.4267 103.068 46.768 104.54 46.768C106.033 46.768 107.345 46.4267 108.476 45.744C109.628 45.0613 110.524 44.1227 111.164 42.928C111.825 41.712 112.156 40.336 112.156 38.8C112.156 37.264 111.836 35.8987 111.196 34.704C110.556 33.488 109.66 32.5387 108.508 31.856C107.377 31.1733 106.055 30.832 104.54 30.832C103.068 30.832 101.756 31.1733 100.604 31.856C99.452 32.5387 98.5453 33.488 97.884 34.704C97.244 35.8987 96.924 37.264 96.924 38.8ZM92.924 38.8C92.924 37.1147 93.212 35.568 93.788 34.16C94.364 32.752 95.1747 31.536 96.22 30.512C97.2867 29.4667 98.524 28.656 99.932 28.08C101.361 27.504 102.897 27.216 104.54 27.216C106.225 27.216 107.772 27.504 109.18 28.08C110.588 28.656 111.815 29.4667 112.86 30.512C113.927 31.536 114.748 32.752 115.324 34.16C115.9 35.568 116.188 37.1147 116.188 38.8C116.188 40.464 115.9 42.0107 115.324 43.44C114.748 44.8693 113.937 46.1067 112.892 47.152C111.847 48.1973 110.609 49.0187 109.18 49.616C107.772 50.192 106.225 50.48 104.54 50.48C102.876 50.48 101.329 50.192 99.9 49.616C98.4707 49.0187 97.2333 48.1973 96.188 47.152C95.164 46.1067 94.364 44.8693 93.788 43.44C93.212 42.0107 92.924 40.464 92.924 38.8ZM139.764 31.664L119.86 51.12L120.02 45.936L139.924 26.48L139.764 31.664ZM123.572 27.6V46.896L119.86 51.12V27.6H123.572ZM139.924 26.48V50H136.212V30.8L139.924 26.48ZM125.588 20.88H128.212C128.212 21.2 128.287 21.5307 128.436 21.872C128.607 22.2133 128.874 22.5013 129.236 22.736C129.62 22.9707 130.111 23.088 130.708 23.088C131.327 23.088 131.818 22.9707 132.18 22.736C132.564 22.5013 132.831 22.2133 132.98 21.872C133.151 21.5307 133.236 21.2 133.236 20.88H135.86C135.86 21.6693 135.668 22.416 135.284 23.12C134.9 23.8027 134.324 24.368 133.556 24.816C132.788 25.2427 131.839 25.456 130.708 25.456C129.599 25.456 128.66 25.2427 127.892 24.816C127.124 24.368 126.548 23.8027 126.164 23.12C125.78 22.416 125.588 21.6693 125.588 20.88ZM142.652 31.088V27.6H158.268V31.088H152.348V50H148.54V31.088H142.652ZM180.921 31.664L161.017 51.12L161.177 45.936L181.081 26.48L180.921 31.664ZM164.729 27.6V46.896L161.017 51.12V27.6H164.729ZM181.081 26.48V50H177.369V30.8L181.081 26.48Z" fill="#A25353"/>
</svg>
